<svg width="30" height="31" viewBox="0 0 30 31" fill="none" xmlns="http://www.w3.org/2000/svg">
<g opacity="0.65">
<path d="M24.9844 14.1679H8.17676C8.17383 14.1679 8.1709 14.1618 8.17383 14.1618L14.5137 7.86496C15.0264 7.35637 15.0439 6.51174 14.5488 5.98196C14.0566 5.45217 13.2393 5.43401 12.7266 5.94563L4.0957 14.516C3.84375 14.7673 3.7002 15.1155 3.7002 15.4757C3.7002 15.839 3.84375 16.1841 4.0957 16.4354L12.7734 25.0542C13.0225 25.3025 13.3447 25.4266 13.667 25.4266C14.0068 25.4266 14.3438 25.2904 14.5957 25.0179C15.0879 24.4881 15.0732 23.6435 14.5605 23.1349L8.2207 16.838C8.21777 16.835 8.2207 16.832 8.22363 16.832H25.0137C25.6992 16.832 26.2588 16.278 26.2998 15.5817C26.3438 14.8097 25.7314 14.1679 24.9844 14.1679Z" fill="black" stroke="black"/>
</g>
</svg>
