<svg width="25" height="22" viewBox="0 0 25 22" fill="none" xmlns="http://www.w3.org/2000/svg">
<path d="M17.474 3.5751L21.3889 7.45088C21.5538 7.61416 21.5538 7.88057 21.3889 8.04385L11.9097 17.4282L7.88194 17.8708C7.34375 17.931 6.88802 17.4798 6.94878 16.947L7.39583 12.9595L16.875 3.5751C17.0399 3.41182 17.309 3.41182 17.474 3.5751ZM24.5052 2.59111L22.3872 0.494238C21.7274 -0.158887 20.6554 -0.158887 19.9913 0.494238L18.4549 2.01533C18.2899 2.17861 18.2899 2.44502 18.4549 2.6083L22.3698 6.48408C22.5347 6.64736 22.8038 6.64736 22.9688 6.48408L24.5052 4.96299C25.1649 4.30557 25.1649 3.24424 24.5052 2.59111ZM16.6667 14.8759V19.2501H2.77778V5.5001H12.7517C12.8906 5.5001 13.0208 5.44424 13.1207 5.34971L14.8568 3.63096C15.1866 3.30439 14.9523 2.7501 14.4878 2.7501H2.08333C0.93316 2.7501 0 3.67393 0 4.8126V19.9376C0 21.0763 0.93316 22.0001 2.08333 22.0001H17.3611C18.5113 22.0001 19.4444 21.0763 19.4444 19.9376V13.1571C19.4444 12.6974 18.8845 12.4696 18.5547 12.7919L16.8186 14.5106C16.7231 14.6095 16.6667 14.7384 16.6667 14.8759Z" fill="white"/>
</svg>
