<svg width="31" height="31" viewBox="0 0 31 31" fill="none" xmlns="http://www.w3.org/2000/svg">
<path d="M28.6614 23.1637V9.21367C28.6614 7.92717 27.6229 6.88867 26.3364 6.88867H4.6209C3.3344 6.88867 2.2959 7.92717 2.2959 9.21367V23.1637C2.2959 24.4502 3.3344 25.4887 4.6209 25.4887H26.3364C27.6229 25.4887 28.6614 24.4502 28.6614 23.1637ZM26.6309 9.04317C27.1424 9.55467 26.8634 10.0817 26.5844 10.3452L20.2914 16.1112L26.3364 22.4042C26.5224 22.6212 26.6464 22.9622 26.4294 23.1947C26.2279 23.4427 25.7629 23.4272 25.5614 23.2722L18.7879 17.4907L15.4709 20.5132L12.1694 17.4907L5.3959 23.2722C5.1944 23.4272 4.7294 23.4427 4.5279 23.1947C4.3109 22.9622 4.4349 22.6212 4.6209 22.4042L10.6659 16.1112L4.3729 10.3452C4.0939 10.0817 3.8149 9.55467 4.3264 9.04317C4.8379 8.53167 5.3649 8.77967 5.7989 9.15167L15.4709 16.9637L25.1584 9.15167C25.5924 8.77967 26.1194 8.53167 26.6309 9.04317Z" fill="black" fill-opacity="0.6"/>
</svg>
