<svg width="57" height="57" viewBox="0 0 57 57" fill="none" xmlns="http://www.w3.org/2000/svg">
<path d="M52.6861 28.1104L29.7581 5.19905C29.593 5.03364 29.3969 4.90241 29.1811 4.81287C28.9652 4.72333 28.7338 4.67725 28.5001 4.67725C28.2664 4.67725 28.035 4.72333 27.8191 4.81287C27.6033 4.90241 27.4072 5.03364 27.2421 5.19905L4.31406 28.1104C3.64609 28.7783 3.26758 29.6857 3.26758 30.632C3.26758 32.5969 4.86514 34.1945 6.83008 34.1945H9.2459V50.543C9.2459 51.5283 10.0419 52.3242 11.0271 52.3242H24.9376V39.8555H31.172V52.3242H45.973C46.9583 52.3242 47.7543 51.5283 47.7543 50.543V34.1945H50.1701C51.1164 34.1945 52.0237 33.8215 52.6917 33.148C54.0777 31.7564 54.0777 29.502 52.6861 28.1104Z" fill="white"/>
</svg>
