<svg width="87" height="87" viewBox="0 0 87 87" fill="none" xmlns="http://www.w3.org/2000/svg">
<path d="M63.5564 23.4532C62.5921 22.4889 61.0345 22.4889 60.0702 23.4532L49.5868 33.9365L39.1035 23.4532C38.1392 22.4889 36.5815 22.4889 35.6172 23.4532C34.653 24.4175 34.653 25.9751 35.6172 26.9394L46.1006 37.4228L35.6172 47.9061C34.653 48.8704 34.653 50.4281 35.6172 51.3923C36.5568 52.3319 38.1886 52.3319 39.1035 51.3923L49.5868 40.909L60.0702 51.3923C60.54 51.8621 61.1581 52.1094 61.8257 52.1094C62.4932 52.1094 63.1114 51.8621 63.5811 51.3923C64.5454 50.4281 64.5454 48.8704 63.5811 47.9061L53.0978 37.4228L63.5811 26.9394C64.5207 25.9751 64.5207 24.4175 63.5564 23.4532Z" fill="black" fill-opacity="0.6"/>
<path d="M23.4282 11.1158C16.431 18.113 12.5739 27.4343 12.5739 37.3489C12.5739 46.3488 15.8376 54.9778 21.7716 61.7277L19.942 63.5574L18.1865 61.8019C17.2469 60.8623 15.6151 60.8623 14.7003 61.8019L2.46144 74.0407C1.05212 75.45 0.285645 77.3044 0.285645 79.2824C0.285645 81.2604 1.05212 83.1395 2.46144 84.5241C3.87076 85.9334 5.72513 86.6999 7.70312 86.6999C9.68111 86.6999 11.5602 85.9334 12.9448 84.5241L25.1836 72.2853C26.1479 71.321 26.1479 69.7633 25.1836 68.799L23.4282 67.0436L25.2578 65.2139C32.0324 71.1479 40.6367 74.4116 49.6366 74.4116C59.5513 74.4116 68.8478 70.5545 75.8697 63.5574C82.8669 56.5602 86.724 47.2389 86.724 37.3242C86.724 27.4095 82.8669 18.113 75.8697 11.0911C61.4056 -3.32354 37.8922 -3.32354 23.4282 11.1158ZM49.6366 69.4913C41.057 69.4913 32.972 66.1535 26.9144 60.0711C20.8568 53.9888 17.4942 45.9285 17.4942 37.3489C17.4942 28.7694 20.8321 20.6844 26.9144 14.6267C32.972 8.56914 41.057 5.23128 49.6366 5.23128C58.2408 5.23128 66.3012 8.56914 72.3588 14.6267C78.4411 20.7091 81.779 28.7694 81.779 37.3489C81.779 45.9285 78.4411 54.0135 72.3588 60.0711C66.2764 66.1288 58.2408 69.4913 49.6366 69.4913ZM5.94765 81.0626C4.98338 80.0983 4.98338 78.5407 5.94765 77.5764L16.431 67.093L19.9172 70.604L9.43386 81.0873C8.51904 81.9774 6.86247 81.9774 5.94765 81.0626Z" fill="black" fill-opacity="0.6"/>
</svg>
