<svg width="30" height="30" viewBox="0 0 30 30" fill="none" xmlns="http://www.w3.org/2000/svg">
<path d="M22.1497 26.6665H7.14974C6.92873 26.6665 6.71676 26.7543 6.56048 26.9106C6.4042 27.0669 6.31641 27.2788 6.31641 27.4998C6.31641 27.7209 6.4042 27.9328 6.56048 28.0891C6.71676 28.2454 6.92873 28.3332 7.14974 28.3332H22.1497C22.3708 28.3332 22.5827 28.2454 22.739 28.0891C22.8953 27.9328 22.9831 27.7209 22.9831 27.4998C22.9831 27.2788 22.8953 27.0669 22.739 26.9106C22.5827 26.7543 22.3708 26.6665 22.1497 26.6665Z" fill="black" fill-opacity="0.6"/>
<path d="M26.4417 12.8332H24.775V13.3415C24.7744 14.3358 24.6256 15.3244 24.3333 16.2748C22.9351 16.3807 21.529 16.2654 20.1667 15.9332C20.1659 15.5839 20.0709 15.2413 19.8917 14.9415C20.3966 14.2784 20.848 13.5762 21.2417 12.8415H19.8583C19.6035 13.2837 19.3253 13.7121 19.025 14.1248C18.6617 13.971 18.2595 13.934 17.8742 14.0191C17.4889 14.1043 17.1397 14.3072 16.875 14.5998C16.5833 14.4332 16.2917 14.2665 16.0417 14.0748C14.3594 12.9524 12.9545 11.462 11.9333 9.71649C12.0984 9.51183 12.2186 9.27475 12.286 9.02064C12.3535 8.76653 12.3668 8.50107 12.325 8.24149C13.608 7.80636 14.9465 7.55661 16.3 7.49982L17.025 6.24149C15.215 6.20599 13.4127 6.48803 11.7 7.07482C11.4376 6.81915 11.1083 6.64292 10.75 6.56649H10.5417C10.4417 6.21649 10.35 5.86649 10.275 5.50816C10.2 5.14982 10.1583 4.83316 10.1167 4.49149C11.3702 3.82359 12.7528 3.43326 14.1706 3.34698C15.5883 3.26071 17.0081 3.48052 18.3333 3.99149L19.1667 2.49982C17.3943 1.78285 15.4728 1.51245 13.5714 1.71243C11.6699 1.91241 9.84679 2.57664 8.26233 3.64666C6.67787 4.71669 5.38066 6.15972 4.48484 7.8488C3.58903 9.53788 3.12206 11.4212 3.12501 13.3332C3.12501 13.7082 3.12501 14.0748 3.18335 14.4415C3.461 17.4319 4.88118 20.2001 7.14832 22.1699C9.41545 24.1396 12.3549 25.1592 15.3548 25.0164C18.3547 24.8736 21.184 23.5794 23.2537 21.4032C25.3235 19.227 26.4743 16.3364 26.4667 13.3332C26.4667 13.1665 26.45 12.9998 26.4417 12.8332ZM8.94168 5.22482C8.94168 5.39982 8.99168 5.58316 9.02501 5.75816C9.10001 6.12482 9.20001 6.48316 9.30001 6.84149C8.9809 7.03045 8.72407 7.30868 8.56118 7.64186C8.39829 7.97504 8.33648 8.3486 8.38335 8.71649C7.07385 9.57685 5.9046 10.6337 4.91668 11.8498C5.11593 10.5313 5.57687 9.26593 6.2724 8.12818C6.96793 6.99043 7.88399 6.00329 8.96668 5.22482H8.94168ZM8.94168 18.3165C8.61947 18.4281 8.33218 18.6223 8.10845 18.8797C7.88473 19.137 7.73241 19.4485 7.66668 19.7832H7.13335C5.78757 18.178 4.98268 16.1891 4.83335 14.0998L4.92501 13.9415C5.96853 12.3234 7.33273 10.9366 8.93335 9.86649C9.17333 10.1171 9.47659 10.2982 9.81105 10.3906C10.1455 10.4831 10.4987 10.4833 10.8333 10.3915C11.948 12.2751 13.4716 13.8842 15.2917 15.0998C15.6333 15.3248 15.9833 15.5332 16.3333 15.7332C16.3053 16.0519 16.3569 16.3726 16.4833 16.6665C14.9583 17.8775 13.1992 18.7599 11.3167 19.2582C11.0984 18.8503 10.7421 18.5333 10.3117 18.3638C9.88116 18.1944 9.40445 18.1835 8.96668 18.3332L8.94168 18.3165ZM14.775 23.3165C13.0802 23.317 11.4135 22.8838 9.93335 22.0582L10.1667 22.0082C10.4983 21.8994 10.7946 21.7035 11.0248 21.4412C11.2549 21.1788 11.4104 20.8595 11.475 20.5165C13.6058 19.9731 15.5951 18.9784 17.3083 17.5998C17.7153 17.8377 18.1959 17.9165 18.6575 17.8211C19.1191 17.7257 19.529 17.4628 19.8083 17.0832C20.9841 17.3888 22.1935 17.5456 23.4083 17.5498H23.85C23.0473 19.2761 21.7684 20.7373 20.1638 21.7618C18.5592 22.7863 16.6955 23.3314 14.7917 23.3332L14.775 23.3165Z" fill="black" fill-opacity="0.6"/>
<path d="M22.3747 0.95017L17.608 9.16684C17.4971 9.32961 17.4334 9.51991 17.4241 9.71665C17.4147 9.91339 17.46 10.1089 17.5549 10.2815C17.6498 10.454 17.7907 10.597 17.9618 10.6944C18.133 10.7919 18.3278 10.84 18.5247 10.8335H28.0663C28.2632 10.84 28.458 10.7919 28.6292 10.6944C28.8003 10.597 28.9412 10.454 29.0361 10.2815C29.131 10.1089 29.1763 9.91339 29.1669 9.71665C29.1576 9.51991 29.0939 9.32961 28.983 9.16684L24.2163 0.95017C24.1223 0.789383 23.9879 0.656013 23.8263 0.563328C23.6648 0.470643 23.4817 0.421875 23.2955 0.421875C23.1092 0.421875 22.9262 0.470643 22.7647 0.563328C22.6031 0.656013 22.4687 0.789383 22.3747 0.95017Z" fill="black" fill-opacity="0.6"/>
</svg>
