<svg width="744" height="577" viewBox="0 0 744 577" fill="none" xmlns="http://www.w3.org/2000/svg">
<circle opacity="0.2" cx="383" cy="79" r="409" fill="#5E71B6"/>
<circle opacity="0.2" cx="712" cy="78" r="295" fill="#5E71B6"/>
<g clip-path="url(#clip0_125_10)">
<path d="M547.644 459.319C547.711 501.419 533.68 542.342 507.768 575.628H204.876C178.964 542.342 164.934 501.419 165 459.319C165 354.206 250.661 269 356.326 269C461.992 269 547.644 354.206 547.644 459.319Z" fill="white"/>
<path opacity="0.1" d="M547.644 459.319C547.711 501.419 533.68 542.342 507.768 575.628H204.876C178.964 542.342 164.934 501.419 165 459.319C165 354.206 250.661 269 356.326 269C461.992 269 547.644 354.206 547.644 459.319Z" fill="#5E71B6"/>
<path d="M550.664 271.434H398.879C384.074 271.434 372.072 283.373 372.072 298.1V298.101C372.072 312.828 384.074 324.767 398.879 324.767H550.664C565.468 324.767 577.47 312.828 577.47 298.101V298.1C577.47 283.373 565.468 271.434 550.664 271.434Z" fill="white"/>
<path d="M550.664 325.294H398.879C391.651 325.26 384.731 322.38 379.632 317.284C374.533 312.188 371.671 305.291 371.671 298.101C371.671 290.911 374.533 284.013 379.632 278.917C384.731 273.821 391.651 270.941 398.879 270.908H550.664C554.264 270.891 557.833 271.582 561.164 272.941C564.495 274.3 567.524 276.3 570.076 278.827C572.628 281.354 574.653 284.357 576.035 287.665C577.417 290.972 578.128 294.519 578.128 298.101C578.128 301.682 577.417 305.229 576.035 308.536C574.653 311.844 572.628 314.847 570.076 317.374C567.524 319.901 564.495 321.901 561.164 323.26C557.833 324.619 554.264 325.31 550.664 325.294ZM398.879 271.96C391.91 271.96 385.226 274.714 380.298 279.616C375.371 284.518 372.602 291.167 372.602 298.1C372.602 305.032 375.371 311.681 380.298 316.583C385.226 321.485 391.91 324.239 398.879 324.239H550.664C557.633 324.239 564.316 321.485 569.244 316.583C574.172 311.681 576.94 305.032 576.94 298.1C576.94 291.167 574.172 284.518 569.244 279.616C564.316 274.714 557.633 271.96 550.664 271.96H398.879Z" fill="#474646"/>
<path d="M274.53 332.008C274.53 332.008 272.896 351.252 268.414 358.165C255.511 378.068 251.473 400.642 263.825 412.691C276.177 424.739 356.298 426.315 362.852 399.218C368.371 376.406 357.448 373.75 355.117 354.81C354.061 346.24 351.06 328.256 351.06 328.256" fill="#474646"/>
<path d="M342.896 394.578C342.757 394.56 341.221 419.898 311.632 417.689C291.147 416.163 283.843 394.54 283.371 394.54C285.58 394.073 289.299 393.394 290.28 392.874C293.506 391.149 297.495 389.356 298.536 383.124C299.138 379.535 298.119 361.159 298.432 357.523L329.876 364.505C329.437 372.179 326.362 389.971 337.14 393.12C338.935 393.644 340.867 394.123 342.896 394.578Z" fill="#E98862"/>
<path opacity="0.5" d="M330.319 385.852C329.827 384.273 329.51 382.645 329.373 380.997C329.028 377.237 329.097 373.451 329.579 369.705C323.189 368.847 317.168 366.223 312.202 362.132C311.618 364.277 308.407 373.65 309.296 375.688C310.975 379.539 318.871 385.852 330.319 385.852Z" fill="#474646"/>
<path d="M325.841 377.955C313.424 378.93 297.474 373.714 294.445 357.235L291.711 342.366C288.682 325.887 294.926 310.945 310.524 308.108C326.121 305.27 340.235 316.507 343.265 332.987L344.475 339.57C345.638 345.893 347.995 376.217 325.841 377.955Z" fill="#E98862"/>
<path d="M330.91 355.163L330.941 355.158C331.572 355.039 332.197 354.885 332.812 354.697C333.73 354.409 334.933 353.932 334.782 353.107C334.609 352.168 330.161 342.508 329.655 341.409C329.608 341.317 329.527 341.246 329.429 341.212C329.331 341.178 329.224 341.182 329.129 341.225C329.035 341.269 328.961 341.346 328.923 341.443C328.886 341.539 328.887 341.646 328.927 341.741C330.824 345.855 333.878 352.619 333.994 353.251C333.889 353.543 332.365 354.088 330.797 354.375C330.696 354.395 330.607 354.452 330.547 354.535C330.487 354.619 330.462 354.722 330.477 354.823C330.491 354.924 330.544 355.016 330.625 355.079C330.706 355.142 330.808 355.173 330.91 355.163Z" fill="#474646"/>
<path d="M328.559 362.256C331.102 361.943 333.536 361.04 335.664 359.619C335.753 359.562 335.816 359.472 335.839 359.369C335.861 359.266 335.842 359.158 335.784 359.07C335.727 358.981 335.637 358.918 335.533 358.896C335.429 358.874 335.321 358.893 335.232 358.95C330.627 361.894 326.067 362.348 322.044 360.26C321.963 360.215 321.879 360.176 321.793 360.14C321.694 360.104 321.584 360.108 321.487 360.153C321.391 360.197 321.317 360.278 321.28 360.377C321.243 360.476 321.248 360.585 321.292 360.681C321.337 360.777 321.418 360.851 321.517 360.888C321.549 360.901 321.602 360.929 321.674 360.967C323.789 362.068 326.186 362.517 328.559 362.256Z" fill="#474646"/>
<path d="M279.216 347.466L293.198 345.004C303.801 340.812 307.112 322.617 307.112 322.617C307.112 322.617 319.882 335.151 351.06 328.258C351.06 328.258 345.084 285.027 299.011 297.305C284.155 301.263 273.419 316.066 274.622 335.946C275.465 349.875 279.216 347.466 279.216 347.466Z" fill="#474646"/>
<path d="M296.337 362.08C291.597 362.942 286.827 358.597 285.96 353.881C285.093 349.166 288.458 345.866 293.198 345.004L296.221 347.719L300.412 361.338L296.337 362.08Z" fill="#E98862"/>
<path d="M333.139 333.831C334.335 333.021 335.725 332.54 337.168 332.437C337.893 332.381 338.623 332.434 339.333 332.594C340.048 332.753 340.741 333 341.395 333.33L341.415 333.339C341.488 333.372 341.57 333.375 341.645 333.348C341.719 333.322 341.781 333.267 341.816 333.196C341.851 333.125 341.857 333.044 341.833 332.969C341.808 332.893 341.755 332.831 341.685 332.793C340.993 332.414 340.256 332.123 339.491 331.927C338.72 331.726 337.923 331.642 337.128 331.677C335.515 331.737 333.948 332.227 332.591 333.095C332.54 333.128 332.497 333.17 332.463 333.22C332.429 333.269 332.405 333.325 332.393 333.384C332.381 333.443 332.38 333.503 332.391 333.562C332.403 333.621 332.425 333.677 332.459 333.728C332.492 333.778 332.534 333.821 332.584 333.855C332.634 333.889 332.69 333.912 332.749 333.925C332.808 333.937 332.869 333.937 332.928 333.926C332.988 333.915 333.044 333.892 333.095 333.859L333.106 333.852L333.139 333.831Z" fill="#474646"/>
<path d="M320.381 335.356C318.803 335.015 317.163 335.101 315.63 335.606C314.873 335.85 314.156 336.207 313.505 336.663C312.856 337.113 312.268 337.642 311.753 338.238C311.725 338.267 311.703 338.302 311.689 338.339C311.675 338.376 311.668 338.416 311.669 338.456C311.671 338.537 311.706 338.614 311.765 338.669C311.824 338.725 311.903 338.754 311.984 338.752C312.065 338.75 312.142 338.716 312.198 338.657L312.214 338.64C312.71 338.104 313.272 337.631 313.887 337.234C314.495 336.836 315.161 336.533 315.86 336.333C317.25 335.926 318.723 335.892 320.129 336.236L320.164 336.245C320.282 336.275 320.407 336.258 320.513 336.197C320.618 336.135 320.694 336.035 320.725 335.918C320.756 335.801 320.738 335.676 320.677 335.571C320.615 335.467 320.514 335.391 320.396 335.36L320.381 335.356Z" fill="#474646"/>
<path d="M329.076 365.996C329.537 365.947 329.993 365.858 330.438 365.732C330.541 365.703 330.627 365.636 330.679 365.544C330.731 365.452 330.744 365.343 330.715 365.241C330.687 365.14 330.618 365.053 330.526 365.002C330.433 364.95 330.324 364.937 330.222 364.966C327.54 365.716 326.023 364.691 325.959 364.647C325.873 364.586 325.766 364.561 325.661 364.579C325.556 364.596 325.463 364.655 325.402 364.74C325.34 364.826 325.316 364.933 325.333 365.037C325.351 365.141 325.409 365.234 325.496 365.295C326.572 365.933 327.837 366.181 329.076 365.996Z" fill="#474646"/>
<path d="M293.211 344.777C302.639 341.475 305.861 335.094 306.904 330.323C307.58 327.14 307.58 323.853 306.904 320.67L306.613 320.745C307.278 323.886 307.276 327.13 306.607 330.27C305.578 334.963 302.398 341.24 293.109 344.496L293.211 344.777Z" fill="#474646"/>
<path opacity="0.1" d="M318.346 356.297C320.391 356.091 321.924 354.715 321.772 353.223C321.62 351.732 319.84 350.69 317.796 350.896C315.752 351.102 314.218 352.478 314.37 353.97C314.522 355.461 316.302 356.503 318.346 356.297Z" fill="#474646"/>
<path opacity="0.1" d="M340.006 350.728C340.162 352.217 341.942 353.258 343.986 353.055C344.34 353.019 344.688 352.947 345.027 352.839C345.153 351.069 345.189 349.364 345.165 347.785C344.601 347.634 344.014 347.589 343.433 347.653C341.389 347.857 339.856 349.232 340.006 350.728Z" fill="#474646"/>
<path d="M249.944 545.125L246.394 576.402H375.13L373.144 544.929L249.944 545.125Z" fill="#474646"/>
<path d="M310.953 411.392C290.453 410.431 289.59 393.122 289.59 393.122C289.59 393.122 279.433 393.775 272.681 394.684C261.627 396.172 249.908 399.948 244.59 409.09C240.767 415.665 239.846 416.855 243.324 453.952C245.842 480.813 249.944 545.127 249.944 545.127L373.144 544.93C373.144 544.93 378.627 462.453 379.661 450.361C381.635 427.279 384.751 394.745 378.137 393.121C370.431 391.229 345.278 394.339 337.143 393.121C337.005 393.103 338.869 412.701 310.953 411.392Z" fill="#5E71B6"/>
<path d="M529.3 320.916C529.479 320.514 529.739 320.152 530.064 319.852C530.389 319.553 530.771 319.323 531.188 319.175C531.605 319.028 532.048 318.966 532.49 318.995C532.932 319.023 533.363 319.141 533.758 319.341C534.508 319.754 535.072 320.435 535.337 321.246C535.602 322.057 535.547 322.938 535.184 323.71L533.401 327.713L544.855 317.651C546.109 316.51 548.381 315.908 549.575 317.391C550.071 317.932 550.368 318.625 550.418 319.356C550.467 320.086 550.267 320.812 549.848 321.415C549.863 321.424 549.877 321.435 549.89 321.448C549.897 321.458 549.903 321.469 549.908 321.48L551.842 319.721C552.198 319.398 552.622 319.157 553.083 319.016C553.544 318.875 554.031 318.837 554.508 318.906C554.985 318.975 555.441 319.148 555.843 319.413C556.245 319.678 556.583 320.028 556.833 320.439C557.217 321.103 557.358 321.878 557.234 322.633C557.109 323.389 556.726 324.078 556.148 324.585L555.326 325.333C555.337 325.368 555.342 325.404 555.34 325.441C556.007 325.066 556.785 324.938 557.538 325.078C558.29 325.217 558.969 325.617 559.456 326.205C559.976 326.883 560.219 327.732 560.134 328.581C560.049 329.429 559.644 330.214 558.999 330.777L556.977 332.617C557.025 332.611 557.073 332.616 557.118 332.632C557.163 332.649 557.203 332.675 557.236 332.71C557.272 332.753 557.296 332.807 557.302 332.863C557.978 332.697 558.688 332.75 559.331 333.015C559.973 333.28 560.514 333.742 560.873 334.334C561.257 334.998 561.399 335.773 561.274 336.528C561.15 337.284 560.766 337.973 560.189 338.48L542.948 354.169C540.536 356.364 537.52 357.792 534.287 358.27C531.053 358.748 527.75 358.255 524.8 356.854L515.303 352.341L529.3 320.916Z" fill="#E98862"/>
<g opacity="0.2">
<path opacity="0.2" d="M538.563 331.432C538.617 331.489 538.691 331.524 538.77 331.528C538.848 331.531 538.926 331.504 538.984 331.452L549.864 321.87C549.894 321.844 549.918 321.813 549.935 321.777C549.952 321.742 549.963 321.704 549.965 321.665C549.967 321.625 549.962 321.586 549.949 321.549C549.936 321.512 549.916 321.477 549.89 321.448C549.864 321.419 549.832 321.395 549.797 321.377C549.761 321.36 549.723 321.35 549.683 321.348C549.644 321.345 549.604 321.351 549.567 321.363C549.53 321.376 549.495 321.396 549.465 321.422L538.582 331.005C538.553 331.031 538.528 331.062 538.511 331.098C538.494 331.133 538.484 331.171 538.481 331.211C538.479 331.25 538.485 331.289 538.498 331.326C538.51 331.363 538.531 331.398 538.557 331.427L538.563 331.432Z" fill="#474646"/>
</g>
<g opacity="0.2">
<path opacity="0.2" d="M542.68 336.322C542.733 336.379 542.807 336.414 542.886 336.418C542.965 336.422 543.042 336.395 543.101 336.343L555.243 325.648C555.272 325.622 555.297 325.591 555.314 325.555C555.331 325.52 555.341 325.482 555.344 325.442C555.346 325.403 555.341 325.364 555.328 325.327C555.315 325.29 555.295 325.255 555.269 325.226C555.214 325.169 555.14 325.135 555.061 325.13C554.983 325.125 554.905 325.151 554.844 325.201L542.702 335.895C542.672 335.921 542.648 335.952 542.631 335.988C542.614 336.023 542.603 336.061 542.601 336.101C542.599 336.14 542.604 336.179 542.617 336.216C542.63 336.253 542.65 336.288 542.676 336.317L542.68 336.322Z" fill="#474646"/>
</g>
<g opacity="0.2">
<path opacity="0.2" d="M547.107 341.644C547.16 341.701 547.234 341.736 547.313 341.74C547.392 341.744 547.469 341.717 547.528 341.665L557.214 333.134C557.274 333.082 557.31 333.007 557.315 332.928C557.32 332.849 557.293 332.771 557.24 332.712C557.187 332.652 557.112 332.616 557.033 332.611C556.953 332.607 556.875 332.634 556.815 332.686L547.129 341.216C547.1 341.243 547.076 341.274 547.058 341.309C547.041 341.345 547.031 341.383 547.028 341.422C547.026 341.462 547.031 341.501 547.044 341.538C547.057 341.575 547.077 341.609 547.103 341.639L547.107 341.644Z" fill="#474646"/>
</g>
<path d="M518.32 332.008L453.028 385.213L362.648 393.324C356.852 393.807 351.468 396.5 347.62 400.839C343.773 405.179 341.76 410.829 342.002 416.61C342.244 422.391 344.722 427.855 348.919 431.861C353.116 435.868 358.706 438.105 364.523 438.107C365.16 438.107 365.801 438.08 366.447 438.026L463.922 429.318C468.539 428.93 472.924 427.136 476.479 424.18L544.858 363.834L518.32 332.008Z" fill="#5E71B6"/>
<path d="M532.8 329.207L535.184 323.71C535.547 322.938 535.602 322.057 535.337 321.246C535.072 320.435 534.508 319.754 533.758 319.341C533.363 319.141 532.932 319.023 532.49 318.995C532.048 318.966 531.606 319.028 531.188 319.175C530.771 319.323 530.389 319.553 530.064 319.852C529.74 320.152 529.48 320.514 529.3 320.916" fill="#E98862"/>
<path d="M362.335 494.152C362.27 495.002 361.882 495.796 361.25 496.372C360.619 496.948 359.79 497.264 358.933 497.254L356.193 497.287C356.232 497.314 356.264 497.35 356.287 497.391C356.309 497.433 356.321 497.479 356.321 497.527C356.322 497.584 356.304 497.64 356.27 497.686C356.885 498.01 357.379 498.522 357.68 499.146C357.981 499.769 358.074 500.473 357.944 501.153C357.784 501.902 357.369 502.573 356.77 503.053C356.17 503.533 355.423 503.793 354.653 503.789L331.293 504.041C328.024 504.078 324.819 503.143 322.088 501.355C319.358 499.567 317.226 497.008 315.968 494.007L311.909 484.343L324.34 481.711L324.637 478.629L343.408 470.206C343.811 470.025 344.248 469.927 344.69 469.919C345.133 469.911 345.572 469.993 345.982 470.16C346.391 470.326 346.763 470.574 347.073 470.888C347.383 471.202 347.626 471.576 347.786 471.986C348.068 472.791 348.033 473.673 347.687 474.454C347.341 475.234 346.71 475.855 345.922 476.19L341.908 477.99L357.188 478.092C358.89 478.073 360.986 479.13 360.881 481.023C360.89 481.756 360.648 482.47 360.196 483.048C359.744 483.627 359.108 484.035 358.392 484.208C358.392 484.226 358.396 484.239 358.397 484.258L358.387 484.292L361.008 484.265C361.491 484.259 361.969 484.361 362.408 484.561C362.847 484.762 363.235 485.058 363.545 485.426C363.855 485.795 364.079 486.227 364.2 486.692C364.322 487.157 364.338 487.643 364.247 488.115C364.089 488.863 363.676 489.534 363.077 490.014C362.479 490.494 361.732 490.753 360.963 490.747L359.843 490.763C359.827 490.793 359.809 490.821 359.788 490.848C360.535 491.013 361.199 491.435 361.665 492.04C362.131 492.644 362.368 493.392 362.335 494.152Z" fill="#E98862"/>
<g opacity="0.2">
<path opacity="0.2" d="M343.263 484.188C343.264 484.266 343.296 484.341 343.353 484.396C343.409 484.451 343.485 484.481 343.563 484.481L358.095 484.557C358.175 484.557 358.251 484.525 358.307 484.469C358.364 484.413 358.395 484.337 358.395 484.258C358.395 484.178 358.364 484.102 358.307 484.046C358.251 483.99 358.175 483.959 358.095 483.959L343.563 483.883C343.484 483.883 343.407 483.915 343.351 483.971C343.294 484.027 343.263 484.103 343.263 484.182V484.188Z" fill="#474646"/>
</g>
<g opacity="0.2">
<path opacity="0.2" d="M343.052 490.562C343.054 490.641 343.086 490.715 343.142 490.77C343.198 490.825 343.274 490.856 343.353 490.856L359.57 490.94C359.649 490.94 359.726 490.909 359.782 490.853C359.839 490.797 359.87 490.721 359.87 490.641C359.868 490.563 359.835 490.488 359.78 490.433C359.724 490.377 359.649 490.345 359.57 490.342L343.353 490.259C343.273 490.259 343.197 490.29 343.14 490.346C343.084 490.402 343.052 490.478 343.052 490.558V490.562Z" fill="#474646"/>
</g>
<g opacity="0.2">
<path opacity="0.2" d="M342.785 497.465C342.786 497.544 342.818 497.618 342.875 497.673C342.931 497.728 343.007 497.759 343.085 497.759L356.021 497.826C356.101 497.826 356.177 497.794 356.234 497.738C356.29 497.682 356.322 497.606 356.322 497.527C356.322 497.447 356.29 497.371 356.234 497.315C356.177 497.259 356.101 497.228 356.021 497.228L343.085 497.161C343.006 497.161 342.929 497.192 342.873 497.248C342.816 497.304 342.785 497.38 342.785 497.46V497.465Z" fill="#474646"/>
</g>
<path d="M330.086 510.957L232.277 528.289C228.167 529.374 223.833 529.282 219.775 528.022C215.716 526.762 212.099 524.386 209.339 521.169C206.579 517.952 204.79 514.024 204.178 509.838C203.566 505.653 204.156 501.381 205.88 497.515L241.5 415.089C246.551 403.765 259.034 398.657 270.416 403.681C275.882 406.093 280.161 410.567 282.312 416.118C284.463 421.669 284.309 427.842 281.884 433.28L260.966 482.606L326.38 473.96L330.086 510.957Z" fill="#5E71B6"/>
<path d="M249.133 525.715C249.161 525.716 249.189 525.712 249.216 525.703L330.169 511.245C330.244 511.223 330.308 511.173 330.347 511.105C330.385 511.038 330.396 510.958 330.376 510.882L326.671 472.688C326.651 472.612 326.602 472.547 326.535 472.506C326.467 472.466 326.386 472.454 326.31 472.472L261.507 482.175L282.15 433.409C282.18 433.338 282.182 433.259 282.154 433.187C282.127 433.116 282.073 433.057 282.004 433.024C281.934 432.99 281.854 432.985 281.781 433.009C281.708 433.032 281.646 433.083 281.609 433.15L260.696 482.477C260.672 482.527 260.662 482.584 260.669 482.639C260.676 482.695 260.698 482.748 260.734 482.791C260.769 482.835 260.816 482.868 260.869 482.886C260.922 482.905 260.98 482.908 261.035 482.895L326.163 473.117L329.72 510.748L249.049 525.13C248.979 525.15 248.919 525.194 248.879 525.255C248.84 525.316 248.823 525.388 248.834 525.46C248.844 525.532 248.88 525.597 248.935 525.644C248.99 525.692 249.06 525.718 249.133 525.717V525.715Z" fill="#474646"/>
<path d="M252.871 483.981C252.892 483.981 252.914 483.979 252.935 483.974L261.031 482.898C261.07 482.89 261.107 482.874 261.14 482.852C261.172 482.829 261.2 482.801 261.222 482.768C261.244 482.734 261.259 482.697 261.266 482.658C261.273 482.62 261.272 482.58 261.264 482.541C261.255 482.502 261.239 482.466 261.216 482.433C261.194 482.401 261.165 482.373 261.131 482.352C261.097 482.331 261.06 482.317 261.021 482.31C260.982 482.303 260.942 482.304 260.903 482.313L252.806 483.39C252.734 483.406 252.671 483.448 252.628 483.508C252.584 483.567 252.565 483.641 252.573 483.714C252.581 483.787 252.616 483.855 252.671 483.904C252.726 483.953 252.797 483.981 252.871 483.981V483.981Z" fill="#474646"/>
<path d="M380.807 437.117C380.883 437.117 380.956 437.089 381.012 437.038C381.067 436.987 381.102 436.916 381.108 436.841L382.447 419.591C382.453 419.512 382.428 419.433 382.376 419.373C382.323 419.312 382.249 419.275 382.17 419.269C382.09 419.263 382.011 419.288 381.95 419.34C381.89 419.392 381.852 419.466 381.846 419.545L380.506 436.795C380.5 436.874 380.526 436.952 380.578 437.012C380.63 437.073 380.703 437.11 380.783 437.116C380.791 437.117 380.799 437.117 380.807 437.117Z" fill="#474646"/>
<path d="M339.82 339.489C340.898 339.489 341.773 338.619 341.773 337.546C341.773 336.473 340.898 335.604 339.82 335.604C338.741 335.604 337.867 336.473 337.867 337.546C337.867 338.619 338.741 339.489 339.82 339.489Z" fill="#474646"/>
<path d="M320.023 342.816C321.102 342.816 321.976 341.946 321.976 340.873C321.976 339.8 321.102 338.93 320.023 338.93C318.945 338.93 318.07 339.8 318.07 340.873C318.07 341.946 318.945 342.816 320.023 342.816Z" fill="#474646"/>
<path d="M201.15 577H511.495C511.654 577 511.807 576.937 511.92 576.825C512.032 576.713 512.096 576.561 512.096 576.402C512.096 576.243 512.032 576.091 511.92 575.979C511.807 575.867 511.654 575.804 511.495 575.804H201.15C200.99 575.804 200.837 575.867 200.724 575.979C200.612 576.091 200.548 576.243 200.548 576.402C200.548 576.561 200.612 576.713 200.724 576.825C200.837 576.937 200.99 577 201.15 577Z" fill="#292A2E"/>
</g>
<defs>
<clipPath id="clip0_125_10">
<rect width="413" height="308" fill="white" transform="translate(165 269)"/>
</clipPath>
</defs>
</svg>
