<svg width="413" height="308" viewBox="0 0 413 308" fill="none" xmlns="http://www.w3.org/2000/svg">
<g clip-path="url(#clip0_411_3515)">
<path d="M382.644 190.319C382.711 232.419 368.681 273.342 342.768 306.628H39.8759C13.964 273.342 -0.0662358 232.419 -1.07685e-05 190.319C-1.07685e-05 85.2055 85.6608 0 191.327 0C296.992 0 382.644 85.2055 382.644 190.319Z" fill="white"/>
<path opacity="0.1" d="M382.644 190.319C382.711 232.419 368.681 273.342 342.768 306.628H39.8759C13.964 273.342 -0.0662358 232.419 -1.07685e-05 190.319C-1.07685e-05 85.2055 85.6608 0 191.327 0C296.992 0 382.644 85.2055 382.644 190.319Z" fill="#5E71B6"/>
<path d="M385.664 2.4339H233.879C219.074 2.4339 207.073 14.3728 207.073 29.1003V29.1009C207.073 43.8283 219.074 55.7673 233.879 55.7673H385.664C400.469 55.7673 412.47 43.8283 412.47 29.1009V29.1003C412.47 14.3728 400.469 2.4339 385.664 2.4339Z" fill="white"/>
<path d="M385.664 56.2937H233.879C226.651 56.2599 219.731 53.3801 214.632 48.2841C209.534 43.188 206.671 36.2906 206.671 29.1006C206.671 21.9106 209.534 15.0132 214.632 9.91712C219.731 4.82109 226.651 1.94125 233.879 1.90753H385.664C389.264 1.89073 392.833 2.5817 396.164 3.94075C399.496 5.2998 402.524 7.30016 405.076 9.82694C407.628 12.3537 409.653 15.3571 411.035 18.6647C412.417 21.9722 413.128 25.5188 413.128 29.1006C413.128 32.6824 412.417 36.2289 411.035 39.5365C409.653 42.844 407.628 45.8475 405.076 48.3742C402.524 50.901 399.496 52.9014 396.164 54.2604C392.833 55.6195 389.264 56.3104 385.664 56.2937V56.2937ZM233.879 2.96028C226.91 2.96028 220.226 5.71425 215.299 10.6163C210.371 15.5184 207.602 22.1671 207.602 29.0997C207.602 36.0323 210.371 42.681 215.299 47.583C220.226 52.4851 226.91 55.2391 233.879 55.2391H385.664C392.633 55.2391 399.316 52.4851 404.244 47.583C409.172 42.681 411.94 36.0323 411.94 29.0997C411.94 22.1671 409.172 15.5184 404.244 10.6163C399.316 5.71425 392.633 2.96028 385.664 2.96028H233.879Z" fill="#474646"/>
<path d="M109.53 63.008C109.53 63.008 107.896 82.2518 103.414 89.1653C90.5107 109.068 86.473 131.642 98.8248 143.691C111.177 155.739 191.298 157.315 197.852 130.219C203.371 107.406 192.448 104.75 190.117 85.8097C189.061 77.2399 186.06 59.2557 186.06 59.2557" fill="#474646"/>
<path d="M177.896 125.578C177.757 125.56 176.221 150.898 146.632 148.689C126.147 147.162 118.843 125.54 118.371 125.54C120.58 125.073 124.299 124.394 125.28 123.874C128.506 122.149 132.495 120.355 133.536 114.124C134.138 110.535 133.119 92.1584 133.432 88.5228L164.876 95.5045C164.437 103.179 161.362 120.971 172.14 124.12C173.935 124.644 175.867 125.123 177.896 125.578Z" fill="#E98862"/>
<path opacity="0.5" d="M165.319 116.852C164.827 115.273 164.51 113.645 164.373 111.997C164.028 108.237 164.097 104.451 164.579 100.705C158.189 99.8473 152.168 97.2233 147.202 93.1317C146.618 95.2766 143.407 104.65 144.296 106.688C145.975 110.539 153.871 116.852 165.319 116.852Z" fill="#474646"/>
<path d="M160.841 108.955C148.424 109.93 132.474 104.714 129.445 88.2351L126.711 73.3662C123.682 56.887 129.926 41.945 145.524 39.1074C161.121 36.2697 175.235 47.5073 178.265 63.9865L179.475 70.5698C180.638 76.8929 182.995 107.216 160.841 108.955Z" fill="#E98862"/>
<path d="M165.91 86.1631L165.94 86.1583C166.572 86.0388 167.197 85.8846 167.812 85.6966C168.73 85.4089 169.932 84.9315 169.781 84.1073C169.609 83.1682 165.161 73.508 164.654 72.4091C164.608 72.3168 164.527 72.246 164.429 72.2118C164.331 72.1775 164.224 72.1824 164.129 72.2255C164.035 72.2685 163.961 72.3464 163.923 72.4426C163.885 72.5388 163.887 72.6458 163.927 72.7411C165.824 76.8552 168.878 83.6186 168.994 84.2508C168.889 84.5427 167.365 85.0883 165.797 85.3754C165.696 85.3948 165.606 85.4521 165.547 85.5354C165.487 85.6187 165.462 85.7215 165.477 85.8227C165.491 85.9239 165.544 86.0157 165.625 86.0791C165.705 86.1424 165.807 86.1725 165.91 86.1631V86.1631Z" fill="#474646"/>
<path d="M163.559 93.2555C166.103 92.9426 168.536 92.0397 170.664 90.6194C170.754 90.5624 170.816 90.4724 170.839 90.3694C170.861 90.2663 170.842 90.1585 170.785 90.0697C170.727 89.981 170.637 89.9185 170.533 89.8961C170.43 89.8736 170.321 89.8931 170.232 89.9501C165.627 92.8942 161.067 93.3476 157.044 91.2601C156.963 91.2155 156.879 91.1755 156.794 91.1404C156.694 91.104 156.584 91.1085 156.488 91.1528C156.391 91.1971 156.317 91.2776 156.28 91.3767C156.244 91.4758 156.248 91.5852 156.293 91.681C156.337 91.7768 156.418 91.8511 156.518 91.8875C156.549 91.9007 156.602 91.9288 156.675 91.9671C158.79 93.0682 161.187 93.5168 163.559 93.2555V93.2555Z" fill="#474646"/>
<path d="M114.216 78.4661L128.197 76.0041C138.8 71.8116 142.112 53.6169 142.112 53.6169C142.112 53.6169 154.882 66.1513 186.06 59.2575C186.06 59.2575 180.084 16.027 134.011 28.3047C119.154 32.2633 108.418 47.0659 109.622 66.9456C110.465 80.8749 114.216 78.4661 114.216 78.4661Z" fill="#474646"/>
<path d="M131.337 93.0796C126.597 93.9422 121.827 89.5966 120.959 84.8813C120.092 80.1661 123.457 76.866 128.197 76.0041L131.221 78.7191L135.412 92.3379L131.337 93.0796Z" fill="#E98862"/>
<path d="M168.139 64.8306C169.335 64.0205 170.725 63.5399 172.168 63.4374C172.893 63.3812 173.623 63.4341 174.333 63.5942C175.048 63.7526 175.741 63.9998 176.395 64.3299L176.416 64.3395C176.488 64.3719 176.57 64.3752 176.645 64.3484C176.72 64.3217 176.781 64.2672 176.816 64.1963C176.851 64.1254 176.857 64.0437 176.833 63.9686C176.808 63.8934 176.756 63.8306 176.686 63.7934C175.994 63.4139 175.256 63.1227 174.491 62.9266C173.72 62.726 172.924 62.6418 172.128 62.6766C170.515 62.7369 168.948 63.2267 167.591 64.0948C167.541 64.1277 167.497 64.1702 167.463 64.2198C167.429 64.2694 167.405 64.3252 167.393 64.384C167.381 64.4428 167.38 64.5034 167.392 64.5623C167.403 64.6213 167.426 64.6775 167.459 64.7277C167.492 64.7779 167.535 64.8211 167.584 64.8549C167.634 64.8886 167.69 64.9123 167.749 64.9245C167.809 64.9368 167.869 64.9373 167.929 64.9261C167.988 64.9149 168.044 64.8922 168.095 64.8593L168.106 64.8521L168.139 64.8306Z" fill="#474646"/>
<path d="M155.381 66.3558C153.803 66.015 152.163 66.1014 150.63 66.6058C149.873 66.8504 149.156 67.2067 148.505 67.6628C147.856 68.1124 147.268 68.6418 146.753 69.2383C146.725 69.2674 146.703 69.3016 146.689 69.3389C146.675 69.3763 146.668 69.4161 146.669 69.4561C146.671 69.5369 146.706 69.6135 146.765 69.669C146.824 69.7245 146.903 69.7544 146.984 69.7522C147.065 69.7499 147.142 69.7157 147.198 69.657L147.214 69.6403C147.71 69.1035 148.272 68.631 148.887 68.234C149.495 67.8364 150.161 67.5327 150.86 67.3332C152.25 66.9261 153.723 66.8924 155.129 67.2357L155.164 67.2447C155.282 67.2753 155.407 67.258 155.513 67.1967C155.618 67.1354 155.694 67.0351 155.725 66.9178C155.756 66.8004 155.738 66.6758 155.677 66.5712C155.615 66.4666 155.514 66.3906 155.396 66.36L155.381 66.3558Z" fill="#474646"/>
<path d="M164.076 96.9957C164.537 96.9466 164.993 96.8583 165.438 96.7319C165.541 96.7034 165.627 96.6356 165.679 96.5436C165.731 96.4516 165.744 96.3428 165.715 96.2412C165.687 96.1395 165.618 96.0534 165.526 96.0018C165.433 95.9501 165.324 95.9371 165.222 95.9657C162.54 96.7158 161.023 95.6911 160.959 95.6469C160.873 95.5857 160.766 95.5612 160.661 95.5788C160.556 95.5963 160.463 95.6545 160.402 95.7405C160.34 95.8265 160.316 95.9332 160.333 96.0373C160.351 96.1413 160.409 96.2341 160.496 96.2953C161.572 96.9334 162.837 97.1809 164.076 96.9957V96.9957Z" fill="#474646"/>
<path d="M128.211 75.7767C137.639 72.4749 140.861 66.0944 141.904 61.3229C142.58 58.1405 142.58 54.8529 141.904 51.6705L141.613 51.7446C142.278 54.8856 142.276 58.1301 141.607 61.2703C140.578 65.9634 137.398 72.2404 128.109 75.4956L128.211 75.7767Z" fill="#474646"/>
<path opacity="0.1" d="M153.346 87.2968C155.391 87.0907 156.924 85.7144 156.772 84.2229C156.62 82.7315 154.84 81.6895 152.796 81.8956C150.752 82.1018 149.218 83.478 149.37 84.9695C149.522 86.461 151.302 87.503 153.346 87.2968Z" fill="#474646"/>
<path opacity="0.1" d="M175.006 81.7278C175.162 83.2172 176.942 84.258 178.986 84.0546C179.34 84.0188 179.688 83.9466 180.027 83.8393C180.153 82.0688 180.189 80.364 180.165 78.7849C179.601 78.6341 179.014 78.5895 178.433 78.6533C176.389 78.8567 174.856 80.2324 175.006 81.7278Z" fill="#474646"/>
<path d="M84.9447 276.125L81.394 307.402H210.13L208.145 275.929L84.9447 276.125Z" fill="#474646"/>
<path d="M145.953 142.392C125.454 141.431 124.591 124.122 124.591 124.122C124.591 124.122 114.434 124.775 107.681 125.684C96.6272 127.172 84.9086 130.948 79.5902 140.09C75.7671 146.665 74.8466 147.855 78.3244 184.952C80.8426 211.813 84.9447 276.127 84.9447 276.127L208.145 275.93C208.145 275.93 213.627 193.453 214.662 181.361C216.636 158.279 219.752 125.745 213.137 124.121C205.432 122.229 180.279 125.339 172.143 124.121C172.005 124.103 173.869 143.701 145.953 142.392Z" fill="#5E71B6"/>
<path d="M364.301 51.9163C364.48 51.5137 364.74 51.1517 365.064 50.8523C365.389 50.5529 365.772 50.3225 366.189 50.1751C366.606 50.0276 367.049 49.9663 367.491 49.9948C367.932 50.0233 368.364 50.141 368.758 50.3408C369.508 50.7537 370.073 51.4345 370.337 52.2457C370.602 53.0569 370.547 53.9378 370.184 54.7103L368.401 58.7126L379.855 48.651C381.109 47.5103 383.381 46.908 384.575 48.3914C385.071 48.9324 385.368 49.6248 385.418 50.3555C385.468 51.0862 385.267 51.812 384.849 52.4146C384.864 52.4241 384.878 52.4353 384.89 52.4481C384.897 52.4584 384.903 52.4692 384.909 52.4804L386.843 50.7212C387.199 50.3977 387.622 50.1567 388.083 50.0157C388.544 49.8748 389.031 49.8372 389.509 49.9059C389.986 49.9745 390.442 50.1477 390.844 50.4128C391.246 50.6779 391.584 51.0284 391.833 51.439C392.217 52.1026 392.359 52.8777 392.234 53.6333C392.109 54.3888 391.726 55.0782 391.149 55.5848L390.326 56.3331C390.338 56.3679 390.342 56.4044 390.34 56.4408C391.007 56.0664 391.785 55.9378 392.538 56.0776C393.291 56.2174 393.97 56.6167 394.456 57.2052C394.977 57.8829 395.219 58.7319 395.134 59.5806C395.05 60.4293 394.644 61.2143 394 61.7769L391.978 63.6169C392.025 63.6108 392.073 63.6161 392.118 63.6324C392.163 63.6486 392.204 63.6753 392.236 63.7102C392.273 63.7534 392.296 63.8065 392.303 63.8627C392.978 63.6967 393.689 63.75 394.331 64.0148C394.974 64.2795 395.514 64.7419 395.874 65.3342C396.258 65.9977 396.399 66.7729 396.275 67.5284C396.15 68.2839 395.767 68.9734 395.19 69.48L377.949 85.169C375.537 87.3636 372.52 88.7916 369.287 89.2699C366.054 89.7482 362.75 89.255 359.801 87.8535L350.304 83.341L364.301 51.9163Z" fill="#E98862"/>
<g opacity="0.2">
<path opacity="0.2" d="M373.564 62.4319C373.618 62.4895 373.692 62.5239 373.77 62.5277C373.849 62.5315 373.926 62.5044 373.985 62.4523L384.865 52.8704C384.894 52.8444 384.919 52.8128 384.936 52.7775C384.953 52.7422 384.963 52.7038 384.966 52.6646C384.968 52.6254 384.963 52.5861 384.95 52.5489C384.937 52.5118 384.917 52.4775 384.891 52.4481C384.865 52.4187 384.833 52.3947 384.797 52.3775C384.762 52.3603 384.723 52.3502 384.684 52.3478C384.644 52.3454 384.605 52.3508 384.568 52.3636C384.53 52.3764 384.496 52.3963 384.466 52.4224L373.583 62.0048C373.553 62.0309 373.529 62.0625 373.512 62.0979C373.495 62.1332 373.485 62.1716 373.482 62.2108C373.48 62.25 373.485 62.2893 373.498 62.3264C373.511 62.3635 373.531 62.3978 373.558 62.4271L373.564 62.4319Z" fill="#474646"/>
</g>
<g opacity="0.2">
<path opacity="0.2" d="M377.681 67.3219C377.734 67.3795 377.808 67.4141 377.887 67.418C377.965 67.4219 378.043 67.3949 378.101 67.3428L390.243 56.6484C390.273 56.6223 390.297 56.5908 390.314 56.5554C390.332 56.5201 390.342 56.4818 390.344 56.4425C390.347 56.4033 390.341 56.364 390.328 56.3269C390.315 56.2897 390.295 56.2555 390.269 56.2261C390.215 56.169 390.141 56.1347 390.062 56.13C389.983 56.1253 389.905 56.1507 389.845 56.2009L377.702 66.8948C377.673 66.9208 377.649 66.9525 377.631 66.9878C377.614 67.0231 377.604 67.0615 377.602 67.1007C377.599 67.1399 377.605 67.1792 377.618 67.2163C377.631 67.2535 377.651 67.2877 377.677 67.3171L377.681 67.3219Z" fill="#474646"/>
</g>
<g opacity="0.2">
<path opacity="0.2" d="M382.107 72.6436C382.161 72.7013 382.235 72.7358 382.313 72.7397C382.392 72.7437 382.469 72.7167 382.528 72.6646L392.214 64.1343C392.274 64.0816 392.31 64.0075 392.315 63.9282C392.32 63.849 392.293 63.7711 392.24 63.7117C392.187 63.6523 392.112 63.6162 392.033 63.6114C391.953 63.6067 391.875 63.6336 391.815 63.6863L382.13 72.2166C382.1 72.2426 382.076 72.2742 382.059 72.3095C382.041 72.3448 382.031 72.3832 382.029 72.4224C382.026 72.4616 382.032 72.5009 382.044 72.538C382.057 72.5752 382.077 72.6094 382.104 72.6389L382.107 72.6436Z" fill="#474646"/>
</g>
<path d="M353.32 63.0079L288.028 116.213L197.648 124.324C191.852 124.807 186.468 127.5 182.621 131.839C178.773 136.179 176.76 141.829 177.002 147.61C177.244 153.391 179.722 158.855 183.919 162.862C188.116 166.868 193.707 169.105 199.523 169.108C200.16 169.108 200.802 169.08 201.447 169.026L298.922 160.318C303.539 159.93 307.924 158.136 311.479 155.18L379.859 94.834L353.32 63.0079Z" fill="#5E71B6"/>
<path d="M367.8 60.2073L370.184 54.7103C370.547 53.9378 370.602 53.0569 370.337 52.2457C370.073 51.4345 369.508 50.7537 368.758 50.3408C368.363 50.141 367.932 50.0233 367.49 49.9948C367.049 49.9663 366.606 50.0276 366.189 50.1751C365.772 50.3225 365.389 50.5529 365.064 50.8523C364.74 51.1517 364.48 51.5137 364.301 51.9163" fill="#E98862"/>
<path d="M197.335 225.152C197.27 226.002 196.883 226.796 196.251 227.372C195.619 227.948 194.791 228.264 193.934 228.254L191.194 228.287C191.233 228.314 191.265 228.35 191.287 228.391C191.309 228.433 191.321 228.479 191.321 228.527C191.322 228.584 191.304 228.64 191.271 228.686C191.885 229.01 192.379 229.522 192.681 230.146C192.982 230.769 193.075 231.473 192.945 232.153C192.784 232.902 192.37 233.573 191.77 234.053C191.171 234.533 190.423 234.793 189.653 234.789L166.293 235.04C163.024 235.078 159.819 234.143 157.089 232.355C154.358 230.567 152.227 228.008 150.969 225.007L146.909 215.343L159.341 212.711L159.638 209.628L178.409 201.206C178.812 201.025 179.248 200.927 179.691 200.919C180.133 200.911 180.573 200.993 180.982 201.16C181.392 201.326 181.763 201.574 182.073 201.888C182.384 202.202 182.626 202.576 182.787 202.986C183.069 203.791 183.034 204.673 182.688 205.454C182.342 206.234 181.711 206.855 180.923 207.19L176.908 208.99L192.189 209.092C193.891 209.073 195.987 210.13 195.882 212.023C195.89 212.756 195.649 213.47 195.197 214.048C194.745 214.626 194.109 215.035 193.393 215.207C193.393 215.226 193.396 215.239 193.398 215.258L193.388 215.292L196.008 215.265C196.491 215.259 196.97 215.361 197.408 215.561C197.847 215.762 198.236 216.057 198.546 216.426C198.856 216.794 199.08 217.227 199.201 217.692C199.322 218.157 199.338 218.643 199.248 219.115C199.089 219.863 198.676 220.534 198.078 221.014C197.479 221.493 196.732 221.753 195.964 221.747L194.843 221.763C194.827 221.793 194.809 221.821 194.788 221.848C195.535 222.013 196.2 222.435 196.666 223.04C197.131 223.644 197.368 224.392 197.335 225.152V225.152Z" fill="#E98862"/>
<g opacity="0.2">
<path opacity="0.2" d="M178.263 215.188C178.264 215.266 178.297 215.341 178.353 215.396C178.409 215.451 178.485 215.481 178.564 215.481L193.095 215.557C193.175 215.557 193.251 215.525 193.308 215.469C193.364 215.413 193.396 215.337 193.396 215.258C193.396 215.178 193.364 215.102 193.308 215.046C193.251 214.99 193.175 214.959 193.095 214.959L178.564 214.883C178.484 214.883 178.407 214.915 178.351 214.971C178.295 215.027 178.263 215.103 178.263 215.182V215.188Z" fill="#474646"/>
</g>
<g opacity="0.2">
<path opacity="0.2" d="M178.052 221.562C178.054 221.641 178.086 221.715 178.142 221.77C178.199 221.825 178.274 221.856 178.353 221.856L194.57 221.94C194.65 221.94 194.726 221.909 194.783 221.853C194.839 221.797 194.871 221.721 194.871 221.641C194.868 221.563 194.836 221.488 194.78 221.433C194.724 221.377 194.649 221.345 194.57 221.342L178.353 221.258C178.273 221.258 178.197 221.29 178.141 221.346C178.084 221.402 178.052 221.478 178.052 221.558V221.562Z" fill="#474646"/>
</g>
<g opacity="0.2">
<path opacity="0.2" d="M177.785 228.465C177.786 228.543 177.819 228.618 177.875 228.673C177.931 228.728 178.007 228.759 178.086 228.759L191.021 228.826C191.101 228.826 191.177 228.794 191.234 228.738C191.29 228.682 191.322 228.606 191.322 228.527C191.322 228.447 191.29 228.371 191.234 228.315C191.177 228.259 191.101 228.228 191.021 228.228L178.086 228.161C178.006 228.161 177.929 228.192 177.873 228.248C177.817 228.304 177.785 228.38 177.785 228.46V228.465Z" fill="#474646"/>
</g>
<path d="M165.086 241.957L67.2768 259.289C63.1676 260.374 58.8337 260.281 54.7752 259.022C50.7167 257.762 47.0989 255.386 44.3393 252.169C41.5796 248.951 39.7906 245.024 39.1785 240.838C38.5664 236.653 39.1563 232.381 40.8801 228.515L76.5001 146.089C81.5509 134.764 94.0344 129.657 105.416 134.681C110.883 137.093 115.162 141.567 117.312 147.118C119.463 152.669 119.309 158.842 116.884 164.28L95.9663 213.606L161.38 204.96L165.086 241.957Z" fill="#5E71B6"/>
<path d="M84.133 256.715C84.1611 256.715 84.189 256.711 84.2159 256.703L165.169 242.245C165.244 242.223 165.308 242.173 165.347 242.105C165.386 242.038 165.396 241.958 165.377 241.882L161.671 203.688C161.651 203.612 161.602 203.547 161.535 203.506C161.467 203.466 161.387 203.453 161.31 203.472L96.5076 213.175L117.151 164.409C117.18 164.338 117.182 164.259 117.155 164.187C117.127 164.115 117.073 164.057 117.004 164.024C116.934 163.99 116.855 163.985 116.781 164.008C116.708 164.032 116.646 164.083 116.609 164.15L95.6958 213.476C95.6719 213.527 95.6627 213.584 95.6694 213.639C95.6762 213.695 95.6985 213.748 95.7338 213.791C95.7692 213.835 95.8162 213.868 95.8694 213.886C95.9227 213.904 95.98 213.908 96.035 213.895L161.163 204.117L164.721 241.748L84.0494 256.13C83.9795 256.15 83.9191 256.194 83.8794 256.255C83.8398 256.316 83.8236 256.388 83.8338 256.46C83.844 256.532 83.8799 256.597 83.9349 256.644C83.9899 256.692 84.0603 256.717 84.133 256.717V256.715Z" fill="#474646"/>
<path d="M87.8711 214.981C87.8925 214.981 87.9139 214.979 87.9348 214.974L96.0312 213.898C96.0701 213.889 96.107 213.874 96.1398 213.852C96.1726 213.829 96.2007 213.801 96.2223 213.768C96.244 213.734 96.2588 213.697 96.2659 213.658C96.273 213.62 96.2724 213.58 96.2639 213.541C96.2554 213.502 96.2393 213.466 96.2166 213.433C96.1938 213.401 96.1648 213.373 96.1313 213.352C96.0977 213.331 96.0603 213.317 96.0211 213.31C95.982 213.303 95.9419 213.304 95.9031 213.313L87.8067 214.39C87.7346 214.406 87.6709 214.448 87.6278 214.508C87.5847 214.567 87.5653 214.641 87.5733 214.714C87.5812 214.787 87.616 214.855 87.6709 214.904C87.7259 214.953 87.7971 214.981 87.8711 214.981V214.981Z" fill="#474646"/>
<path d="M215.807 168.117C215.883 168.117 215.956 168.089 216.012 168.038C216.068 167.987 216.102 167.917 216.108 167.841L217.447 150.591C217.454 150.512 217.428 150.433 217.376 150.373C217.324 150.312 217.25 150.275 217.17 150.269C217.09 150.263 217.011 150.289 216.951 150.34C216.89 150.392 216.852 150.466 216.846 150.545L215.506 167.795C215.5 167.874 215.526 167.952 215.578 168.012C215.63 168.073 215.704 168.11 215.783 168.116C215.791 168.117 215.799 168.117 215.807 168.117Z" fill="#474646"/>
<path d="M174.82 70.4891C175.899 70.4891 176.773 69.6193 176.773 68.5463C176.773 67.4733 175.899 66.6035 174.82 66.6035C173.741 66.6035 172.867 67.4733 172.867 68.5463C172.867 69.6193 173.741 70.4891 174.82 70.4891Z" fill="#474646"/>
<path d="M155.024 73.816C156.102 73.816 156.977 72.9462 156.977 71.8732C156.977 70.8002 156.102 69.9304 155.024 69.9304C153.945 69.9304 153.071 70.8002 153.071 71.8732C153.071 72.9462 153.945 73.816 155.024 73.816Z" fill="#474646"/>
<path d="M36.1499 308H346.495C346.654 308 346.807 307.937 346.92 307.825C347.033 307.713 347.096 307.56 347.096 307.402C347.096 307.243 347.033 307.091 346.92 306.979C346.807 306.867 346.654 306.804 346.495 306.804H36.1499C35.9904 306.804 35.8375 306.867 35.7247 306.979C35.6119 307.091 35.5486 307.243 35.5486 307.402C35.5486 307.56 35.6119 307.713 35.7247 307.825C35.8375 307.937 35.9904 308 36.1499 308Z" fill="#292A2E"/>
</g>
<defs>
<clipPath id="clip0_411_3515">
<rect width="413" height="308" fill="white"/>
</clipPath>
</defs>
</svg>
