<svg width="744" height="571" viewBox="0 0 744 571" fill="none" xmlns="http://www.w3.org/2000/svg">
<circle opacity="0.2" cx="383" cy="79" r="409" fill="#5E71B6"/>
<circle opacity="0.2" cx="712" cy="78" r="295" fill="#5E71B6"/>
<g clip-path="url(#clip0_118_10)">
<path d="M557.036 246.001H436.064C430.226 246 424.562 247.984 420.003 251.625C415.443 255.267 412.26 260.349 410.976 266.037L349.853 536.845C349.186 539.799 349.174 542.863 349.818 545.822C350.462 548.781 351.747 551.563 353.581 553.974C355.415 556.384 357.755 558.365 360.437 559.777C363.119 561.189 366.078 561.997 369.105 562.146L493.466 568.266C500.125 568.594 506.676 566.49 511.896 562.348C517.116 558.206 520.65 552.308 521.836 545.755L556.512 354.291L559.091 355.027L565.728 318.737L563.073 318.075L572.751 264.63C573.166 262.341 573.07 259.988 572.47 257.74C571.87 255.492 570.781 253.404 569.281 251.625C567.78 249.846 565.905 248.419 563.79 247.447C561.674 246.474 559.369 245.98 557.04 245.999L557.036 246.001Z" fill="#3F3D56"/>
<path d="M451.988 251.838H437.868C433.813 251.838 429.88 253.224 426.721 255.764C423.563 258.305 421.37 261.848 420.505 265.805L361.833 534.404C361.495 535.95 361.495 537.551 361.834 539.098C362.172 540.644 362.841 542.099 363.794 543.364C364.747 544.629 365.962 545.673 367.356 546.425C368.751 547.178 370.291 547.62 371.873 547.724L495.829 555.839C499.326 556.068 502.785 555.003 505.546 552.847C508.306 550.691 510.176 547.595 510.797 544.15L560.862 266.527C561.186 264.73 561.111 262.884 560.643 261.119C560.175 259.354 559.325 257.714 558.152 256.313C556.98 254.912 555.514 253.785 553.858 253.012C552.202 252.239 550.396 251.838 548.569 251.838H535.174C533.877 251.838 532.617 252.265 531.587 253.053C530.558 253.841 529.818 254.945 529.481 256.196C529.183 257.3 528.529 258.276 527.62 258.971C526.711 259.667 525.598 260.043 524.453 260.043H460.86C458.619 260.043 456.46 259.198 454.815 257.677C453.17 256.156 452.16 254.071 451.988 251.838Z" fill="white"/>
<path d="M520.511 439.611C520.752 439.62 520.988 439.541 521.176 439.39C521.364 439.239 521.491 439.026 521.534 438.789L548.946 287.675C548.973 287.531 548.967 287.384 548.931 287.242C548.895 287.101 548.829 286.969 548.737 286.856C548.646 286.743 548.531 286.652 548.401 286.588C548.27 286.525 548.128 286.491 547.983 286.489L423.268 285.018H423.257C423.03 285.02 422.811 285.099 422.636 285.241C422.46 285.384 422.338 285.582 422.289 285.802L389.974 432.011C389.942 432.154 389.942 432.302 389.973 432.445C390.004 432.587 390.065 432.722 390.153 432.839C390.239 432.955 390.351 433.05 390.479 433.119C390.607 433.187 390.748 433.226 390.893 433.233L520.511 439.611Z" fill="#E6E6E6"/>
<path d="M412.284 449.382C412.171 449.382 412.061 449.42 411.972 449.491C411.883 449.561 411.821 449.659 411.795 449.77L410.627 454.769C410.61 454.84 410.609 454.913 410.624 454.985C410.639 455.056 410.668 455.123 410.711 455.181C410.754 455.24 410.81 455.288 410.873 455.323C410.937 455.358 411.007 455.379 411.079 455.385L477.057 460.068C477.179 460.076 477.3 460.039 477.397 459.965C477.495 459.89 477.562 459.783 477.586 459.663L478.709 453.879C478.723 453.808 478.721 453.736 478.705 453.667C478.688 453.597 478.657 453.532 478.613 453.475C478.569 453.419 478.513 453.372 478.45 453.339C478.387 453.306 478.317 453.286 478.246 453.282L412.315 449.383L412.284 449.382Z" fill="#E6E6E6"/>
<path d="M492.443 478.639C492.562 478.649 492.68 478.616 492.777 478.546C492.874 478.476 492.943 478.375 492.971 478.259L494.401 472.462C494.419 472.391 494.42 472.317 494.406 472.245C494.392 472.173 494.363 472.106 494.32 472.046C494.276 471.987 494.221 471.938 494.157 471.903C494.093 471.867 494.022 471.846 493.949 471.841L409.692 465.955C409.577 465.946 409.463 465.977 409.369 466.042C409.275 466.107 409.206 466.203 409.174 466.313L407.689 471.322C407.667 471.394 407.662 471.469 407.674 471.543C407.686 471.617 407.714 471.687 407.756 471.749C407.798 471.81 407.854 471.861 407.919 471.899C407.983 471.936 408.055 471.959 408.13 471.965L492.443 478.639Z" fill="#E6E6E6"/>
<path d="M487.918 497.22C488.037 497.23 488.155 497.196 488.252 497.127C488.349 497.057 488.418 496.955 488.446 496.839L489.876 491.043C489.894 490.972 489.896 490.898 489.881 490.826C489.867 490.754 489.838 490.686 489.795 490.627C489.752 490.568 489.696 490.519 489.632 490.483C489.568 490.448 489.497 490.427 489.424 490.422L405.167 484.535C405.052 484.526 404.938 484.557 404.844 484.622C404.75 484.688 404.681 484.783 404.649 484.894L403.164 489.903C403.142 489.974 403.138 490.05 403.149 490.124C403.161 490.197 403.189 490.268 403.231 490.329C403.274 490.391 403.329 490.442 403.394 490.479C403.458 490.517 403.531 490.54 403.605 490.546L487.918 497.22Z" fill="#E6E6E6"/>
<path d="M341.832 562.632C341.832 566.835 303.318 567.283 255.916 570.242C208.556 573.198 170 566.835 170 562.632C170 558.43 208.736 549.974 255.916 555.023C303.318 560.096 341.832 558.43 341.832 562.632Z" fill="#E6E6E6"/>
<path d="M449.112 528.984C449.232 528.996 449.353 528.965 449.451 528.895C449.55 528.825 449.619 528.722 449.647 528.605L452.67 516.527C452.688 516.457 452.69 516.383 452.677 516.311C452.663 516.24 452.634 516.172 452.592 516.113C452.55 516.054 452.495 516.004 452.431 515.968C452.368 515.932 452.298 515.911 452.225 515.904L400.483 511.558C400.362 511.549 400.242 511.584 400.145 511.656C400.047 511.727 399.978 511.831 399.95 511.949L397.371 523.541C397.356 523.61 397.355 523.682 397.37 523.752C397.384 523.822 397.414 523.888 397.456 523.945C397.498 524.003 397.551 524.051 397.613 524.086C397.675 524.121 397.744 524.143 397.815 524.15L449.112 528.984Z" fill="#5E71B6"/>
<path d="M240.19 479.767C240.842 479.321 241.388 478.738 241.789 478.058C242.19 477.379 242.438 476.62 242.513 475.834C242.589 475.049 242.492 474.257 242.228 473.513C241.964 472.77 241.54 472.093 240.986 471.531L243.081 424.82L232.415 426.015L233.035 471.706C232.15 472.698 231.661 473.979 231.659 475.308C231.658 476.636 232.144 477.918 233.027 478.912C233.909 479.906 235.126 480.542 236.447 480.699C237.767 480.856 239.099 480.524 240.191 479.765L240.19 479.767Z" fill="#A0616A"/>
<path d="M259.648 558.839L265.719 559.905L271.719 537.024L263.765 535.451L259.648 558.839Z" fill="#A0616A"/>
<path d="M276.438 567.591L257.358 564.241L258.654 556.878L270.362 558.934C272.317 559.278 274.055 560.383 275.195 562.006C276.334 563.63 276.781 565.639 276.438 567.592L276.438 567.591Z" fill="#2F2E41"/>
<path d="M242.985 561.874H249.149L252.081 538.127H242.984L242.985 561.874Z" fill="#A0616A"/>
<path d="M261.034 567.592L241.662 567.593L241.662 560.117L253.549 560.116C255.534 560.116 257.438 560.904 258.842 562.306C260.245 563.708 261.034 565.609 261.034 567.592Z" fill="#2F2E41"/>
<path d="M268.701 553.362C268.605 553.362 268.509 553.357 268.414 553.345L261.159 552.749C260.829 552.71 260.51 552.605 260.222 552.439C259.933 552.273 259.682 552.051 259.482 551.785C259.283 551.519 259.139 551.216 259.061 550.893C258.983 550.57 258.971 550.235 259.026 549.907L266.228 514.413L261.703 490.573C261.666 490.379 261.56 490.205 261.405 490.083C261.25 489.961 261.056 489.899 260.859 489.909C260.662 489.919 260.475 490 260.332 490.136C260.19 490.273 260.102 490.456 260.085 490.653L253.418 551.229C253.355 551.867 253.047 552.456 252.559 552.872C252.07 553.288 251.439 553.497 250.798 553.457L243.963 553.203C243.364 553.161 242.802 552.901 242.381 552.472C241.961 552.044 241.713 551.476 241.683 550.877L242.229 477.676L277.664 473.252L280.139 511.438L280.129 511.479L271.084 551.49C270.954 552.023 270.648 552.497 270.216 552.837C269.785 553.176 269.251 553.361 268.701 553.362Z" fill="#2F2E41"/>
<path d="M253.914 394.552C260.733 394.552 266.262 389.03 266.262 382.218C266.262 375.406 260.733 369.884 253.914 369.884C247.094 369.884 241.565 375.406 241.565 382.218C241.565 389.03 247.094 394.552 253.914 394.552Z" fill="#A0616A"/>
<path d="M265.549 483.247C263.618 483.258 261.724 482.717 260.091 481.687C254.108 477.953 247.315 479.437 243.798 480.654C243.449 480.776 243.077 480.818 242.709 480.776C242.342 480.734 241.988 480.61 241.676 480.413C241.367 480.219 241.106 479.958 240.912 479.649C240.718 479.34 240.597 478.991 240.558 478.629L234.162 421.569C233.09 412.008 238.856 403.02 247.871 400.196C248.21 400.09 248.555 399.99 248.904 399.895C251.71 399.135 254.648 398.999 257.512 399.495C260.376 399.992 263.096 401.109 265.481 402.769C267.911 404.447 269.943 406.636 271.434 409.183C272.925 411.729 273.839 414.572 274.112 417.509L279.497 474.952C279.534 475.324 279.484 475.699 279.351 476.048C279.217 476.397 279.005 476.711 278.73 476.964C276.841 478.708 271.362 483.246 265.549 483.247Z" fill="#5E71B6"/>
<path d="M246.071 433.805L231.642 432.22C231.232 432.175 230.836 432.042 230.481 431.83C230.127 431.618 229.822 431.333 229.588 430.993C229.354 430.653 229.196 430.267 229.125 429.86C229.054 429.454 229.071 429.037 229.176 428.638L232.849 414.654C232.958 413.606 233.273 412.59 233.776 411.664C234.28 410.738 234.963 409.921 235.784 409.26C236.606 408.6 237.551 408.108 238.564 407.814C239.577 407.52 240.638 407.43 241.686 407.548C242.735 407.666 243.749 407.991 244.671 408.503C245.593 409.015 246.404 409.705 247.057 410.532C247.711 411.359 248.194 412.307 248.478 413.322C248.763 414.336 248.843 415.397 248.714 416.443L249.26 430.843C249.276 431.255 249.202 431.666 249.044 432.048C248.887 432.429 248.648 432.772 248.346 433.053C248.044 433.335 247.684 433.547 247.292 433.677C246.9 433.807 246.484 433.851 246.073 433.806L246.071 433.805Z" fill="#5E71B6"/>
<path d="M279.439 477.767C280.031 477.245 280.502 476.601 280.819 475.878C281.135 475.156 281.289 474.372 281.269 473.584C281.25 472.796 281.058 472.021 280.706 471.315C280.354 470.609 279.852 469.988 279.234 469.497L275.678 422.874L265.227 425.224L271.36 470.628C270.602 471.719 270.271 473.05 270.429 474.369C270.588 475.687 271.226 476.902 272.222 477.782C273.218 478.663 274.502 479.147 275.832 479.144C277.162 479.141 278.445 478.651 279.437 477.767H279.439Z" fill="#A0616A"/>
<path d="M261.22 430.874C260.917 430.593 260.679 430.251 260.521 429.869C260.364 429.488 260.29 429.077 260.306 428.665L260.851 414.265C260.734 413.224 260.822 412.171 261.112 411.165C261.402 410.158 261.888 409.219 262.541 408.4C263.195 407.581 264.003 406.899 264.921 406.392C265.838 405.886 266.846 405.564 267.888 405.447C268.93 405.329 269.985 405.418 270.992 405.708C271.999 405.997 272.94 406.482 273.76 407.135C274.579 407.788 275.262 408.595 275.77 409.512C276.277 410.428 276.599 411.435 276.716 412.476L280.39 426.459C280.494 426.858 280.512 427.275 280.441 427.682C280.37 428.088 280.212 428.475 279.978 428.815C279.744 429.155 279.439 429.44 279.085 429.652C278.73 429.864 278.334 429.997 277.924 430.042L263.494 431.627C263.084 431.672 262.668 431.628 262.276 431.498C261.884 431.368 261.524 431.155 261.222 430.873L261.22 430.874Z" fill="#5E71B6"/>
<path d="M253.18 395.016C252.96 395.016 252.74 394.991 252.526 394.941L252.463 394.925C241.607 393.268 239.207 386.985 238.681 384.362C238.136 381.646 238.756 379.025 240.159 378.007C239.394 375.596 239.517 373.456 240.524 371.648C242.284 368.494 246.095 367.43 246.608 367.297C249.653 365.053 253.297 366.551 253.961 366.855C259.852 364.678 262.105 366.49 262.512 366.894C265.145 367.367 266.75 368.383 267.283 369.916C268.284 372.793 265.119 376.374 264.984 376.525L264.913 376.603L260.197 376.827C259.75 376.849 259.312 376.964 258.912 377.165C258.512 377.366 258.158 377.65 257.875 377.996C257.591 378.342 257.384 378.745 257.266 379.176C257.148 379.608 257.122 380.06 257.19 380.502C257.318 381.073 257.479 381.635 257.673 382.187C258.477 384.701 259.081 386.848 258.303 387.665C258.127 387.823 257.91 387.928 257.676 387.969C257.443 388.009 257.203 387.983 256.984 387.893C256.246 387.697 255.746 387.738 255.497 388.016C255.109 388.448 255.228 389.541 255.829 391.092C256.018 391.583 256.069 392.116 255.976 392.634C255.884 393.151 255.651 393.634 255.303 394.029C255.042 394.337 254.716 394.585 254.35 394.755C253.983 394.926 253.583 395.015 253.179 395.016H253.18Z" fill="#2F2E41"/>
</g>
<defs>
<clipPath id="clip0_118_10">
<rect width="403" height="325" fill="white" transform="translate(170 246)"/>
</clipPath>
</defs>
</svg>
