<svg width="744" height="567" viewBox="0 0 744 567" fill="none" xmlns="http://www.w3.org/2000/svg">
<circle opacity="0.2" cx="383" cy="79" r="409" fill="#5E71B6"/>
<circle opacity="0.2" cx="712" cy="78" r="295" fill="#5E71B6"/>
<g clip-path="url(#clip0_138_10)">
<path opacity="0.2" d="M357.841 550.05C427.893 550.05 484.681 493.253 484.681 423.189C484.681 353.125 427.893 296.328 357.841 296.328C287.789 296.328 231 353.125 231 423.189C231 493.253 287.789 550.05 357.841 550.05Z" fill="#5E71B6"/>
<path d="M240.883 529.591C235.457 517.895 232.644 505.157 232.638 492.263C232.633 479.369 235.435 466.628 240.851 454.928C246.267 443.227 254.167 432.846 264 424.508C273.833 416.169 285.364 410.073 297.792 406.644L305.339 433.933C296.874 436.267 289.018 440.417 282.318 446.095C275.619 451.774 270.237 458.843 266.546 466.813C262.856 474.782 260.945 483.46 260.948 492.243C260.95 501.026 262.866 509.702 266.561 517.67L240.883 529.591Z" fill="#5E71B6"/>
<path d="M242.364 567C240.796 567.001 239.258 566.568 237.921 565.749C236.584 564.93 235.5 563.756 234.788 562.358C232.801 558.456 231.602 554.199 231.26 549.833C230.917 545.467 231.438 541.076 232.792 536.911C235.527 528.499 241.491 521.518 249.372 517.504C253.275 515.517 257.53 514.318 261.896 513.975C266.261 513.633 270.652 514.153 274.816 515.508C283.227 518.243 290.206 524.208 294.219 532.091C294.735 533.086 295.049 534.173 295.143 535.29C295.237 536.407 295.109 537.532 294.766 538.599C294.424 539.666 293.873 540.655 293.147 541.508C292.42 542.362 291.532 543.063 290.533 543.572C289.535 544.081 288.445 544.386 287.328 544.472C286.21 544.558 285.087 544.421 284.023 544.07C282.958 543.72 281.973 543.162 281.126 542.429C280.278 541.696 279.583 540.802 279.082 539.8C278.11 537.88 276.769 536.171 275.136 534.77C273.503 533.369 271.609 532.305 269.564 531.637C267.519 530.969 265.362 530.712 263.217 530.879C261.072 531.046 258.981 531.634 257.064 532.611C255.147 533.587 253.441 534.932 252.044 536.569C250.647 538.205 249.587 540.102 248.924 542.149C248.261 544.196 248.008 546.354 248.18 548.498C248.352 550.643 248.945 552.733 249.926 554.649C250.584 555.943 250.9 557.385 250.843 558.837C250.785 560.288 250.357 561.701 249.599 562.939C248.84 564.178 247.777 565.202 246.51 565.913C245.244 566.623 243.816 566.998 242.364 566.999V567Z" fill="#474646"/>
<path d="M461.88 422.34C449.95 432.53 435.515 439.349 420.068 442.091L415.084 414.217C428.818 411.741 441.274 404.589 450.337 393.975C459.4 383.361 464.513 369.938 464.808 355.983L493.111 356.574C492.673 379.315 483.486 401.012 467.463 417.152C465.666 418.968 463.805 420.697 461.88 422.34Z" fill="#5E71B6"/>
<path d="M501.248 355.764C496.431 359.858 490.55 362.497 484.29 363.376C478.03 364.254 471.649 363.335 465.892 360.726C460.134 358.116 455.237 353.924 451.77 348.637C448.303 343.351 446.411 337.187 446.312 330.866C446.29 328.622 447.157 326.46 448.724 324.853C450.29 323.246 452.429 322.324 454.673 322.289C456.916 322.254 459.083 323.109 460.699 324.666C462.315 326.224 463.248 328.357 463.296 330.601C463.364 334.94 465.152 339.075 468.267 342.095C471.383 345.116 475.57 346.775 479.908 346.707C484.247 346.64 488.381 344.851 491.4 341.736C494.42 338.62 496.079 334.432 496.012 330.093C495.977 327.84 496.838 325.666 498.406 324.048C499.973 322.431 502.12 321.502 504.372 321.467C506.624 321.432 508.798 322.293 510.415 323.861C512.033 325.429 512.961 327.576 512.996 329.828C513.076 334.209 512.286 338.563 510.673 342.636C509.059 346.71 506.654 350.423 503.596 353.561C502.845 354.337 502.062 355.071 501.248 355.764Z" fill="#474646"/>
<path d="M440.669 234.648L432.965 256.993C432.916 257.136 432.901 257.288 432.922 257.437C432.942 257.586 432.998 257.728 433.083 257.852C433.169 257.976 433.282 258.078 433.414 258.15C433.547 258.222 433.694 258.262 433.845 258.267L439.042 258.422C439.195 258.426 439.344 258.467 439.477 258.541C439.611 258.614 439.725 258.719 439.81 258.845C439.896 258.972 439.949 259.117 439.967 259.269C439.985 259.42 439.967 259.574 439.914 259.717L431.34 282.803C431.26 283.019 431.26 283.256 431.341 283.472C431.421 283.688 431.577 283.868 431.778 283.978C431.98 284.089 432.215 284.124 432.44 284.076C432.666 284.028 432.866 283.901 433.006 283.718L453.193 257.107C453.282 256.989 453.343 256.852 453.371 256.707C453.399 256.561 453.393 256.412 453.353 256.269C453.313 256.126 453.241 255.995 453.143 255.885C453.044 255.775 452.921 255.689 452.783 255.634L446.737 253.221C446.619 253.174 446.511 253.104 446.42 253.014C446.329 252.925 446.257 252.819 446.208 252.702C446.159 252.584 446.133 252.458 446.133 252.331C446.132 252.204 446.158 252.077 446.207 251.96L452.986 235.67C453.046 235.527 453.07 235.371 453.056 235.216C453.042 235.061 452.991 234.912 452.907 234.781C452.823 234.65 452.708 234.542 452.573 234.465C452.438 234.389 452.286 234.346 452.131 234.341L441.608 234C441.403 233.993 441.201 234.053 441.032 234.169C440.863 234.286 440.736 234.454 440.669 234.648Z" fill="#5E71B6"/>
<path d="M243.897 337.201L252.874 354.661C252.931 354.773 252.961 354.896 252.961 355.021C252.962 355.146 252.934 355.269 252.878 355.381C252.822 355.493 252.741 355.591 252.641 355.666C252.541 355.741 252.424 355.791 252.301 355.813L248.046 356.555C247.922 356.577 247.804 356.628 247.703 356.704C247.602 356.781 247.52 356.88 247.465 356.994C247.41 357.108 247.383 357.234 247.386 357.361C247.389 357.487 247.422 357.611 247.483 357.723L257.263 375.689C257.353 375.857 257.38 376.052 257.338 376.238C257.297 376.424 257.191 376.589 257.039 376.703C256.887 376.818 256.698 376.874 256.508 376.863C256.318 376.851 256.139 376.771 256.002 376.638L236.257 357.148C236.17 357.062 236.104 356.956 236.064 356.84C236.024 356.724 236.011 356.6 236.027 356.478C236.043 356.356 236.086 356.24 236.154 356.138C236.222 356.035 236.313 355.95 236.419 355.889L241.105 353.19C241.196 353.137 241.277 353.066 241.341 352.982C241.405 352.898 241.451 352.802 241.478 352.7C241.505 352.597 241.511 352.491 241.496 352.386C241.481 352.281 241.446 352.181 241.392 352.09L233.891 339.499C233.826 339.388 233.788 339.263 233.781 339.134C233.774 339.005 233.799 338.877 233.852 338.759C233.906 338.642 233.987 338.539 234.089 338.46C234.191 338.381 234.31 338.328 234.437 338.305L243.049 336.781C243.216 336.751 243.389 336.776 243.542 336.852C243.694 336.927 243.819 337.049 243.897 337.201Z" fill="#474646"/>
<path d="M278.781 408.13L297.549 514.289C299.975 528.013 307.156 540.443 317.832 549.398C328.508 558.354 341.997 563.263 355.931 563.263C369.515 563.263 382.688 558.598 393.245 550.047C403.802 541.496 411.103 529.578 413.926 516.288L436.9 408.128L278.781 408.13Z" fill="#5E71B6"/>
<path d="M357.841 431.508C401.504 431.508 436.9 421.041 436.9 408.13C436.9 395.218 401.504 384.751 357.841 384.751C314.177 384.751 278.781 395.218 278.781 408.13C278.781 421.041 314.177 431.508 357.841 431.508Z" fill="#474646"/>
<path d="M385.971 468.117H330.634C325.392 468.117 321.143 472.367 321.143 477.61V504.384C321.143 509.627 325.392 513.877 330.634 513.877H385.971C391.213 513.877 395.462 509.627 395.462 504.384V477.61C395.462 472.367 391.213 468.117 385.971 468.117Z" fill="#474646"/>
<path d="M352.307 491.852H349.017C349.017 487.517 350.981 481.543 360.336 477.7C365.816 475.449 364.001 467.13 363.982 467.046L367.188 466.31C367.293 466.763 369.651 477.43 361.586 480.741C355.429 483.27 352.307 487.01 352.307 491.852Z" fill="#5E71B6"/>
<path d="M381.823 515.801C378.624 509.802 377.289 509.921 371.659 510.421C369.826 510.584 367.546 510.787 364.762 510.787C352.3 510.787 351.003 501.715 350.991 501.624L354.254 501.209L352.623 501.416L354.252 501.194C354.29 501.451 355.286 507.497 364.761 507.497C367.399 507.497 369.507 507.309 371.367 507.144C377.701 506.579 380.672 506.651 384.725 514.253L381.823 515.801Z" fill="#5E71B6"/>
<path d="M343.795 493.538C343.683 493.538 343.572 493.511 343.472 493.459L339.916 491.626C339.75 491.54 339.625 491.392 339.568 491.214C339.511 491.035 339.527 490.842 339.613 490.676C339.699 490.51 339.847 490.384 340.026 490.328C340.204 490.271 340.397 490.287 340.563 490.373L344.119 492.206C344.26 492.278 344.372 492.396 344.438 492.54C344.504 492.684 344.519 492.846 344.482 493C344.444 493.154 344.356 493.29 344.232 493.388C344.107 493.486 343.953 493.539 343.795 493.538Z" fill="white"/>
<path d="M339.499 500.516C339.334 500.516 339.175 500.458 339.049 500.352C338.923 500.247 338.837 500.101 338.808 499.939C338.778 499.777 338.805 499.61 338.886 499.466C338.966 499.323 339.094 499.212 339.248 499.153L342.987 497.729C343.16 497.673 343.347 497.684 343.511 497.762C343.674 497.84 343.802 497.978 343.866 498.148C343.931 498.317 343.928 498.505 343.858 498.672C343.787 498.839 343.656 498.973 343.489 499.045L339.75 500.47C339.67 500.5 339.585 500.516 339.499 500.516Z" fill="white"/>
<path d="M361.989 497.619C361.812 497.618 361.642 497.552 361.512 497.432C361.382 497.312 361.302 497.148 361.287 496.972C361.272 496.796 361.324 496.621 361.433 496.481C361.541 496.342 361.698 496.248 361.872 496.218L365.82 495.551C366.004 495.521 366.192 495.565 366.344 495.673C366.495 495.782 366.598 495.946 366.629 496.13C366.66 496.313 366.617 496.502 366.509 496.654C366.402 496.806 366.238 496.91 366.055 496.942L362.107 497.609C362.068 497.615 362.028 497.619 361.989 497.619Z" fill="white"/>
<path d="M359.102 492.842C358.976 492.842 358.852 492.808 358.743 492.744C358.635 492.68 358.545 492.587 358.485 492.477C358.424 492.367 358.394 492.242 358.397 492.116C358.401 491.99 358.438 491.867 358.506 491.761L360.642 488.376C360.69 488.296 360.754 488.226 360.83 488.171C360.906 488.115 360.992 488.076 361.083 488.054C361.174 488.033 361.269 488.029 361.361 488.045C361.454 488.06 361.542 488.094 361.621 488.144C361.701 488.194 361.769 488.259 361.823 488.336C361.877 488.413 361.915 488.5 361.934 488.591C361.954 488.683 361.956 488.778 361.938 488.87C361.921 488.962 361.886 489.05 361.834 489.128L359.698 492.513C359.634 492.613 359.546 492.696 359.442 492.754C359.338 492.812 359.221 492.842 359.102 492.842Z" fill="white"/>
<path d="M399.343 489.39C392.499 489.39 386.789 487.52 382.326 483.808C374.08 476.95 373.196 466.365 373.162 465.918L376.442 465.671L374.802 465.795L376.442 465.669C376.45 465.763 377.28 475.352 384.454 481.299C389.154 485.194 395.561 486.73 403.51 485.864L403.866 489.135C402.364 489.302 400.854 489.387 399.343 489.39Z" fill="#5E71B6"/>
<path d="M313.573 509.839L312.965 506.605C325.578 504.233 325.568 498.985 325.557 492.909C325.55 488.816 325.542 484.178 330.362 481.466C339.327 476.422 338.609 464.989 338.601 464.873L341.881 464.626C341.923 465.18 342.789 478.249 331.975 484.333C328.987 486.014 328.84 488.684 328.847 492.902C328.859 499.166 328.872 506.961 313.573 509.839Z" fill="#5E71B6"/>
<path d="M410.794 415.424C410.731 415.424 410.668 415.417 410.606 415.405C407.045 414.688 400.327 411.644 400.387 405.244C400.382 403.989 400.68 402.752 401.256 401.638C401.832 400.523 402.669 399.564 403.695 398.843C402.645 396.896 402.334 394.636 402.82 392.478C404.163 385.479 411.209 384.252 414.749 384.584C414.997 384.608 415.225 384.729 415.383 384.921C415.541 385.112 415.618 385.359 415.595 385.606C415.572 385.854 415.452 386.082 415.261 386.242C415.07 386.401 414.824 386.478 414.576 386.456C414.229 386.424 406.023 385.768 404.666 392.833C404.266 394.538 404.494 396.33 405.307 397.881C408.796 396.197 413.576 396.188 415.77 397.866C416.209 398.167 416.551 398.59 416.754 399.082C416.957 399.575 417.011 400.116 416.911 400.639C416.472 402.929 413.786 404.071 410.384 403.417C408.242 403.027 406.283 401.958 404.796 400.368C404.008 400.917 403.366 401.649 402.926 402.502C402.485 403.355 402.259 404.302 402.267 405.262C402.206 411.702 410.891 413.544 410.978 413.562C411.207 413.608 411.41 413.737 411.549 413.925C411.688 414.112 411.752 414.345 411.729 414.577C411.706 414.809 411.597 415.024 411.424 415.181C411.251 415.337 411.026 415.424 410.793 415.424L410.794 415.424ZM406.49 399.408C407.676 400.514 409.149 401.263 410.741 401.57C412.983 401.999 414.845 401.447 415.068 400.284C415.101 400.103 415.077 399.917 414.999 399.751C414.92 399.584 414.791 399.447 414.63 399.359C413.211 398.273 409.512 398.096 406.49 399.408Z" fill="white"/>
<path d="M330.452 408.363C330.255 408.363 330.063 408.3 329.903 408.185C329.743 408.07 329.623 407.907 329.561 407.72C329.498 407.533 329.496 407.33 329.555 407.142C329.614 406.954 329.731 406.789 329.888 406.67C330.091 406.518 334.823 402.869 332.133 398.441C331.556 397.408 330.65 396.597 329.56 396.138C328.385 398.817 325.728 401.167 323.641 401.343C323.202 401.401 322.755 401.33 322.355 401.138C321.955 400.946 321.62 400.641 321.39 400.262C321.133 399.814 321.002 399.305 321.013 398.789C321.023 398.272 321.174 397.769 321.449 397.332C322.497 395.419 325.103 393.988 327.644 393.931C327.855 393.927 328.067 393.931 328.274 393.945C328.392 393.306 328.359 392.648 328.179 392.024C327.998 391.4 327.675 390.826 327.235 390.349C324.143 386.867 318.561 390.13 318.506 390.163C318.399 390.227 318.282 390.268 318.16 390.286C318.038 390.304 317.913 390.297 317.794 390.267C317.674 390.237 317.561 390.183 317.462 390.109C317.363 390.035 317.28 389.943 317.217 389.837C317.154 389.731 317.112 389.613 317.094 389.491C317.076 389.369 317.083 389.244 317.113 389.125C317.144 389.005 317.197 388.892 317.271 388.793C317.345 388.694 317.437 388.611 317.544 388.548C317.825 388.379 324.529 384.469 328.64 389.1C329.278 389.797 329.743 390.633 329.999 391.542C330.256 392.451 330.296 393.408 330.116 394.335C331.645 394.934 332.923 396.037 333.739 397.462C336.606 402.176 333.211 406.528 331.016 408.172C330.854 408.295 330.656 408.362 330.452 408.363ZM327.633 395.815C325.587 395.881 323.724 397.093 323.097 398.238C322.987 398.388 322.919 398.565 322.901 398.75C322.884 398.934 322.916 399.121 322.996 399.289C323.043 399.368 323.125 399.497 323.485 399.471C324.664 399.373 326.599 397.807 327.632 395.815H327.633Z" fill="white"/>
<path d="M433.379 330.087C438.191 364.119 406.261 385.341 364.017 391.315C321.773 397.289 285.213 385.757 280.401 351.722C275.59 317.688 304.348 274.04 346.592 268.066C388.835 262.092 428.567 296.053 433.379 330.087Z" fill="#5E71B6"/>
<path d="M392.854 293.694L349.346 299.847C335.708 301.775 326.216 314.396 328.144 328.036C330.072 341.676 342.691 351.17 356.329 349.241L399.837 343.088C413.474 341.16 422.967 328.539 421.038 314.899C419.11 301.259 406.491 291.765 392.854 293.694Z" fill="white"/>
<path d="M342.85 241.729L339.476 242.376L345.992 276.376L349.365 275.729L342.85 241.729Z" fill="#5E71B6"/>
<path d="M341.645 250.846C345.112 250.846 347.923 248.035 347.923 244.567C347.923 241.1 345.112 238.288 341.645 238.288C338.178 238.288 335.367 241.1 335.367 244.567C335.367 248.035 338.178 250.846 341.645 250.846Z" fill="#474646"/>
<path d="M365.21 333.733C364.599 333.733 364.005 333.534 363.518 333.166L345.042 319.268C344.741 319.048 344.487 318.769 344.294 318.45C344.101 318.13 343.974 317.775 343.919 317.406C343.864 317.036 343.884 316.66 343.976 316.298C344.068 315.936 344.231 315.596 344.455 315.297C344.679 314.999 344.961 314.748 345.283 314.559C345.605 314.37 345.962 314.248 346.332 314.198C346.702 314.148 347.078 314.172 347.439 314.268C347.799 314.365 348.137 314.532 348.432 314.761L366.907 328.66C367.381 329.015 367.731 329.511 367.907 330.076C368.083 330.642 368.077 331.249 367.889 331.81C367.701 332.372 367.342 332.861 366.861 333.206C366.38 333.552 365.802 333.738 365.21 333.736V333.733Z" fill="#474646"/>
<path d="M349.023 336.022C348.499 336.021 347.986 335.875 347.541 335.599C347.095 335.323 346.736 334.929 346.502 334.46C346.268 333.991 346.17 333.466 346.217 332.945C346.265 332.423 346.457 331.925 346.772 331.506L360.67 313.028C361.122 312.437 361.789 312.049 362.526 311.948C363.263 311.846 364.01 312.041 364.605 312.488C365.199 312.935 365.593 313.599 365.7 314.336C365.807 315.072 365.619 315.821 365.176 316.419L351.279 334.897C351.016 335.247 350.676 335.531 350.284 335.726C349.892 335.921 349.461 336.023 349.023 336.022Z" fill="#474646"/>
<path d="M405.331 328.058C404.72 328.058 404.126 327.859 403.639 327.491L385.164 313.592C384.866 313.37 384.615 313.091 384.424 312.772C384.234 312.453 384.109 312.099 384.056 311.731C384.003 311.363 384.023 310.988 384.115 310.628C384.207 310.268 384.37 309.93 384.593 309.633C384.817 309.336 385.096 309.086 385.417 308.897C385.737 308.709 386.091 308.586 386.46 308.535C386.828 308.483 387.202 308.506 387.562 308.6C387.921 308.694 388.259 308.859 388.554 309.084L407.029 322.983C407.503 323.339 407.853 323.834 408.029 324.4C408.205 324.965 408.199 325.572 408.011 326.134C407.823 326.696 407.464 327.184 406.983 327.53C406.502 327.876 405.924 328.061 405.332 328.06L405.331 328.058Z" fill="#474646"/>
<path d="M389.145 330.348C388.621 330.347 388.108 330.201 387.663 329.925C387.217 329.649 386.857 329.255 386.624 328.786C386.39 328.317 386.291 327.792 386.339 327.271C386.387 326.749 386.579 326.251 386.894 325.832L400.791 307.354C401.24 306.756 401.909 306.362 402.65 306.257C403.39 306.152 404.142 306.346 404.74 306.796C405.337 307.245 405.732 307.914 405.837 308.655C405.941 309.395 405.748 310.147 405.298 310.745L391.401 329.223C391.138 329.573 390.797 329.857 390.406 330.052C390.014 330.247 389.583 330.348 389.145 330.348Z" fill="#474646"/>
<path d="M378.497 356.956C379.346 355.832 380.497 354.973 381.815 354.478C383.133 353.983 384.565 353.873 385.943 354.16C387.322 354.448 388.59 355.122 389.601 356.103C390.611 357.083 391.322 358.331 391.65 359.701C391.71 359.943 391.721 360.195 391.683 360.442C391.645 360.688 391.559 360.925 391.429 361.138C391.3 361.351 391.129 361.537 390.927 361.683C390.726 361.83 390.497 361.936 390.254 361.994C390.012 362.052 389.76 362.062 389.513 362.022C389.267 361.983 389.031 361.895 388.819 361.764C388.606 361.633 388.422 361.461 388.277 361.258C388.131 361.056 388.027 360.826 387.97 360.583C387.859 360.118 387.657 359.679 387.375 359.291C387.094 358.904 386.739 358.576 386.332 358.326C385.924 358.076 385.47 357.908 384.998 357.833C384.525 357.758 384.042 357.777 383.577 357.889C383.111 358 382.672 358.202 382.285 358.484C381.898 358.765 381.57 359.12 381.32 359.528C381.07 359.936 380.902 360.389 380.827 360.862C380.752 361.335 380.771 361.817 380.883 362.283C380.996 362.77 380.912 363.282 380.65 363.707C380.387 364.132 379.967 364.436 379.481 364.553C378.995 364.669 378.483 364.589 378.056 364.329C377.629 364.069 377.322 363.65 377.203 363.165C376.973 362.217 376.933 361.232 377.087 360.268C377.24 359.304 377.583 358.38 378.096 357.549C378.22 357.344 378.354 357.146 378.497 356.956Z" fill="#474646"/>
</g>
<defs>
<clipPath id="clip0_138_10">
<rect width="282" height="333" fill="white" transform="translate(231 234)"/>
</clipPath>
</defs>
</svg>
