<svg width="282" height="333" viewBox="0 0 282 333" fill="none" xmlns="http://www.w3.org/2000/svg">
<g clip-path="url(#clip0_411_3646)">
<path opacity="0.2" d="M126.841 316.05C196.893 316.05 253.681 259.252 253.681 189.189C253.681 119.125 196.893 62.3275 126.841 62.3275C56.7885 62.3275 0 119.125 0 189.189C0 259.252 56.7885 316.05 126.841 316.05Z" fill="#5E71B6"/>
<path d="M9.8827 295.591C4.45685 283.894 1.64338 271.156 1.63795 258.262C1.63251 245.369 4.43524 232.628 9.85124 220.927C15.2672 209.227 23.1665 198.846 32.9997 190.508C42.833 182.169 54.3642 176.073 66.7915 172.643L74.3389 199.933C65.8733 202.267 58.0176 206.417 51.3182 212.095C44.6189 217.773 39.2368 224.843 35.5462 232.813C31.8556 240.782 29.9451 249.46 29.9476 258.243C29.9502 267.025 31.8657 275.702 35.5609 283.67L9.8827 295.591Z" fill="#5E71B6"/>
<path d="M11.3636 333C9.79561 333.001 8.25791 332.568 6.92087 331.749C5.58383 330.93 4.49966 329.756 3.78847 328.359C1.80138 324.456 0.602358 320.2 0.259864 315.833C-0.0826309 311.467 0.438109 307.076 1.79235 302.911C4.52737 294.499 10.4914 287.518 18.3724 283.505C22.2747 281.517 26.5301 280.318 30.8958 279.975C35.2614 279.633 39.6518 280.154 43.8162 281.508C52.2266 284.244 59.2061 290.209 63.2192 298.091C63.7352 299.086 64.0492 300.173 64.1431 301.29C64.237 302.407 64.109 303.532 63.7664 304.599C63.4238 305.666 62.8734 306.655 62.1469 307.509C61.4204 308.362 60.5322 309.063 59.5335 309.572C58.5348 310.081 57.4453 310.387 56.3278 310.472C55.2103 310.558 54.087 310.421 53.0225 310.071C51.958 309.72 50.9734 309.162 50.1255 308.429C49.2776 307.696 48.5831 306.802 48.0821 305.8C47.1102 303.88 45.7692 302.171 44.1359 300.77C42.5026 299.37 40.6092 298.305 38.564 297.637C36.5187 296.969 34.3619 296.712 32.2169 296.879C30.072 297.046 27.981 297.634 26.0638 298.611C24.1466 299.587 22.4408 300.932 21.0441 302.569C19.6473 304.206 18.5871 306.102 17.924 308.149C17.2609 310.196 17.0081 312.354 17.18 314.499C17.3518 316.643 17.945 318.733 18.9256 320.649C19.5841 321.943 19.8998 323.385 19.8425 324.837C19.7853 326.288 19.357 327.701 18.5985 328.94C17.8401 330.178 16.7768 331.202 15.5102 331.913C14.2436 332.623 12.8159 332.998 11.3636 332.999V333Z" fill="#474646"/>
<path d="M230.88 188.339C218.95 198.53 204.515 205.349 189.068 208.091L184.084 180.216C197.818 177.741 210.274 170.589 219.337 159.975C228.4 149.361 233.513 135.938 233.808 121.983L262.111 122.574C261.673 145.315 252.486 167.012 236.463 183.152C234.666 184.968 232.805 186.697 230.88 188.339Z" fill="#5E71B6"/>
<path d="M270.248 121.764C265.431 125.858 259.55 128.497 253.29 129.376C247.03 130.254 240.649 129.335 234.892 126.726C229.134 124.116 224.237 119.924 220.77 114.637C217.303 109.35 215.411 103.187 215.312 96.8657C215.29 94.6214 216.157 92.4597 217.724 90.8527C219.29 89.2457 221.429 88.3241 223.673 88.2891C225.916 88.2542 228.083 89.1087 229.699 90.6661C231.315 92.2235 232.248 94.3572 232.296 96.6011C232.364 100.94 234.152 105.075 237.267 108.095C240.383 111.116 244.57 112.775 248.908 112.707C253.247 112.64 257.381 110.851 260.4 107.735C263.42 104.62 265.079 100.432 265.012 96.0925C264.977 93.8399 265.838 91.6656 267.406 90.048C268.973 88.4304 271.12 87.502 273.372 87.467C275.624 87.4319 277.798 88.2932 279.415 89.8612C281.033 91.4293 281.961 93.5757 281.996 95.8283C282.076 100.209 281.286 104.562 279.673 108.636C278.059 112.71 275.654 116.423 272.596 119.56C271.845 120.336 271.062 121.071 270.248 121.764Z" fill="#474646"/>
<path d="M209.669 0.647687L201.965 22.9932C201.916 23.1356 201.901 23.2875 201.922 23.4367C201.942 23.586 201.998 23.7283 202.083 23.8522C202.169 23.9761 202.282 24.0782 202.414 24.1502C202.547 24.2222 202.694 24.262 202.845 24.2666L208.042 24.4217C208.195 24.4262 208.344 24.467 208.477 24.5407C208.611 24.6144 208.725 24.7189 208.81 24.8454C208.896 24.972 208.949 25.117 208.967 25.2685C208.985 25.42 208.967 25.5737 208.914 25.7167L200.34 48.8025C200.26 49.0185 200.26 49.2561 200.341 49.4719C200.421 49.6878 200.577 49.8675 200.778 49.9784C200.98 50.0893 201.215 50.124 201.44 50.0762C201.666 50.0283 201.866 49.9011 202.006 49.7177L222.193 23.1069C222.282 22.989 222.343 22.8521 222.371 22.7067C222.399 22.5613 222.393 22.4115 222.353 22.2689C222.313 22.1263 222.241 21.9948 222.143 21.8846C222.044 21.7745 221.921 21.6886 221.783 21.6338L215.737 19.221C215.619 19.1738 215.511 19.1036 215.42 19.0144C215.329 18.9252 215.257 18.8188 215.208 18.7015C215.159 18.5841 215.133 18.4581 215.133 18.3308C215.132 18.2035 215.158 18.0774 215.207 17.9598L221.986 1.67006C222.046 1.52649 222.07 1.37057 222.056 1.21569C222.042 1.06082 221.991 0.911602 221.907 0.780867C221.823 0.650132 221.708 0.541783 221.573 0.465121C221.438 0.38846 221.286 0.345778 221.131 0.340741L210.608 -4.94603e-05C210.403 -0.00667207 210.201 0.0526588 210.032 0.169237C209.863 0.285814 209.736 0.4535 209.669 0.647687V0.647687Z" fill="#5E71B6"/>
<path d="M12.8973 103.201L21.8739 120.661C21.9309 120.773 21.9609 120.896 21.9617 121.021C21.9624 121.146 21.9338 121.269 21.8781 121.381C21.8224 121.493 21.7412 121.591 21.6411 121.666C21.5409 121.74 21.4246 121.791 21.3014 121.812L17.0467 122.555C16.9219 122.577 16.8042 122.628 16.7031 122.704C16.6021 122.781 16.5206 122.88 16.4655 122.994C16.4105 123.108 16.3833 123.234 16.3863 123.361C16.3893 123.487 16.4223 123.611 16.4827 123.723L26.2635 141.689C26.3532 141.857 26.3798 142.052 26.3387 142.238C26.2975 142.424 26.1912 142.589 26.039 142.703C25.8868 142.818 25.6986 142.874 25.5085 142.862C25.3184 142.851 25.1388 142.771 25.0021 142.638L5.2573 123.148C5.17007 123.061 5.10394 122.956 5.06403 122.84C5.02413 122.724 5.01153 122.6 5.02721 122.478C5.0429 122.356 5.08644 122.24 5.15447 122.138C5.22249 122.035 5.31316 121.95 5.41944 121.889L10.1051 119.19C10.1967 119.137 10.2768 119.066 10.3409 118.982C10.4049 118.898 10.4517 118.802 10.4784 118.7C10.5051 118.597 10.5113 118.491 10.4965 118.386C10.4817 118.281 10.4463 118.181 10.3923 118.09L2.89143 105.499C2.82575 105.388 2.78791 105.263 2.78113 105.134C2.77436 105.005 2.79884 104.876 2.8525 104.759C2.90616 104.642 2.98739 104.539 3.08927 104.46C3.19115 104.381 3.31064 104.328 3.43754 104.305L12.049 102.781C12.2166 102.751 12.3894 102.776 12.542 102.852C12.6946 102.927 12.819 103.049 12.8973 103.201V103.201Z" fill="#474646"/>
<path d="M47.7812 174.13L66.5489 280.289C68.9749 294.013 76.1561 306.443 86.8321 315.399C97.5081 324.354 110.997 329.263 124.931 329.263V329.263C138.515 329.263 151.688 324.598 162.245 316.047C172.802 307.496 180.103 295.578 182.926 282.288L205.9 174.128L47.7812 174.13Z" fill="#5E71B6"/>
<path d="M126.841 197.508C170.504 197.508 205.9 187.041 205.9 174.13C205.9 161.218 170.504 150.751 126.841 150.751C83.1773 150.751 47.7812 161.218 47.7812 174.13C47.7812 187.041 83.1773 197.508 126.841 197.508Z" fill="#474646"/>
<path d="M154.971 234.117H99.6345C94.3927 234.117 90.1433 238.367 90.1433 243.61V270.384C90.1433 275.627 94.3927 279.877 99.6345 279.877H154.971C160.213 279.877 164.462 275.627 164.462 270.384V243.61C164.462 238.367 160.213 234.117 154.971 234.117Z" fill="#474646"/>
<path d="M121.307 257.852H118.017C118.017 253.517 119.981 247.543 129.336 243.7C134.816 241.449 133.002 233.13 132.982 233.046L136.189 232.31C136.293 232.763 138.651 243.43 130.586 246.741C124.429 249.27 121.307 253.01 121.307 257.852Z" fill="#5E71B6"/>
<path d="M150.823 281.801C147.624 275.802 146.289 275.921 140.659 276.421C138.826 276.584 136.546 276.787 133.762 276.787C121.3 276.787 120.003 267.715 119.991 267.624L123.254 267.209L121.623 267.416L123.252 267.194C123.29 267.451 124.286 273.497 133.761 273.497C136.399 273.497 138.507 273.309 140.367 273.144C146.701 272.579 149.672 272.651 153.725 280.253L150.823 281.801Z" fill="#5E71B6"/>
<path d="M112.795 259.538C112.683 259.538 112.572 259.511 112.472 259.459L108.916 257.626C108.75 257.54 108.625 257.392 108.568 257.214C108.511 257.035 108.527 256.842 108.613 256.676C108.699 256.51 108.847 256.384 109.026 256.328C109.204 256.271 109.397 256.287 109.563 256.373L113.119 258.206C113.26 258.278 113.372 258.396 113.438 258.54C113.504 258.684 113.519 258.846 113.482 259C113.444 259.154 113.356 259.291 113.232 259.388C113.107 259.486 112.953 259.539 112.795 259.538V259.538Z" fill="white"/>
<path d="M108.499 266.516C108.334 266.516 108.175 266.458 108.049 266.352C107.923 266.247 107.837 266.101 107.808 265.939C107.778 265.777 107.805 265.61 107.886 265.466C107.966 265.323 108.094 265.212 108.248 265.153L111.987 263.729C112.16 263.673 112.347 263.684 112.511 263.762C112.674 263.84 112.802 263.978 112.866 264.148C112.931 264.317 112.928 264.505 112.858 264.672C112.787 264.839 112.656 264.973 112.489 265.045L108.75 266.47C108.67 266.5 108.585 266.516 108.499 266.516Z" fill="white"/>
<path d="M130.989 263.618C130.812 263.618 130.642 263.552 130.512 263.432C130.382 263.312 130.302 263.148 130.287 262.972C130.272 262.796 130.324 262.621 130.433 262.481C130.541 262.341 130.698 262.248 130.872 262.218L134.82 261.551C135.004 261.521 135.192 261.565 135.344 261.673C135.495 261.782 135.598 261.946 135.629 262.129C135.66 262.313 135.617 262.502 135.509 262.654C135.402 262.806 135.238 262.909 135.055 262.941L131.107 263.609C131.068 263.615 131.028 263.618 130.989 263.618V263.618Z" fill="white"/>
<path d="M128.102 258.842C127.976 258.842 127.852 258.808 127.743 258.744C127.635 258.679 127.545 258.587 127.485 258.477C127.424 258.367 127.394 258.242 127.397 258.116C127.401 257.99 127.438 257.867 127.506 257.761L129.642 254.376C129.69 254.296 129.754 254.226 129.83 254.171C129.906 254.115 129.992 254.076 130.083 254.054C130.174 254.032 130.269 254.029 130.361 254.045C130.454 254.06 130.542 254.094 130.621 254.144C130.701 254.194 130.769 254.259 130.823 254.336C130.877 254.413 130.915 254.5 130.934 254.591C130.954 254.683 130.956 254.778 130.938 254.87C130.921 254.962 130.886 255.05 130.834 255.128L128.698 258.513C128.634 258.613 128.546 258.696 128.442 258.754C128.338 258.812 128.221 258.842 128.102 258.842Z" fill="white"/>
<path d="M168.342 255.39C161.499 255.39 155.789 253.52 151.326 249.808C143.08 242.95 142.196 232.365 142.161 231.918L145.442 231.671L143.802 231.795L145.441 231.669C145.449 231.763 146.28 241.352 153.454 247.299C158.153 251.194 164.561 252.73 172.509 251.864L172.866 255.135C171.364 255.302 169.854 255.387 168.342 255.39V255.39Z" fill="#5E71B6"/>
<path d="M82.5723 275.839L81.9646 272.605C94.5774 270.233 94.568 264.985 94.5572 258.909C94.5502 254.817 94.5417 250.179 99.3618 247.466C108.327 242.422 107.609 230.989 107.601 230.873L110.881 230.627C110.923 231.18 111.789 244.249 100.975 250.333C97.9871 252.015 97.8395 254.684 97.8471 258.902C97.8583 265.166 97.872 272.961 82.5723 275.839Z" fill="#5E71B6"/>
<path d="M179.794 181.424C179.731 181.424 179.668 181.417 179.606 181.405C176.045 180.688 169.327 177.644 169.387 171.244C169.382 169.989 169.68 168.752 170.256 167.638C170.832 166.523 171.669 165.564 172.695 164.843C171.645 162.896 171.334 160.636 171.82 158.478C173.163 151.479 180.209 150.252 183.749 150.584C183.997 150.608 184.225 150.729 184.383 150.921C184.541 151.112 184.618 151.359 184.595 151.606C184.572 151.854 184.452 152.082 184.261 152.242C184.07 152.401 183.824 152.478 183.576 152.456C183.229 152.424 175.023 151.768 173.666 158.833C173.266 160.538 173.494 162.33 174.307 163.881C177.796 162.197 182.576 162.188 184.77 163.866C185.209 164.167 185.551 164.59 185.754 165.082C185.957 165.575 186.011 166.116 185.911 166.639C185.472 168.929 182.786 170.071 179.384 169.417C177.242 169.027 175.283 167.958 173.796 166.368C173.008 166.917 172.366 167.649 171.926 168.502C171.485 169.355 171.259 170.302 171.267 171.262C171.206 177.702 179.891 179.544 179.978 179.562C180.207 179.608 180.41 179.737 180.549 179.925C180.688 180.112 180.752 180.345 180.729 180.577C180.706 180.809 180.597 181.024 180.424 181.181C180.251 181.337 180.026 181.424 179.793 181.424L179.794 181.424ZM175.49 165.408C176.676 166.514 178.149 167.263 179.741 167.57C181.983 167.999 183.845 167.447 184.068 166.284C184.101 166.103 184.077 165.917 183.999 165.751C183.92 165.584 183.791 165.447 183.63 165.359C182.211 164.273 178.512 164.096 175.49 165.408Z" fill="white"/>
<path d="M99.4522 174.362C99.2549 174.362 99.0626 174.3 98.9026 174.185C98.7425 174.07 98.6228 173.907 98.5604 173.72C98.4981 173.532 98.4961 173.33 98.555 173.142C98.6138 172.954 98.7304 172.789 98.8882 172.67C99.0908 172.517 103.823 168.868 101.132 164.441C100.555 163.408 99.6499 162.597 98.5597 162.138C97.3847 164.817 94.7279 167.167 92.6412 167.343C92.2015 167.401 91.7543 167.33 91.3544 167.138C90.9545 166.946 90.6194 166.641 90.39 166.261C90.1326 165.814 90.0021 165.305 90.0126 164.788C90.023 164.272 90.174 163.769 90.4492 163.332C91.4968 161.418 94.1024 159.988 96.6436 159.931C96.8551 159.927 97.0666 159.931 97.2733 159.944C97.3913 159.305 97.3588 158.648 97.1785 158.024C96.9983 157.4 96.6751 156.826 96.2347 156.348C93.1432 152.867 87.5608 156.13 87.5053 156.163C87.3992 156.226 87.2818 156.268 87.1596 156.286C87.0374 156.304 86.913 156.297 86.7933 156.267C86.6737 156.236 86.5611 156.183 86.4622 156.109C86.3632 156.035 86.2798 155.943 86.2166 155.837C86.1535 155.73 86.1118 155.613 86.094 155.491C86.0762 155.369 86.0827 155.244 86.113 155.124C86.1434 155.005 86.197 154.892 86.2708 154.793C86.3446 154.694 86.4372 154.611 86.5433 154.548C86.8252 154.379 93.529 150.469 97.6399 155.099C98.2774 155.796 98.7428 156.633 98.9991 157.542C99.2554 158.451 99.2953 159.408 99.1157 160.335C100.644 160.934 101.923 162.037 102.739 163.462C105.606 168.175 102.21 172.528 100.016 174.171C99.854 174.295 99.6559 174.362 99.4522 174.362V174.362ZM96.6323 161.815C94.5865 161.881 92.7239 163.093 92.0965 164.238C91.9864 164.388 91.9189 164.564 91.9011 164.749C91.8833 164.934 91.9159 165.121 91.9955 165.288C92.0425 165.368 92.1252 165.497 92.4852 165.471C93.6634 165.373 95.5983 163.807 96.6314 161.815H96.6323Z" fill="white"/>
<path d="M202.379 96.0873C207.191 130.119 175.261 151.34 133.017 157.315C90.7727 163.289 54.213 151.756 49.4013 117.722C44.5897 83.6877 73.3482 40.0402 115.592 34.0658C157.835 28.0914 197.567 62.0529 202.379 96.0873Z" fill="#5E71B6"/>
<path d="M161.853 59.6935L118.345 65.8463C104.708 67.7749 95.2153 80.3958 97.1436 94.0358C99.0719 107.676 111.691 117.17 125.328 115.241L168.836 109.088C182.474 107.16 191.967 94.5387 190.038 80.8988C188.11 67.2588 175.491 57.7648 161.853 59.6935Z" fill="white"/>
<path d="M111.85 7.72895L108.476 8.37567L114.992 42.3759L118.365 41.7292L111.85 7.72895Z" fill="#5E71B6"/>
<path d="M110.645 16.8463C114.112 16.8463 116.923 14.0351 116.923 10.5673C116.923 7.09947 114.112 4.28827 110.645 4.28827C107.178 4.28827 104.367 7.09947 104.367 10.5673C104.367 14.0351 107.178 16.8463 110.645 16.8463Z" fill="#474646"/>
<path d="M134.21 99.733C133.599 99.7332 133.005 99.5341 132.518 99.1661L114.043 85.268C113.742 85.0474 113.487 84.7691 113.294 84.4494C113.101 84.1296 112.974 83.7748 112.919 83.4054C112.865 83.036 112.884 82.6594 112.976 82.2975C113.068 81.9356 113.231 81.5956 113.455 81.2972C113.68 80.9988 113.961 80.7479 114.283 80.5591C114.605 80.3704 114.962 80.2475 115.332 80.1975C115.702 80.1476 116.078 80.1717 116.439 80.2684C116.799 80.365 117.137 80.5324 117.433 80.7607L135.907 94.6597C136.381 95.0151 136.731 95.5108 136.907 96.0763C137.083 96.6418 137.077 97.2485 136.89 97.8103C136.702 98.3721 136.342 98.8605 135.861 99.2062C135.38 99.5519 134.802 99.7374 134.21 99.7363V99.733Z" fill="#474646"/>
<path d="M118.023 102.022C117.5 102.021 116.986 101.875 116.541 101.599C116.096 101.323 115.736 100.929 115.502 100.46C115.268 99.991 115.17 99.4663 115.218 98.9445C115.265 98.4228 115.457 97.9246 115.772 97.5059L129.67 79.028C130.122 78.437 130.789 78.0486 131.526 77.9475C132.263 77.8463 133.01 78.0405 133.605 78.4879C134.199 78.9352 134.593 79.5994 134.7 80.3357C134.807 81.072 134.619 81.8208 134.177 82.419L120.279 100.897C120.017 101.247 119.676 101.531 119.284 101.726C118.893 101.921 118.461 102.022 118.023 102.022Z" fill="#474646"/>
<path d="M174.331 94.0581C173.72 94.0582 173.126 93.8592 172.639 93.4912L154.164 79.5916C153.866 79.3699 153.615 79.0913 153.424 78.772C153.234 78.4527 153.109 78.099 153.056 77.7311C153.003 77.3632 153.023 76.9884 153.115 76.6284C153.207 76.2683 153.37 75.93 153.593 75.6329C153.817 75.3359 154.096 75.0859 154.417 74.8974C154.737 74.7089 155.091 74.5856 155.46 74.5346C155.828 74.4835 156.202 74.5058 156.562 74.6001C156.921 74.6943 157.259 74.8587 157.554 75.0838L176.029 88.9833C176.503 89.3388 176.853 89.8344 177.029 90.3999C177.205 90.9654 177.199 91.5721 177.011 92.1339C176.823 92.6957 176.464 93.1841 175.983 93.5299C175.502 93.8756 174.924 94.061 174.332 94.0599L174.331 94.0581Z" fill="#474646"/>
<path d="M158.145 96.3477C157.621 96.3473 157.108 96.2011 156.663 95.9252C156.217 95.6494 155.857 95.2549 155.624 94.786C155.39 94.3171 155.291 93.7923 155.339 93.2705C155.387 92.7487 155.579 92.2506 155.894 91.8318L169.791 73.354C170.24 72.7562 170.909 72.3615 171.65 72.2568C172.39 72.1521 173.142 72.3459 173.74 72.7955C174.337 73.2452 174.732 73.9139 174.837 74.6546C174.941 75.3952 174.748 76.1472 174.298 76.7449L160.401 95.2228C160.138 95.5727 159.797 95.8565 159.406 96.0518C159.014 96.247 158.583 96.3483 158.145 96.3477V96.3477Z" fill="#474646"/>
<path d="M147.497 122.956C148.346 121.832 149.496 120.972 150.815 120.477C152.133 119.983 153.565 119.873 154.943 120.16C156.322 120.448 157.59 121.121 158.6 122.102C159.611 123.083 160.322 124.331 160.65 125.701C160.71 125.943 160.721 126.195 160.683 126.441C160.645 126.688 160.559 126.925 160.429 127.138C160.299 127.351 160.129 127.536 159.927 127.683C159.725 127.83 159.497 127.936 159.254 127.994C159.011 128.052 158.76 128.062 158.513 128.022C158.267 127.983 158.031 127.895 157.819 127.764C157.606 127.633 157.422 127.461 157.276 127.258C157.131 127.056 157.027 126.826 156.97 126.583C156.858 126.118 156.656 125.679 156.375 125.291C156.094 124.904 155.739 124.576 155.331 124.326C154.923 124.075 154.47 123.908 153.997 123.833C153.525 123.758 153.042 123.777 152.576 123.888C152.111 124 151.672 124.202 151.285 124.484C150.898 124.765 150.57 125.12 150.319 125.528C150.069 125.936 149.902 126.389 149.827 126.862C149.752 127.334 149.771 127.817 149.882 128.283C149.996 128.77 149.912 129.281 149.649 129.707C149.387 130.132 148.967 130.436 148.481 130.552C147.995 130.669 147.482 130.588 147.056 130.329C146.629 130.069 146.322 129.65 146.202 129.165C145.973 128.216 145.933 127.232 146.086 126.268C146.24 125.304 146.583 124.379 147.095 123.549C147.22 123.344 147.354 123.146 147.497 122.956Z" fill="#474646"/>
</g>
<defs>
<clipPath id="clip0_411_3646">
<rect width="282" height="333" fill="white"/>
</clipPath>
</defs>
</svg>
