<svg width="30" height="30" viewBox="0 0 30 30" fill="none" xmlns="http://www.w3.org/2000/svg">
<path d="M4.72551 28.5513L12.8931 20.3897L8.6699 16.1665L0.50235 24.3341C-0.167899 25.0043 -0.167899 26.1075 0.50235 26.7778L2.27584 28.5513C2.95202 29.2216 4.0612 29.2216 4.72551 28.5513Z" fill="white"/>
<path d="M10.4909 16.3507L12.7033 18.5631L15.2242 16.0422C18.6584 18.4267 23.4154 18.0945 26.476 15.0339C29.9103 11.5996 29.9103 6.01816 26.476 2.57794C23.0418 -0.862278 17.4603 -0.856347 14.0201 2.57794C10.9595 5.63855 10.6273 10.3955 13.0117 13.8298L10.4909 16.3507ZM15.7521 4.28619C18.2432 1.79499 22.2825 1.79499 24.7678 4.28619C27.259 6.77738 27.259 10.8167 24.7678 13.3019C22.2766 15.7931 18.2373 15.7931 15.7521 13.3019C13.2609 10.8167 13.2609 6.77738 15.7521 4.28619Z" fill="white"/>
</svg>
