<svg width="662" height="462" viewBox="0 0 662 462" fill="none" xmlns="http://www.w3.org/2000/svg">
<path d="M330.026 43.2257C327.445 45.6068 325.623 48.6597 322.788 50.808C319.375 53.4019 314.893 54.3863 310.726 55.7764C306.558 57.1665 302.282 59.348 300.605 63.1325C299.181 66.3716 300.002 70.1295 298.795 73.4418C297.499 76.9602 294.133 79.4278 291.558 82.2678C286.467 87.868 284.205 95.57 285.526 102.753C286.437 107.722 288.928 112.311 290.406 117.16C292.215 123.092 292.468 129.311 292.722 135.463C293.192 147.016 293.657 158.682 291.298 170.049C290.695 172.903 289.067 216.288 285.912 216.201C294.284 215.41 302.704 215.323 311.118 215.23L437.174 213.9C431.366 205.52 427.656 155.995 426.426 146.119C424.303 129.092 429.441 112.045 430.045 94.9049C430.129 92.6968 430.129 90.4287 429.303 88.3536C428.434 86.1787 426.697 84.323 426.118 82.0683C425.286 78.8425 426.957 75.5369 427.011 72.2246C427.119 65.5735 420.979 60.4721 416.112 55.5436C411.42 50.8014 407.517 45.414 402.674 40.7914C397.831 36.1689 391.745 32.2514 384.821 31.5397C379.134 30.9611 373.482 32.5906 368.036 34.2002C361.54 36.1157 355.37 38.5367 348.476 38.417C340.87 38.2707 336.184 38.969 330.026 43.2257Z" fill="#2F2E41"/>
<g opacity="0.1">
<path d="M416.854 69.4245C417.03 70.1521 417.285 70.8534 417.614 71.513C417.533 70.0164 417.204 68.5489 416.643 67.1831C416.617 67.9375 416.688 68.6922 416.854 69.4245Z" fill="black"/>
<path d="M294.603 176.222L293.904 176.288C294.139 176.293 294.373 176.271 294.603 176.222Z" fill="black"/>
</g>
<path d="M425.503 415.901C424.734 416.558 423.816 416.97 422.849 417.091C407.427 420.583 391.866 423.563 376.142 424.507C362.27 425.346 348.355 424.594 334.477 423.842C320.599 423.091 306.733 422.333 293.186 419.24C298.799 406.777 302.333 393.302 303.62 379.459C304.19 373.384 304.329 367.268 304.037 361.169C303.992 360.435 303.911 359.705 303.795 358.981C303.15 354.604 301.558 348.266 303.005 345.1C304.863 341.029 311.998 340.896 315.484 340.138C321.407 338.854 327.36 337.784 333.337 336.886C357.059 333.327 381.021 332.516 404.924 331.724C408.132 331.618 411.956 331.857 413.627 334.884C414.562 336.58 414.514 338.695 414.465 340.683C414.357 344.989 414.395 349.294 414.58 353.6C415.418 372.691 419.124 391.496 425.545 409.25C426.341 411.425 427.071 414.271 425.503 415.901Z" fill="#3D4B7E"/>
<path d="M331.654 179.048C329.133 182.473 325.581 184.775 322.004 186.796C317.732 189.231 313.331 191.38 308.825 193.235C307.915 194.758 308.638 196.78 309.429 198.403C316.503 213.554 325.973 228.612 340.255 235.123C347.583 238.449 355.623 239.28 363.524 240.059C365.985 240.298 368.494 240.537 370.894 239.886C373.295 239.234 375.527 237.658 377.529 235.988C390.615 225.068 399.232 208.865 401.486 190.94C401.679 189.35 401.679 187.402 400.442 186.55C399.688 186.038 398.729 186.138 397.843 186.145C392.059 186.211 386.932 181.489 384.26 175.842C381.588 170.195 380.876 163.684 380.219 157.345C380.219 157.206 346.214 156.414 343.144 156.388C338.355 156.341 336.775 156.96 336.31 162.374C335.822 168.346 335.219 174.179 331.654 179.048Z" fill="#FBBEBE"/>
<path opacity="0.1" d="M331.654 179.048C329.133 182.473 325.581 184.775 322.004 186.796C317.732 189.231 313.331 191.38 308.825 193.235C307.915 194.758 308.638 196.78 309.429 198.403C316.503 213.554 325.973 228.612 340.255 235.123C347.583 238.449 355.623 239.28 363.524 240.059C365.985 240.298 368.494 240.537 370.894 239.886C373.295 239.234 375.527 237.658 377.529 235.988C390.615 225.068 399.232 208.865 401.486 190.94C401.679 189.35 401.679 187.402 400.442 186.55C399.688 186.038 398.729 186.138 397.843 186.145C392.059 186.211 386.932 181.489 384.26 175.842C381.588 170.195 380.876 163.684 380.219 157.345C380.219 157.206 346.214 156.414 343.144 156.388C338.355 156.341 336.775 156.96 336.31 162.374C335.822 168.346 335.219 174.179 331.654 179.048Z" fill="black"/>
<path d="M358.681 171.965C384.33 171.965 405.123 149.036 405.123 120.751C405.123 92.4667 384.33 69.5376 358.681 69.5376C333.032 69.5376 312.239 92.4667 312.239 120.751C312.239 149.036 333.032 171.965 358.681 171.965Z" fill="#FBBEBE"/>
<path d="M392.74 181.469C393.253 188.652 323.247 195.377 320.605 186.517C319.037 188.559 316.16 188.725 313.868 187.848C311.576 186.97 309.646 185.28 307.474 184.036C303.856 181.955 299.778 181.183 295.768 180.432C289.236 179.214 281.648 178.323 276.811 183.318C275.14 185.041 274 187.309 272.323 189.038C269.392 192.044 265.249 192.982 261.467 194.359C256.009 196.354 250.978 199.547 245.822 202.34C233.781 208.878 220.942 213.453 207.709 215.922C204.892 216.447 202.058 216.873 199.265 217.611C195.345 218.649 191.424 220.425 188.752 223.757C191.877 228.16 196.364 230.561 201.183 232.297L247.685 249.058C254.682 251.579 261.787 254.153 267.908 258.669C278.108 266.171 284.742 278.502 288.373 291.412C292.004 304.322 292.939 317.943 293.843 331.425C294.236 337.285 294.591 343.397 292.505 348.825C303.336 350.232 314.29 350.033 325.074 348.233C335.454 346.49 345.72 343.258 356.22 343.364C367.68 343.49 378.784 347.587 390.08 349.802C401.377 352.017 413.844 352.084 423.362 345.013C421.335 342 421.028 337.697 420.949 333.959L420.708 316.247C420.6 314.11 420.73 311.965 421.094 309.862C421.902 306.071 424.176 302.892 425.629 299.347C428.434 292.503 428.042 284.681 428.199 277.172C428.356 269.663 429.309 261.595 433.911 256.101C436.926 252.516 441.148 250.481 445.431 249.224C452.753 247.069 460.413 246.929 467.976 246.337C492.634 244.388 516.758 237.46 539.146 225.899C537.807 222.779 534.695 221.01 531.854 219.56C525.135 216.135 518.018 212.623 510.648 213.388C507.083 213.76 503.555 215.13 500.003 214.632C496.637 214.153 493.658 212.051 490.389 211.047C487.91 210.288 485.316 210.175 482.771 209.75C476.896 208.759 471.384 206.092 465.949 203.451L452.222 196.8C448.603 195.037 444.833 193.155 442.349 189.75C441.54 188.639 440.889 187.389 440.008 186.344C438.494 184.555 436.389 183.498 434.285 182.759C431.64 181.745 428.821 181.403 426.04 181.762C424.132 182.18 422.249 182.724 420.4 183.391C411.329 186.092 401.968 183.285 392.74 181.469Z" fill="#D1267C"/>
<path d="M445.859 449.343C421.138 455.896 395.957 460.124 370.587 461.98H370.545H306.847H306.811C295.412 461.124 284.177 459.816 273.107 458.056C276.374 447.333 280.876 437.118 286.503 427.66C287.403 426.322 288.108 424.836 288.59 423.257C288.855 421.787 288.991 420.293 288.994 418.794C289.288 414.204 290.902 409.838 293.602 406.33C294.857 407.084 296.123 407.809 297.402 408.505C311.888 416.44 327.665 421.109 343.807 422.24C352.299 422.72 360.811 422.531 369.278 421.674C388.373 419.978 408.229 416.067 423.609 403.65C424.254 403.131 424.894 402.592 425.527 402.04C433 409.356 437.324 420.57 440.418 431.052C442.258 437.185 443.959 443.304 445.859 449.343Z" fill="#3D4B7E"/>
<path opacity="0.1" d="M358.428 407.028C358.127 408.102 358.054 409.238 358.213 410.348C358.371 411.458 358.759 412.514 359.345 413.433C359.736 412.472 359.852 411.401 359.678 410.365C359.503 409.329 359.046 408.376 358.368 407.634L358.428 407.028Z" fill="black"/>
<path d="M332.04 192.025C334.38 190.614 336.908 189.364 339.573 189.324C343.578 189.284 347.161 191.985 350.128 194.964C352.872 197.697 355.354 200.732 357.535 204.023C358.621 205.653 359.658 207.442 359.821 209.457C359.984 211.472 358.982 213.74 357.197 214.219C356.07 214.429 354.911 214.171 353.946 213.494C349.821 210.994 346.763 205.267 342.083 205.826C338.874 206.205 336.703 209.497 334.947 212.477C333.385 215.137 331.805 217.871 331.105 220.944C330.406 224.016 330.743 227.595 332.686 229.909C334.193 231.725 336.395 232.57 338.452 233.514C343.001 235.59 347.165 238.571 350.738 242.307C352.469 244.129 354.115 246.298 354.356 248.958C354.598 251.619 352.77 254.545 350.382 254.359C349.305 254.173 348.289 253.685 347.432 252.942C343.114 249.796 338.705 246.497 333.639 245.34C328.482 244.163 323.156 245.34 317.957 246.218C312.255 247.158 306.525 247.827 300.767 248.226C299.058 248.443 297.328 248.319 295.659 247.861C289.965 245.919 288.307 237.931 288.97 232.157C289.676 225.985 293.795 224.582 298.102 221.516C310.213 212.776 319.199 199.74 332.04 192.025Z" fill="#FBBEBE"/>
<path d="M376.655 192.025C374.308 190.614 371.787 189.364 369.115 189.324C365.111 189.284 361.528 191.985 358.56 194.964C355.819 197.697 353.34 200.733 351.16 204.023C350.08 205.653 349.043 207.442 348.88 209.457C348.717 211.472 349.712 213.74 351.498 214.219C352.627 214.429 353.787 214.171 354.755 213.494C358.88 210.994 361.938 205.267 366.612 205.826C369.827 206.205 371.998 209.497 373.748 212.477C375.31 215.137 376.896 217.871 377.59 220.944C378.283 224.016 377.951 227.595 376.009 229.909C374.507 231.725 372.3 232.57 370.243 233.514C365.693 235.591 361.526 238.572 357.951 242.307C356.22 244.129 354.58 246.298 354.332 248.958C354.085 251.619 355.919 254.545 358.307 254.359C359.384 254.174 360.4 253.686 361.256 252.942C365.575 249.796 369.984 246.497 375.05 245.34C380.207 244.163 385.533 245.34 390.732 246.218C396.42 247.202 402.155 247.887 407.903 248.266C409.614 248.482 411.347 248.359 413.018 247.901C418.706 245.958 420.364 237.97 419.707 232.197C418.995 226.025 414.882 224.622 410.569 221.555C398.482 212.776 389.502 199.74 376.655 192.025Z" fill="#FBBEBE"/>
<path d="M326.57 102.248C329.272 97.5389 332.481 92.4308 336.865 91.8854C342.987 91.1206 347.77 99.5608 353.862 100.652C361.703 102.062 369.411 90.9942 376.781 95.0381C380.4 97.0334 383.102 102.567 387.035 102.461C389.755 102.394 391.968 99.5808 393.772 96.8206C396.815 92.1668 399.508 87.2463 401.824 82.1083C394.339 72.6437 383.452 70.4821 373.289 68.7595L356.202 65.8663C352.089 65.1679 347.903 64.4762 343.814 65.4406C340.116 66.3119 336.666 68.5068 333.319 70.8147C329.326 73.5816 319.935 78.0245 317.487 83.1725C315.78 86.7441 318.126 88.4069 320.327 92.0052C322.398 95.4194 324.479 98.8336 326.57 102.248Z" fill="#2F2E41"/>
<path opacity="0.1" d="M300.689 217.844C293.278 219.476 285.709 220.071 278.162 219.613C275.201 219.441 272.227 219.101 269.278 219.407C265.719 219.78 262.3 221.077 258.831 222.021C240.864 226.896 222.088 222.134 203.747 219.46C200.508 218.988 197.197 218.583 193.988 219.274C191.051 219.906 188.336 221.423 185.737 223.052C181.525 225.693 177.493 228.67 173.674 231.958C169.675 235.403 165.64 239.793 165.363 245.373C165.122 250.175 167.775 254.598 170.99 257.864C179.675 266.73 192.571 269.397 204.199 266.996C208.62 266.085 212.933 264.515 217.402 263.97C221.98 263.411 226.606 263.97 231.208 263.73C240.556 263.271 249.507 259.686 258.584 257.192C272.759 253.3 287.422 252.033 301.974 253.441C301.847 253.501 301.71 253.53 301.572 253.525C301.435 253.521 301.299 253.482 301.177 253.413C301.054 253.343 300.946 253.245 300.862 253.125C300.778 253.004 300.719 252.865 300.689 252.716C299.622 249.47 299.567 245.939 299.586 242.487C299.634 234.113 299.99 226.185 300.689 217.844Z" fill="black"/>
<path d="M299.483 218.509C292.071 220.141 284.502 220.736 276.956 220.278C273.994 220.106 271.021 219.766 268.071 220.072C264.513 220.445 261.093 221.742 257.625 222.686C239.657 227.561 220.882 222.799 202.54 220.125C199.301 219.653 195.99 219.248 192.781 219.939C189.844 220.571 187.13 222.088 184.53 223.717C180.319 226.358 176.287 229.335 172.468 232.623C168.469 236.068 164.434 240.458 164.156 246.038C163.915 250.84 166.569 255.263 169.784 258.529C178.469 267.395 191.364 270.062 202.993 267.661C207.414 266.75 211.726 265.18 216.195 264.635C220.773 264.076 225.399 264.635 230.001 264.395C239.35 263.936 248.3 260.351 257.378 257.857C271.553 253.965 286.216 252.698 300.767 254.106C300.641 254.167 300.504 254.195 300.366 254.19C300.228 254.186 300.093 254.147 299.97 254.078C299.847 254.009 299.74 253.91 299.656 253.79C299.571 253.669 299.512 253.53 299.483 253.381C298.415 250.135 298.361 246.604 298.379 243.152C298.427 234.778 298.783 226.85 299.483 218.509Z" fill="#D1267C"/>
<path opacity="0.1" d="M409.405 214.286C418.597 216.594 440.72 217.611 450.141 217.265C454.442 217.119 458.73 216.693 463.03 216.707C470.401 216.707 477.759 218.037 485.111 217.498C494.611 216.78 503.941 212.929 513.417 213.92C518.073 214.412 522.554 216.048 526.993 217.684C531.432 219.321 536.27 221.17 539.394 225.147C542.289 228.832 543.344 233.793 544.303 238.556C544.84 241.216 545.377 243.963 544.907 246.63C544.008 251.691 539.78 255.117 535.721 257.671C530.896 260.704 525.6 263.311 520.039 263.171C516.74 263.092 513.531 262.041 510.389 260.95C501.384 257.83 492.18 254.299 482.771 255.077C476.191 255.636 469.617 258.309 463.145 256.866C459.339 256.015 455.907 253.793 452.288 252.317C443.471 248.758 421.088 249.703 411.739 250.687C412.282 244.894 412.216 239.054 412.759 233.255C413.181 228.818 413.585 224.222 412.294 219.992C411.486 217.458 411.215 216.081 409.405 214.286Z" fill="black"/>
<path d="M410.008 215.616C419.2 217.924 441.323 218.942 450.744 218.596C455.045 218.45 459.333 218.024 463.633 218.037C471.004 218.037 478.362 219.367 485.714 218.829C495.214 218.11 504.544 214.259 514.02 215.25C518.676 215.743 523.157 217.379 527.596 219.015C532.036 220.651 536.873 222.5 539.997 226.477C542.892 230.162 543.947 235.124 544.906 239.886C545.443 242.547 545.98 245.293 545.51 247.961C544.611 253.022 540.383 256.447 536.324 259.001C531.499 262.034 526.203 264.642 520.642 264.502C517.343 264.422 514.134 263.371 510.992 262.28C501.987 259.161 492.783 255.629 483.374 256.407C476.794 256.966 470.22 259.64 463.748 258.197C459.942 257.345 456.51 255.124 452.892 253.647C444.074 250.089 421.691 251.033 412.342 252.018C412.885 246.225 412.819 240.385 413.362 234.585C413.784 230.149 414.188 225.553 412.897 221.323C412.089 218.789 411.818 217.412 410.008 215.616Z" fill="#D1267C"/>
<path d="M314.175 114.333C312.764 113.927 312.221 111.958 310.949 111.167C309.676 110.375 308.084 111.001 307.167 112.178C306.315 113.424 305.854 114.941 305.852 116.501C305.739 119.865 306.57 123.186 308.233 126.01C309.895 128.834 312.307 131.023 315.14 132.278C313.879 126.223 313.392 120.004 313.693 113.801L314.175 114.333Z" fill="#FBBEBE"/>
<path d="M403.181 114.333C404.592 113.927 405.129 111.958 406.401 111.167C407.674 110.375 409.266 111.001 410.183 112.178C411.037 113.422 411.499 114.94 411.498 116.501C411.611 119.865 410.78 123.186 409.117 126.01C407.455 128.834 405.042 131.023 402.209 132.278C403.471 126.223 403.958 120.004 403.657 113.801L403.181 114.333Z" fill="#FBBEBE"/>
<g opacity="0.1">
<path d="M345.37 261.821C346.52 266.458 347.078 271.248 347.028 276.055C347.028 284.415 345.539 291.711 343.319 295.629C343.132 297.491 342.921 299.34 342.716 301.156C345.846 298.496 348.144 289.756 348.144 279.38C348.12 272.29 347.046 265.965 345.37 261.821Z" fill="black"/>
</g>
<g opacity="0.1">
<path d="M362.36 261.821C361.208 266.457 360.648 271.248 360.696 276.055C360.696 284.415 362.192 291.711 364.411 295.629C364.598 297.491 364.803 299.34 365.014 301.156C361.884 298.496 359.586 289.756 359.586 279.38C359.58 272.29 360.654 265.965 362.36 261.821Z" fill="black"/>
</g>
<path opacity="0.1" d="M393.724 93.4946C391.914 96.2548 389.707 99.0682 386.987 99.1347C383.048 99.2411 380.352 93.7207 376.733 91.7121C369.393 87.6682 361.703 98.7356 353.814 97.3256C347.722 96.2348 342.957 87.7946 336.817 88.5594C332.433 89.1048 329.224 94.2129 326.522 98.9219C324.431 95.5121 322.342 92.0978 320.255 88.6792C319.049 86.6838 317.74 85.2538 317.155 83.7773C315.985 86.9432 318.18 88.6193 320.255 92.0047C322.33 95.3901 324.429 98.8354 326.522 102.247C329.224 97.5385 332.433 92.4304 336.817 91.885C342.939 91.1201 347.722 99.5604 353.814 100.651C361.655 102.061 369.363 90.9937 376.733 95.0376C380.352 97.033 383.054 102.567 386.987 102.46C389.707 102.394 391.92 99.5803 393.724 96.8201C396.767 92.1663 399.46 87.2458 401.776 82.1078C401.45 81.6955 401.112 81.2964 400.768 80.9106C398.688 85.2807 396.334 89.4856 393.724 93.4946Z" fill="black"/>
</svg>
