<svg width="744" height="542" viewBox="0 0 744 542" fill="none" xmlns="http://www.w3.org/2000/svg">
<circle cx="372" r="372" fill="url(#paint0_linear_139_11)"/>
<g opacity="0.15">
<path d="M40.7854 347.698L35.6477 342.56L190.724 187.448C192.403 185.775 193.735 183.788 194.644 181.599C195.553 179.411 196.021 177.065 196.021 174.695C196.021 172.325 195.553 169.979 194.644 167.79C193.735 165.602 192.403 163.614 190.724 161.942L30 1.3275L35.1376 -3.91943L195.861 156.914C200.596 161.649 203.256 168.071 203.256 174.768C203.256 181.464 200.596 187.886 195.861 192.622L40.7854 347.698Z" fill="white"/>
<path d="M270.811 114.939C267.501 114.963 264.22 114.331 261.155 113.081C258.091 111.83 255.305 109.985 252.957 107.651L71.5371 -73.8778L76.6747 -79.0155L258.167 102.368C259.832 104.06 261.817 105.404 264.007 106.321C266.196 107.239 268.547 107.711 270.92 107.711C273.294 107.711 275.645 107.239 277.834 106.321C280.023 105.404 282.009 104.06 283.673 102.368L403.916 -18.1656C405.603 -19.8331 406.943 -21.8189 407.858 -24.008C408.772 -26.1972 409.243 -28.5461 409.243 -30.9186C409.243 -33.2911 408.772 -35.64 407.858 -37.8292C406.943 -40.0183 405.603 -42.0041 403.916 -43.6716L336.762 -110.825L341.973 -115.999L409.199 -48.6999C413.925 -43.9598 416.579 -37.5393 416.579 -30.8457C416.579 -24.1522 413.925 -17.7317 409.199 -12.9916L288.665 107.542C286.327 109.895 283.544 111.76 280.48 113.03C277.415 114.3 274.129 114.949 270.811 114.939V114.939Z" fill="white"/>
<path d="M499.564 479.855L264.436 244.727C262.771 243.035 260.786 241.691 258.596 240.773C256.407 239.856 254.057 239.384 251.683 239.384C249.309 239.384 246.959 239.856 244.769 240.773C242.58 241.691 240.595 243.035 238.93 244.727L47.6718 436.058L42.5342 430.92L233.865 239.553C238.607 234.816 245.035 232.155 251.737 232.155C258.44 232.155 264.868 234.816 269.61 239.553L504.701 474.681L499.564 479.855Z" fill="white"/>
<path d="M452.242 -116L447.089 -110.847L719.552 161.616L724.705 156.463L452.242 -116Z" fill="white"/>
<path d="M481.71 331.302C475.029 331.33 468.608 328.71 463.856 324.014L329.84 189.78C325.105 185.045 322.445 178.623 322.445 171.926C322.445 165.23 325.105 158.807 329.84 154.072L458.864 25.012C463.601 20.3082 470.006 17.6685 476.681 17.6685C483.357 17.6685 489.762 20.3082 494.499 25.012L629.316 158.444C631.667 160.793 633.532 163.582 634.805 166.652C636.077 169.721 636.732 173.012 636.732 176.335C636.732 179.658 636.077 182.949 634.805 186.018C633.532 189.088 631.667 191.877 629.316 194.226L499.564 324.014C494.811 328.71 488.391 331.33 481.71 331.302V331.302ZM464.038 30.1861L334.978 159.246C333.299 160.918 331.967 162.906 331.058 165.094C330.149 167.283 329.681 169.629 329.681 171.999C329.681 174.369 330.149 176.715 331.058 178.904C331.967 181.092 333.299 183.08 334.978 184.752L468.993 318.767C470.663 320.451 472.65 321.787 474.838 322.698C477.027 323.61 479.375 324.08 481.746 324.08C484.117 324.08 486.465 323.61 488.654 322.698C490.843 321.787 492.829 320.451 494.499 318.767L624.069 189.197C625.748 187.525 627.08 185.537 627.989 183.349C628.898 181.16 629.366 178.814 629.366 176.444C629.366 174.074 628.898 171.728 627.989 169.54C627.08 167.351 625.748 165.364 624.069 163.691L489.361 30.1132C487.692 28.4299 485.705 27.0938 483.516 26.182C481.327 25.2702 478.98 24.8008 476.608 24.8008C474.237 24.8008 471.89 25.2702 469.701 26.182C467.512 27.0938 465.525 28.4299 463.856 30.1132L464.038 30.1861Z" fill="white"/>
<path d="M704.922 541.543C701.612 541.567 698.331 540.935 695.266 539.685C692.202 538.434 689.416 536.589 687.068 534.255L553.053 400.24C548.327 395.5 545.673 389.08 545.673 382.386C545.673 375.692 548.327 369.272 553.053 364.532L682.113 235.472C686.85 230.768 693.255 228.128 699.93 228.128C706.606 228.128 713.011 230.768 717.748 235.472L852.565 368.868C854.921 371.217 856.791 374.008 858.067 377.081C859.343 380.155 859.999 383.449 859.999 386.777C859.999 390.104 859.343 393.399 858.067 396.472C856.791 399.545 854.921 402.336 852.565 404.685L722.886 534.328C720.523 536.667 717.717 538.509 714.632 539.748C711.547 540.987 708.246 541.597 704.922 541.543V541.543ZM687.25 240.5L558.19 369.56C556.511 371.233 555.179 373.22 554.27 375.408C553.361 377.597 552.893 379.943 552.893 382.313C552.893 384.683 553.361 387.029 554.27 389.218C555.179 391.406 556.511 393.394 558.19 395.066L692.242 529.118C693.914 530.797 695.902 532.129 698.09 533.038C700.279 533.947 702.625 534.415 704.995 534.415C707.365 534.415 709.711 533.947 711.9 533.038C714.088 532.129 716.076 530.797 717.748 529.118L847.391 399.439C849.074 397.769 850.41 395.782 851.322 393.593C852.234 391.404 852.703 389.057 852.703 386.686C852.703 384.314 852.234 381.967 851.322 379.778C850.41 377.589 849.074 375.603 847.391 373.933L712.61 240.464C710.938 238.785 708.951 237.453 706.762 236.544C704.574 235.635 702.227 235.167 699.857 235.167C697.488 235.167 695.141 235.635 692.953 236.544C690.764 237.453 688.777 238.785 687.104 240.464L687.25 240.5Z" fill="white"/>
</g>
<defs>
<linearGradient id="paint0_linear_139_11" x1="372" y1="-372" x2="372" y2="372" gradientUnits="userSpaceOnUse">
<stop stop-color="#A8B8F0"/>
<stop offset="1" stop-color="#5E71B6"/>
</linearGradient>
</defs>
</svg>
