<svg width="375" height="812" viewBox="0 0 375 812" fill="none" xmlns="http://www.w3.org/2000/svg">
<g clip-path="url(#clip0_146_316)">
<rect width="375" height="812" fill="#464646"/>
<rect width="375" height="812" fill="white"/>
<g filter="url(#filter0_b_146_316)">
<rect width="375" height="812" fill="url(#paint0_linear_146_316)"/>
</g>
<rect x="59" y="867.678" width="519.747" height="279.689" transform="rotate(-47.742 59 867.678)" fill="white" fill-opacity="0.05"/>
<rect x="97" y="894.678" width="519.747" height="279.689" transform="rotate(-47.742 97 894.678)" fill="white" fill-opacity="0.05"/>
<circle cx="188" cy="352" r="150" fill="white" fill-opacity="0.15"/>
<circle cx="188" cy="352" r="131" fill="white"/>
<path d="M220.814 316.302V373.363C220.814 373.522 220.686 373.665 220.51 373.665H209.698C209.602 373.665 209.506 373.618 209.442 373.538L188.702 343.734C188.525 343.495 188.156 343.607 188.156 343.909V373.379C188.156 373.538 188.028 373.681 187.851 373.681H175.035C174.875 373.681 174.73 373.554 174.73 373.379V316.302C174.73 316.143 174.859 316 175.035 316H185.862C185.959 316 186.055 316.048 186.119 316.127L206.843 345.931C207.02 346.17 207.389 346.059 207.389 345.756V316.302C207.389 316.143 207.517 316 207.693 316H220.51C220.686 316 220.814 316.127 220.814 316.302Z" fill="#4B5EAA"/>
<path d="M134.742 373.379L134.614 344.323C134.614 344.021 134.197 343.925 134.052 344.196L122.214 367.823C122.166 367.918 122.07 367.982 121.958 367.982H116.231C116.119 367.982 116.023 367.918 115.975 367.823L104.217 344.992C104.073 344.721 103.672 344.817 103.672 345.119V373.363C103.672 373.522 103.544 373.65 103.383 373.65H91.2887C91.1283 373.65 91 373.522 91 373.363V316.287C91 316.127 91.1283 316 91.2887 316H102.1C102.212 316 102.308 316.064 102.357 316.159L119.038 348.765C119.151 348.972 119.456 348.972 119.568 348.765L135.849 316.159C135.897 316.064 135.993 316 136.105 316H146.917C147.077 316 147.205 316.127 147.205 316.287L147.35 373.379C147.35 373.538 147.221 373.665 147.061 373.665H135.047C134.87 373.665 134.742 373.538 134.742 373.379Z" fill="#4B5EAA"/>
<path d="M167.801 353.064V373.363C167.801 373.538 167.657 373.665 167.496 373.665H154.407C154.231 373.665 154.102 373.522 154.102 373.363V352.809C154.102 352.761 154.086 352.714 154.07 352.666L135.833 316.446C135.736 316.239 135.881 316 136.105 316H149.884C149.996 316 150.108 316.064 150.157 316.175L161.289 338.353C161.401 338.576 161.722 338.576 161.834 338.353L172.982 316.175C173.03 316.064 173.142 316 173.255 316H185.862C186.087 316 186.247 316.239 186.135 316.446L167.833 352.921C167.817 352.968 167.801 353.016 167.801 353.064Z" fill="#263B73"/>
<path d="M224.103 316.302C224.103 316.143 224.231 316 224.407 316H247.024C263.081 316 274.084 327.129 274.084 344.833C274.084 362.537 263.081 373.665 247.024 373.665H224.407C224.247 373.665 224.103 373.538 224.103 373.363V316.302ZM246.463 360.658C254.691 360.658 260.241 354.815 260.241 344.849C260.241 334.882 254.707 329.039 246.463 329.039H238.106C237.945 329.039 237.801 329.167 237.801 329.342V360.387C237.801 360.547 237.929 360.69 238.106 360.69H246.463V360.658Z" fill="#4B5EAA"/>
<path d="M280.035 373.681C283.242 373.681 285.842 371.101 285.842 367.918C285.842 364.735 283.242 362.154 280.035 362.154C276.828 362.154 274.229 364.735 274.229 367.918C274.229 371.101 276.828 373.681 280.035 373.681Z" fill="#EE3D96"/>
<path d="M295.193 373.681C298.4 373.681 301 371.101 301 367.918C301 364.735 298.4 362.154 295.193 362.154C291.986 362.154 289.387 364.735 289.387 367.918C289.387 371.101 291.986 373.681 295.193 373.681Z" fill="#263B73"/>
<path d="M93 384.967H94.3839V395.516H93V384.967Z" fill="#58595B"/>
<path d="M102.791 390.816C102.791 389.119 101.877 388.257 100.467 388.257C99.0571 388.257 98.0909 389.145 98.0909 390.92V395.516H96.707V387.239H98.0909V388.414C98.6393 387.552 99.6315 387.082 100.754 387.082C102.687 387.082 104.149 388.257 104.149 390.633V395.516H102.791V390.816Z" fill="#58595B"/>
<path d="M106.708 388.36H105.637V387.237H106.708V385.148H108.092V387.237H110.259V388.36H108.066V393.243C108.066 394.052 108.379 394.34 109.214 394.34H110.233V395.515H109.006C107.543 395.515 106.708 394.914 106.708 393.243V388.36Z" fill="#58595B"/>
<path d="M115.483 395.647C113.133 395.647 111.384 393.975 111.384 391.338C111.384 388.727 113.055 387.082 115.483 387.082C117.886 387.082 119.452 388.779 119.452 391.051C119.452 391.364 119.426 391.599 119.4 391.887H112.768C112.872 393.558 114.047 394.498 115.457 394.498C116.711 394.498 117.494 393.871 117.781 392.957H119.269C118.878 394.472 117.546 395.647 115.483 395.647ZM112.82 390.764H118.042C118.068 389.145 116.841 388.257 115.431 388.257C114.073 388.257 112.977 389.145 112.82 390.764Z" fill="#58595B"/>
<path d="M121.278 384.312H122.662V395.514H121.278V384.312Z" fill="#58595B"/>
<path d="M125.014 384.312H126.398V395.514H125.014V384.312Z" fill="#58595B"/>
<path d="M128.513 384.94C128.513 384.418 128.93 384 129.453 384C129.949 384 130.367 384.418 130.367 384.94C130.367 385.462 129.949 385.88 129.453 385.88C128.904 385.88 128.513 385.462 128.513 384.94ZM128.722 387.212H130.106V395.515H128.722V387.212Z" fill="#58595B"/>
<path d="M135.874 387.082C137.388 387.082 138.485 387.839 138.955 388.727V387.213H140.339V395.673C140.339 397.944 138.798 399.563 136.37 399.563C134.203 399.563 132.636 398.467 132.375 396.691H133.733C134.046 397.683 135.012 398.362 136.37 398.362C137.832 398.362 138.929 397.422 138.929 395.647V393.949C138.433 394.837 137.362 395.647 135.848 395.647C133.628 395.647 131.905 393.897 131.905 391.338C131.931 388.753 133.628 387.082 135.874 387.082ZM136.135 388.283C134.62 388.283 133.341 389.38 133.341 391.338C133.341 393.297 134.62 394.445 136.135 394.445C137.649 394.445 138.955 393.323 138.955 391.364C138.955 389.432 137.649 388.283 136.135 388.283Z" fill="#58595B"/>
<path d="M146.267 395.647C143.917 395.647 142.167 393.975 142.167 391.338C142.167 388.727 143.839 387.082 146.267 387.082C148.669 387.082 150.236 388.779 150.236 391.051C150.236 391.364 150.21 391.599 150.184 391.887H143.578C143.682 393.558 144.857 394.498 146.267 394.498C147.52 394.498 148.304 393.871 148.591 392.957H150.079C149.635 394.472 148.304 395.647 146.267 395.647ZM143.578 390.764H148.8C148.826 389.145 147.599 388.257 146.189 388.257C144.857 388.257 143.734 389.145 143.578 390.764Z" fill="#58595B"/>
<path d="M158.122 390.816C158.122 389.119 157.208 388.257 155.798 388.257C154.388 388.257 153.422 389.145 153.422 390.92V395.516H152.038V387.239H153.422V388.414C153.97 387.552 154.962 387.082 156.085 387.082C158.017 387.082 159.479 388.257 159.479 390.633V395.516H158.122V390.816Z" fill="#58595B"/>
<path d="M165.251 387.082C167.314 387.082 168.646 388.153 169.09 389.876H167.601C167.314 388.884 166.479 388.231 165.251 388.231C163.737 388.231 162.614 389.302 162.614 391.338C162.614 393.401 163.737 394.472 165.251 394.472C166.479 394.472 167.288 393.871 167.601 392.827H169.09C168.672 394.472 167.314 395.621 165.251 395.621C162.901 395.621 161.204 393.949 161.204 391.312C161.23 388.753 162.901 387.082 165.251 387.082Z" fill="#58595B"/>
<path d="M174.495 395.647C172.144 395.647 170.395 393.975 170.395 391.338C170.395 388.727 172.066 387.082 174.495 387.082C176.897 387.082 178.463 388.779 178.463 391.051C178.463 391.364 178.437 391.599 178.411 391.887H171.779C171.883 393.558 173.058 394.498 174.468 394.498C175.696 394.498 176.505 393.871 176.792 392.957H178.281C177.889 394.472 176.557 395.647 174.495 395.647ZM171.831 390.764H177.053C177.08 389.145 175.852 388.257 174.442 388.257C173.085 388.257 171.988 389.145 171.831 390.764Z" fill="#58595B"/>
<path d="M190.578 393.165H185.982L185.146 395.515H183.684L187.496 385.044H189.089L192.875 395.515H191.413L190.578 393.165ZM188.254 386.715L186.347 392.042H190.16L188.254 386.715Z" fill="#58595B"/>
<path d="M201.885 395.515H200.501V394.287C199.979 395.149 198.961 395.645 197.864 395.645C195.958 395.645 194.47 394.47 194.47 392.094V387.237H195.828V391.911C195.828 393.582 196.741 394.444 198.151 394.444C199.561 394.444 200.528 393.556 200.528 391.781V387.237H201.912V395.515H201.885Z" fill="#58595B"/>
<path d="M204.523 388.36H203.452V387.237H204.523V385.148H205.907V387.237H208.074V388.36H205.907V393.243C205.907 394.052 206.22 394.34 207.056 394.34H208.074V395.515H206.847C205.384 395.515 204.549 394.914 204.549 393.243V388.36H204.523Z" fill="#58595B"/>
<path d="M213.321 395.647C210.971 395.647 209.195 393.975 209.195 391.338C209.195 388.727 211.049 387.082 213.373 387.082C215.723 387.082 217.551 388.727 217.551 391.338C217.577 393.975 215.697 395.647 213.321 395.647ZM213.321 394.445C214.757 394.445 216.167 393.453 216.167 391.364C216.167 389.275 214.783 388.283 213.373 388.283C211.911 388.283 210.605 389.275 210.605 391.364C210.605 393.453 211.885 394.445 213.321 394.445Z" fill="#58595B"/>
<path d="M231.365 390.816C231.365 389.119 230.451 388.257 229.093 388.257C227.709 388.257 226.743 389.145 226.743 390.947V395.516H225.386V390.816C225.386 389.119 224.472 388.257 223.114 388.257C221.73 388.257 220.764 389.145 220.764 390.947V395.516H219.38V387.239H220.764V388.44C221.312 387.552 222.304 387.082 223.375 387.082C224.733 387.082 225.882 387.683 226.404 388.936C226.9 387.735 228.075 387.082 229.328 387.082C231.208 387.082 232.697 388.257 232.697 390.633V395.516H231.339V390.816H231.365Z" fill="#58595B"/>
<path d="M238.39 387.082C239.93 387.082 241.001 387.865 241.471 388.727V387.213H242.855V395.516H241.497V393.975C241.001 394.863 239.93 395.647 238.39 395.647C236.17 395.647 234.473 393.897 234.473 391.338C234.473 388.753 236.17 387.082 238.39 387.082ZM238.677 388.283C237.163 388.283 235.883 389.38 235.883 391.338C235.883 393.297 237.163 394.445 238.677 394.445C240.192 394.445 241.497 393.323 241.497 391.364C241.497 389.432 240.192 388.283 238.677 388.283Z" fill="#58595B"/>
<path d="M245.517 388.36H244.446V387.237H245.517V385.148H246.901V387.237H249.068V388.36H246.901V393.243C246.901 394.052 247.214 394.34 248.05 394.34H249.068V395.515H247.841C246.379 395.515 245.543 394.914 245.543 393.243V388.36H245.517Z" fill="#58595B"/>
<path d="M254.291 395.647C251.941 395.647 250.192 393.975 250.192 391.338C250.192 388.727 251.863 387.082 254.291 387.082C256.694 387.082 258.26 388.779 258.26 391.051C258.26 391.364 258.234 391.599 258.208 391.887H251.576C251.68 393.558 252.855 394.498 254.265 394.498C255.493 394.498 256.302 393.871 256.589 392.957H258.078C257.686 394.472 256.354 395.647 254.291 395.647ZM251.628 390.764H256.85C256.876 389.145 255.649 388.257 254.239 388.257C252.881 388.257 251.785 389.145 251.628 390.764Z" fill="#58595B"/>
<path d="M263.535 387.08C264.84 387.08 266.041 387.733 266.616 388.699V384.312H268V395.514H266.616V393.948C266.12 394.862 265.049 395.645 263.535 395.645C261.315 395.645 259.592 393.895 259.592 391.337C259.592 388.751 261.289 387.08 263.535 387.08ZM263.796 388.281C262.281 388.281 261.002 389.378 261.002 391.337C261.002 393.295 262.281 394.444 263.796 394.444C265.31 394.444 266.616 393.321 266.616 391.363C266.59 389.43 265.284 388.281 263.796 388.281Z" fill="#58595B"/>
<path d="M36.9013 755V743.364H40.8331C41.746 743.364 42.4922 743.528 43.0717 743.858C43.6551 744.184 44.0869 744.625 44.3672 745.182C44.6475 745.739 44.7876 746.36 44.7876 747.045C44.7876 747.731 44.6475 748.354 44.3672 748.915C44.0907 749.475 43.6626 749.922 43.0831 750.256C42.5036 750.585 41.7611 750.75 40.8558 750.75H38.0376V749.5H40.8104C41.4354 749.5 41.9373 749.392 42.3161 749.176C42.6948 748.96 42.9695 748.669 43.1399 748.301C43.3142 747.93 43.4013 747.511 43.4013 747.045C43.4013 746.58 43.3142 746.163 43.1399 745.795C42.9695 745.428 42.6929 745.14 42.3104 744.932C41.9278 744.72 41.4202 744.614 40.7876 744.614H38.3104V755H36.9013ZM50.3274 755.182C49.5395 755.182 48.8482 754.994 48.2536 754.619C47.6626 754.244 47.2005 753.72 46.8672 753.045C46.5376 752.371 46.3729 751.583 46.3729 750.682C46.3729 749.773 46.5376 748.979 46.8672 748.301C47.2005 747.623 47.6626 747.097 48.2536 746.722C48.8482 746.347 49.5395 746.159 50.3274 746.159C51.1153 746.159 51.8047 746.347 52.3956 746.722C52.9903 747.097 53.4524 747.623 53.782 748.301C54.1153 748.979 54.282 749.773 54.282 750.682C54.282 751.583 54.1153 752.371 53.782 753.045C53.4524 753.72 52.9903 754.244 52.3956 754.619C51.8047 754.994 51.1153 755.182 50.3274 755.182ZM50.3274 753.977C50.9259 753.977 51.4183 753.824 51.8047 753.517C52.1911 753.21 52.477 752.807 52.6626 752.307C52.8482 751.807 52.9411 751.265 52.9411 750.682C52.9411 750.098 52.8482 749.555 52.6626 749.051C52.477 748.547 52.1911 748.14 51.8047 747.83C51.4183 747.519 50.9259 747.364 50.3274 747.364C49.7289 747.364 49.2365 747.519 48.8501 747.83C48.4638 748.14 48.1778 748.547 47.9922 749.051C47.8066 749.555 47.7138 750.098 47.7138 750.682C47.7138 751.265 47.8066 751.807 47.9922 752.307C48.1778 752.807 48.4638 753.21 48.8501 753.517C49.2365 753.824 49.7289 753.977 50.3274 753.977ZM58.0092 755L55.3501 746.273H56.7592L58.6456 752.955H58.7365L60.6001 746.273H62.032L63.8729 752.932H63.9638L65.8501 746.273H67.2592L64.6001 755H63.282L61.3729 748.295H61.2365L59.3274 755H58.0092ZM72.3942 755.182C71.5533 755.182 70.8279 754.996 70.218 754.625C69.612 754.25 69.1442 753.727 68.8146 753.057C68.4889 752.383 68.326 751.598 68.326 750.705C68.326 749.811 68.4889 749.023 68.8146 748.341C69.1442 747.655 69.6025 747.121 70.1896 746.739C70.7805 746.352 71.4699 746.159 72.2578 746.159C72.7124 746.159 73.1612 746.235 73.6044 746.386C74.0476 746.538 74.451 746.784 74.8146 747.125C75.1783 747.462 75.468 747.909 75.6839 748.466C75.8999 749.023 76.0078 749.708 76.0078 750.523V751.091H69.2805V749.932H74.6442C74.6442 749.439 74.5457 749 74.3487 748.614C74.1555 748.227 73.879 747.922 73.5192 747.699C73.1631 747.475 72.7427 747.364 72.2578 747.364C71.7237 747.364 71.2616 747.496 70.8714 747.761C70.4851 748.023 70.1877 748.364 69.9794 748.784C69.7711 749.205 69.6669 749.655 69.6669 750.136V750.909C69.6669 751.568 69.7805 752.127 70.0078 752.585C70.2389 753.04 70.5589 753.386 70.968 753.625C71.3771 753.86 71.8525 753.977 72.3942 753.977C72.7464 753.977 73.0646 753.928 73.3487 753.83C73.6366 753.727 73.8847 753.576 74.093 753.375C74.3014 753.17 74.4624 752.917 74.576 752.614L75.8714 752.977C75.7351 753.417 75.5059 753.803 75.1839 754.136C74.862 754.466 74.4643 754.723 73.9908 754.909C73.5173 755.091 72.9851 755.182 72.3942 755.182ZM78.0476 755V746.273H79.343V747.591H79.4339C79.593 747.159 79.8809 746.809 80.2976 746.54C80.7143 746.271 81.1839 746.136 81.7067 746.136C81.8052 746.136 81.9283 746.138 82.076 746.142C82.2237 746.146 82.3355 746.152 82.4112 746.159V747.523C82.3658 747.511 82.2616 747.494 82.0987 747.472C81.9396 747.445 81.7711 747.432 81.593 747.432C81.1688 747.432 80.79 747.521 80.4567 747.699C80.1271 747.873 79.8658 748.116 79.6726 748.426C79.4832 748.733 79.3885 749.083 79.3885 749.477V755H78.0476ZM87.3942 755.182C86.5533 755.182 85.8279 754.996 85.218 754.625C84.612 754.25 84.1442 753.727 83.8146 753.057C83.4889 752.383 83.326 751.598 83.326 750.705C83.326 749.811 83.4889 749.023 83.8146 748.341C84.1442 747.655 84.6025 747.121 85.1896 746.739C85.7805 746.352 86.4699 746.159 87.2578 746.159C87.7124 746.159 88.1612 746.235 88.6044 746.386C89.0476 746.538 89.451 746.784 89.8146 747.125C90.1783 747.462 90.468 747.909 90.6839 748.466C90.8999 749.023 91.0078 749.708 91.0078 750.523V751.091H84.2805V749.932H89.6442C89.6442 749.439 89.5457 749 89.3487 748.614C89.1555 748.227 88.879 747.922 88.5192 747.699C88.1631 747.475 87.7427 747.364 87.2578 747.364C86.7237 747.364 86.2616 747.496 85.8714 747.761C85.4851 748.023 85.1877 748.364 84.9794 748.784C84.7711 749.205 84.6669 749.655 84.6669 750.136V750.909C84.6669 751.568 84.7805 752.127 85.0078 752.585C85.2389 753.04 85.5589 753.386 85.968 753.625C86.3771 753.86 86.8525 753.977 87.3942 753.977C87.7464 753.977 88.0646 753.928 88.3487 753.83C88.6366 753.727 88.8847 753.576 89.093 753.375C89.3014 753.17 89.4624 752.917 89.576 752.614L90.8714 752.977C90.7351 753.417 90.5059 753.803 90.1839 754.136C89.862 754.466 89.4643 754.723 88.9908 754.909C88.5173 755.091 87.9851 755.182 87.3942 755.182ZM96.343 755.182C95.6158 755.182 94.9737 754.998 94.4169 754.631C93.8601 754.259 93.4245 753.737 93.1101 753.062C92.7957 752.384 92.6385 751.583 92.6385 750.659C92.6385 749.742 92.7957 748.947 93.1101 748.273C93.4245 747.598 93.862 747.078 94.4226 746.71C94.9832 746.343 95.6309 746.159 96.3658 746.159C96.9339 746.159 97.3828 746.254 97.7124 746.443C98.0457 746.629 98.2995 746.841 98.4737 747.08C98.6518 747.314 98.79 747.508 98.8885 747.659H99.0021V743.364H100.343V755H99.0476V753.659H98.8885C98.79 753.818 98.6499 754.019 98.468 754.261C98.2862 754.5 98.0268 754.714 97.6896 754.903C97.3525 755.089 96.9036 755.182 96.343 755.182ZM96.5249 753.977C97.0627 753.977 97.5173 753.837 97.8885 753.557C98.2597 753.273 98.5419 752.881 98.7351 752.381C98.9283 751.877 99.0249 751.295 99.0249 750.636C99.0249 749.985 98.9302 749.415 98.7408 748.926C98.5514 748.434 98.2711 748.051 97.8999 747.778C97.5286 747.502 97.0703 747.364 96.5249 747.364C95.9567 747.364 95.4832 747.509 95.1044 747.801C94.7294 748.089 94.4472 748.481 94.2578 748.977C94.0722 749.47 93.9794 750.023 93.9794 750.636C93.9794 751.258 94.0741 751.822 94.2635 752.33C94.4567 752.833 94.7408 753.235 95.1158 753.534C95.4946 753.83 95.9643 753.977 96.5249 753.977ZM107.667 755V743.364H111.735C112.546 743.364 113.214 743.504 113.741 743.784C114.267 744.061 114.659 744.434 114.917 744.903C115.174 745.369 115.303 745.886 115.303 746.455C115.303 746.955 115.214 747.367 115.036 747.693C114.862 748.019 114.631 748.277 114.343 748.466C114.059 748.655 113.75 748.795 113.417 748.886V749C113.773 749.023 114.131 749.148 114.491 749.375C114.851 749.602 115.152 749.928 115.394 750.352C115.637 750.777 115.758 751.295 115.758 751.909C115.758 752.492 115.625 753.017 115.36 753.483C115.095 753.949 114.676 754.318 114.104 754.591C113.532 754.864 112.788 755 111.871 755H107.667ZM109.076 753.75H111.871C112.792 753.75 113.445 753.572 113.832 753.216C114.222 752.856 114.417 752.42 114.417 751.909C114.417 751.515 114.317 751.152 114.116 750.818C113.915 750.481 113.629 750.212 113.258 750.011C112.887 749.807 112.447 749.705 111.94 749.705H109.076V753.75ZM109.076 748.477H111.69C112.114 748.477 112.496 748.394 112.837 748.227C113.182 748.061 113.455 747.826 113.656 747.523C113.86 747.22 113.962 746.864 113.962 746.455C113.962 745.943 113.784 745.509 113.428 745.153C113.072 744.794 112.508 744.614 111.735 744.614H109.076V748.477ZM118.755 758.273C118.528 758.273 118.325 758.254 118.147 758.216C117.969 758.182 117.846 758.148 117.778 758.114L118.119 756.932C118.444 757.015 118.732 757.045 118.982 757.023C119.232 757 119.454 756.888 119.647 756.688C119.844 756.491 120.024 756.17 120.187 755.727L120.437 755.045L117.21 746.273H118.664L121.073 753.227H121.164L123.573 746.273H125.028L121.323 756.273C121.156 756.723 120.95 757.097 120.704 757.392C120.458 757.691 120.172 757.913 119.846 758.057C119.524 758.201 119.16 758.273 118.755 758.273ZM127.775 755.091C127.495 755.091 127.254 754.991 127.053 754.79C126.853 754.589 126.752 754.348 126.752 754.068C126.752 753.788 126.853 753.547 127.053 753.347C127.254 753.146 127.495 753.045 127.775 753.045C128.055 753.045 128.296 753.146 128.496 753.347C128.697 753.547 128.798 753.788 128.798 754.068C128.798 754.254 128.75 754.424 128.656 754.58C128.565 754.735 128.442 754.86 128.286 754.955C128.135 755.045 127.964 755.091 127.775 755.091ZM127.775 748.614C127.495 748.614 127.254 748.513 127.053 748.312C126.853 748.112 126.752 747.871 126.752 747.591C126.752 747.311 126.853 747.07 127.053 746.869C127.254 746.669 127.495 746.568 127.775 746.568C128.055 746.568 128.296 746.669 128.496 746.869C128.697 747.07 128.798 747.311 128.798 747.591C128.798 747.777 128.75 747.947 128.656 748.102C128.565 748.258 128.442 748.383 128.286 748.477C128.135 748.568 127.964 748.614 127.775 748.614ZM135.093 743.364H137.673L141.127 751.795H141.263L144.718 743.364H147.298V755H145.275V747.006H145.167L141.951 754.966H140.44L137.224 746.989H137.116V755H135.093V743.364ZM150.781 758.273C150.5 758.273 150.241 758.25 150.002 758.205C149.767 758.163 149.58 758.114 149.44 758.057L149.917 756.455C150.216 756.542 150.483 756.583 150.718 756.58C150.953 756.576 151.159 756.502 151.337 756.358C151.519 756.218 151.673 755.983 151.798 755.653L151.974 755.182L148.809 746.273H150.991L153.002 752.864H153.093L155.11 746.273H157.298L153.803 756.057C153.64 756.519 153.424 756.915 153.156 757.244C152.887 757.578 152.557 757.831 152.167 758.006C151.781 758.184 151.318 758.273 150.781 758.273ZM160.778 749.886V755H158.721V746.273H160.687V747.756H160.789C160.99 747.267 161.31 746.879 161.749 746.591C162.192 746.303 162.74 746.159 163.391 746.159C163.994 746.159 164.518 746.288 164.965 746.545C165.416 746.803 165.764 747.176 166.011 747.665C166.261 748.153 166.384 748.746 166.38 749.443V755H164.323V749.761C164.323 749.178 164.172 748.722 163.869 748.392C163.569 748.062 163.155 747.898 162.624 747.898C162.264 747.898 161.944 747.977 161.664 748.136C161.388 748.292 161.17 748.517 161.011 748.812C160.855 749.108 160.778 749.466 160.778 749.886ZM171.71 755.153C171.024 755.153 170.41 754.977 169.869 754.625C169.327 754.273 168.899 753.761 168.585 753.091C168.27 752.42 168.113 751.606 168.113 750.648C168.113 749.678 168.272 748.86 168.59 748.193C168.912 747.523 169.346 747.017 169.891 746.676C170.437 746.331 171.045 746.159 171.715 746.159C172.227 746.159 172.647 746.246 172.977 746.42C173.306 746.591 173.567 746.797 173.761 747.04C173.954 747.278 174.103 747.504 174.21 747.716H174.295V743.364H176.357V755H174.335V753.625H174.21C174.103 753.837 173.95 754.062 173.749 754.301C173.549 754.536 173.283 754.737 172.954 754.903C172.624 755.07 172.21 755.153 171.71 755.153ZM172.283 753.466C172.719 753.466 173.09 753.348 173.397 753.114C173.704 752.875 173.937 752.544 174.096 752.119C174.255 751.695 174.335 751.201 174.335 750.636C174.335 750.072 174.255 749.581 174.096 749.165C173.941 748.748 173.71 748.424 173.403 748.193C173.1 747.962 172.727 747.847 172.283 747.847C171.825 747.847 171.442 747.966 171.136 748.205C170.829 748.443 170.598 748.773 170.442 749.193C170.287 749.614 170.21 750.095 170.21 750.636C170.21 751.182 170.287 751.669 170.442 752.097C170.602 752.521 170.835 752.856 171.141 753.102C171.452 753.345 171.833 753.466 172.283 753.466ZM184.717 743.364V755H182.609V743.364H184.717ZM188.965 749.886V755H186.908V746.273H188.874V747.756H188.977C189.177 747.267 189.497 746.879 189.937 746.591C190.38 746.303 190.927 746.159 191.579 746.159C192.181 746.159 192.706 746.288 193.153 746.545C193.603 746.803 193.952 747.176 194.198 747.665C194.448 748.153 194.571 748.746 194.567 749.443V755H192.511V749.761C192.511 749.178 192.359 748.722 192.056 748.392C191.757 748.062 191.342 747.898 190.812 747.898C190.452 747.898 190.132 747.977 189.852 748.136C189.575 748.292 189.357 748.517 189.198 748.812C189.043 749.108 188.965 749.466 188.965 749.886ZM201.016 746.273V747.864H195.999V746.273H201.016ZM197.238 744.182H199.295V752.375C199.295 752.652 199.336 752.864 199.42 753.011C199.507 753.155 199.621 753.254 199.761 753.307C199.901 753.36 200.056 753.386 200.227 753.386C200.355 753.386 200.473 753.377 200.579 753.358C200.689 753.339 200.772 753.322 200.829 753.307L201.175 754.915C201.066 754.953 200.908 754.994 200.704 755.04C200.503 755.085 200.257 755.112 199.965 755.119C199.45 755.134 198.986 755.057 198.573 754.886C198.16 754.712 197.833 754.443 197.59 754.08C197.352 753.716 197.234 753.261 197.238 752.716V744.182ZM206.506 755.17C205.631 755.17 204.876 754.989 204.239 754.625C203.607 754.258 203.12 753.739 202.779 753.068C202.438 752.394 202.268 751.6 202.268 750.688C202.268 749.79 202.438 749.002 202.779 748.324C203.124 747.642 203.605 747.112 204.222 746.733C204.84 746.35 205.565 746.159 206.398 746.159C206.936 746.159 207.444 746.246 207.921 746.42C208.402 746.591 208.826 746.856 209.194 747.216C209.565 747.576 209.857 748.034 210.069 748.591C210.281 749.144 210.387 749.803 210.387 750.568V751.199H203.234V749.812H208.415C208.412 749.419 208.326 749.068 208.16 748.761C207.993 748.451 207.76 748.206 207.461 748.028C207.165 747.85 206.821 747.761 206.427 747.761C206.006 747.761 205.637 747.864 205.319 748.068C205.001 748.269 204.753 748.534 204.575 748.864C204.4 749.189 204.311 749.547 204.308 749.938V751.148C204.308 751.655 204.4 752.091 204.586 752.455C204.772 752.814 205.031 753.091 205.364 753.284C205.698 753.473 206.088 753.568 206.535 753.568C206.834 753.568 207.105 753.527 207.347 753.443C207.59 753.356 207.8 753.229 207.978 753.062C208.156 752.896 208.29 752.689 208.381 752.443L210.302 752.659C210.181 753.167 209.95 753.61 209.609 753.989C209.272 754.364 208.84 754.655 208.313 754.864C207.787 755.068 207.184 755.17 206.506 755.17ZM215.923 758.455C215.184 758.455 214.549 758.354 214.019 758.153C213.489 757.956 213.063 757.691 212.741 757.358C212.419 757.025 212.195 756.655 212.07 756.25L213.923 755.801C214.006 755.972 214.127 756.14 214.286 756.307C214.445 756.477 214.659 756.617 214.928 756.727C215.201 756.841 215.544 756.898 215.957 756.898C216.54 756.898 217.023 756.756 217.406 756.472C217.788 756.191 217.979 755.729 217.979 755.085V753.432H217.877C217.771 753.644 217.616 753.862 217.411 754.085C217.21 754.309 216.943 754.496 216.61 754.648C216.281 754.799 215.866 754.875 215.366 754.875C214.695 754.875 214.087 754.718 213.542 754.403C213 754.085 212.568 753.612 212.246 752.983C211.928 752.35 211.769 751.559 211.769 750.608C211.769 749.65 211.928 748.841 212.246 748.182C212.568 747.519 213.002 747.017 213.548 746.676C214.093 746.331 214.701 746.159 215.371 746.159C215.883 746.159 216.303 746.246 216.633 746.42C216.966 746.591 217.231 746.797 217.428 747.04C217.625 747.278 217.775 747.504 217.877 747.716H217.991V746.273H220.019V755.142C220.019 755.888 219.841 756.506 219.485 756.994C219.129 757.483 218.642 757.848 218.025 758.091C217.407 758.333 216.707 758.455 215.923 758.455ZM215.94 753.261C216.375 753.261 216.746 753.155 217.053 752.943C217.36 752.731 217.593 752.426 217.752 752.028C217.911 751.631 217.991 751.153 217.991 750.597C217.991 750.047 217.911 749.566 217.752 749.153C217.597 748.741 217.366 748.42 217.059 748.193C216.756 747.962 216.383 747.847 215.94 747.847C215.481 747.847 215.099 747.966 214.792 748.205C214.485 748.443 214.254 748.771 214.099 749.188C213.943 749.6 213.866 750.07 213.866 750.597C213.866 751.131 213.943 751.598 214.099 752C214.258 752.398 214.491 752.708 214.798 752.932C215.108 753.152 215.489 753.261 215.94 753.261ZM222.127 755V746.273H224.121V747.727H224.212C224.371 747.223 224.644 746.835 225.031 746.562C225.421 746.286 225.866 746.148 226.366 746.148C226.479 746.148 226.606 746.153 226.746 746.165C226.89 746.172 227.01 746.186 227.104 746.205V748.097C227.017 748.066 226.879 748.04 226.69 748.017C226.504 747.991 226.324 747.977 226.15 747.977C225.775 747.977 225.438 748.059 225.138 748.222C224.843 748.381 224.61 748.602 224.44 748.886C224.269 749.17 224.184 749.498 224.184 749.869V755H222.127ZM230.826 755.176C230.273 755.176 229.775 755.078 229.332 754.881C228.892 754.68 228.544 754.384 228.286 753.994C228.032 753.604 227.906 753.123 227.906 752.551C227.906 752.059 227.996 751.652 228.178 751.33C228.36 751.008 228.608 750.75 228.923 750.557C229.237 750.364 229.591 750.218 229.985 750.119C230.383 750.017 230.794 749.943 231.218 749.898C231.729 749.845 232.144 749.797 232.462 749.756C232.781 749.71 233.012 749.642 233.156 749.551C233.303 749.456 233.377 749.311 233.377 749.114V749.08C233.377 748.652 233.25 748.32 232.996 748.085C232.743 747.85 232.377 747.733 231.9 747.733C231.396 747.733 230.996 747.843 230.701 748.062C230.409 748.282 230.212 748.542 230.11 748.841L228.19 748.568C228.341 748.038 228.591 747.595 228.94 747.239C229.288 746.879 229.714 746.61 230.218 746.432C230.722 746.25 231.279 746.159 231.888 746.159C232.309 746.159 232.728 746.208 233.144 746.307C233.561 746.405 233.942 746.568 234.286 746.795C234.631 747.019 234.907 747.324 235.116 747.71C235.328 748.097 235.434 748.58 235.434 749.159V755H233.457V753.801H233.388C233.263 754.044 233.087 754.271 232.86 754.483C232.637 754.691 232.354 754.86 232.013 754.989C231.676 755.114 231.281 755.176 230.826 755.176ZM231.36 753.665C231.773 753.665 232.131 753.583 232.434 753.42C232.737 753.254 232.97 753.034 233.133 752.761C233.299 752.489 233.383 752.191 233.383 751.869V750.841C233.318 750.894 233.209 750.943 233.053 750.989C232.902 751.034 232.731 751.074 232.542 751.108C232.353 751.142 232.165 751.172 231.979 751.199C231.794 751.225 231.633 751.248 231.496 751.267C231.19 751.309 230.915 751.377 230.673 751.472C230.43 751.566 230.239 751.699 230.099 751.869C229.959 752.036 229.888 752.252 229.888 752.517C229.888 752.896 230.027 753.182 230.303 753.375C230.58 753.568 230.932 753.665 231.36 753.665ZM241.86 746.273V747.864H236.843V746.273H241.86ZM238.082 744.182H240.138V752.375C240.138 752.652 240.18 752.864 240.263 753.011C240.351 753.155 240.464 753.254 240.604 753.307C240.745 753.36 240.9 753.386 241.07 753.386C241.199 753.386 241.317 753.377 241.423 753.358C241.532 753.339 241.616 753.322 241.673 753.307L242.019 754.915C241.909 754.953 241.752 754.994 241.548 755.04C241.347 755.085 241.101 755.112 240.809 755.119C240.294 755.134 239.83 755.057 239.417 754.886C239.004 754.712 238.676 754.443 238.434 754.08C238.195 753.716 238.078 753.261 238.082 752.716V744.182ZM247.35 755.17C246.475 755.17 245.719 754.989 245.083 754.625C244.451 754.258 243.964 753.739 243.623 753.068C243.282 752.394 243.112 751.6 243.112 750.688C243.112 749.79 243.282 749.002 243.623 748.324C243.968 747.642 244.449 747.112 245.066 746.733C245.683 746.35 246.409 746.159 247.242 746.159C247.78 746.159 248.288 746.246 248.765 746.42C249.246 746.591 249.67 746.856 250.038 747.216C250.409 747.576 250.701 748.034 250.913 748.591C251.125 749.144 251.231 749.803 251.231 750.568V751.199H244.077V749.812H249.259C249.255 749.419 249.17 749.068 249.004 748.761C248.837 748.451 248.604 748.206 248.305 748.028C248.009 747.85 247.665 747.761 247.271 747.761C246.85 747.761 246.481 747.864 246.163 748.068C245.844 748.269 245.596 748.534 245.418 748.864C245.244 749.189 245.155 749.547 245.151 749.938V751.148C245.151 751.655 245.244 752.091 245.43 752.455C245.615 752.814 245.875 753.091 246.208 753.284C246.541 753.473 246.932 753.568 247.379 753.568C247.678 753.568 247.949 753.527 248.191 753.443C248.433 753.356 248.644 753.229 248.822 753.062C249 752.896 249.134 752.689 249.225 752.443L251.146 752.659C251.024 753.167 250.793 753.61 250.452 753.989C250.115 754.364 249.683 754.655 249.157 754.864C248.63 755.068 248.028 755.17 247.35 755.17ZM256.21 755.153C255.524 755.153 254.91 754.977 254.369 754.625C253.827 754.273 253.399 753.761 253.085 753.091C252.77 752.42 252.613 751.606 252.613 750.648C252.613 749.678 252.772 748.86 253.09 748.193C253.412 747.523 253.846 747.017 254.391 746.676C254.937 746.331 255.545 746.159 256.215 746.159C256.727 746.159 257.147 746.246 257.477 746.42C257.806 746.591 258.067 746.797 258.261 747.04C258.454 747.278 258.603 747.504 258.71 747.716H258.795V743.364H260.857V755H258.835V753.625H258.71C258.603 753.837 258.45 754.062 258.249 754.301C258.049 754.536 257.783 754.737 257.454 754.903C257.124 755.07 256.71 755.153 256.21 755.153ZM256.783 753.466C257.219 753.466 257.59 753.348 257.897 753.114C258.204 752.875 258.437 752.544 258.596 752.119C258.755 751.695 258.835 751.201 258.835 750.636C258.835 750.072 258.755 749.581 258.596 749.165C258.441 748.748 258.21 748.424 257.903 748.193C257.6 747.962 257.227 747.847 256.783 747.847C256.325 747.847 255.942 747.966 255.636 748.205C255.329 748.443 255.098 748.773 254.942 749.193C254.787 749.614 254.71 750.095 254.71 750.636C254.71 751.182 254.787 751.669 254.942 752.097C255.102 752.521 255.335 752.856 255.641 753.102C255.952 753.345 256.333 753.466 256.783 753.466ZM273.433 746.562C273.379 746.066 273.156 745.68 272.762 745.403C272.372 745.127 271.864 744.989 271.239 744.989C270.8 744.989 270.423 745.055 270.109 745.188C269.794 745.32 269.554 745.5 269.387 745.727C269.22 745.955 269.135 746.214 269.131 746.506C269.131 746.748 269.186 746.958 269.296 747.136C269.41 747.314 269.563 747.466 269.756 747.591C269.95 747.712 270.164 747.814 270.398 747.898C270.633 747.981 270.87 748.051 271.109 748.108L272.2 748.381C272.639 748.483 273.061 748.621 273.467 748.795C273.876 748.97 274.241 749.189 274.563 749.455C274.889 749.72 275.147 750.04 275.336 750.415C275.525 750.79 275.62 751.229 275.62 751.733C275.62 752.415 275.446 753.015 275.097 753.534C274.749 754.049 274.245 754.453 273.586 754.744C272.931 755.032 272.137 755.176 271.205 755.176C270.3 755.176 269.514 755.036 268.847 754.756C268.184 754.475 267.665 754.066 267.29 753.528C266.919 752.991 266.719 752.335 266.688 751.562H268.762C268.792 751.968 268.917 752.305 269.137 752.574C269.357 752.843 269.643 753.044 269.995 753.176C270.351 753.309 270.749 753.375 271.188 753.375C271.647 753.375 272.048 753.307 272.393 753.17C272.741 753.03 273.014 752.837 273.211 752.591C273.408 752.341 273.508 752.049 273.512 751.716C273.508 751.413 273.419 751.163 273.245 750.966C273.071 750.765 272.826 750.598 272.512 750.466C272.201 750.33 271.838 750.208 271.421 750.102L270.097 749.761C269.139 749.515 268.381 749.142 267.825 748.642C267.272 748.138 266.995 747.47 266.995 746.636C266.995 745.951 267.181 745.35 267.552 744.835C267.927 744.32 268.436 743.92 269.08 743.636C269.724 743.348 270.453 743.205 271.268 743.205C272.094 743.205 272.817 743.348 273.438 743.636C274.063 743.92 274.554 744.316 274.91 744.824C275.266 745.328 275.45 745.907 275.461 746.562H273.433ZM281.215 755.17C280.363 755.17 279.624 754.983 278.999 754.608C278.374 754.233 277.889 753.708 277.545 753.034C277.204 752.36 277.033 751.572 277.033 750.67C277.033 749.769 277.204 748.979 277.545 748.301C277.889 747.623 278.374 747.097 278.999 746.722C279.624 746.347 280.363 746.159 281.215 746.159C282.067 746.159 282.806 746.347 283.431 746.722C284.056 747.097 284.539 747.623 284.88 748.301C285.225 748.979 285.397 749.769 285.397 750.67C285.397 751.572 285.225 752.36 284.88 753.034C284.539 753.708 284.056 754.233 283.431 754.608C282.806 754.983 282.067 755.17 281.215 755.17ZM281.227 753.523C281.689 753.523 282.075 753.396 282.386 753.142C282.696 752.884 282.927 752.54 283.079 752.108C283.234 751.676 283.312 751.195 283.312 750.665C283.312 750.131 283.234 749.648 283.079 749.216C282.927 748.78 282.696 748.434 282.386 748.176C282.075 747.919 281.689 747.79 281.227 747.79C280.753 747.79 280.359 747.919 280.045 748.176C279.734 748.434 279.501 748.78 279.346 749.216C279.194 749.648 279.119 750.131 279.119 750.665C279.119 751.195 279.194 751.676 279.346 752.108C279.501 752.54 279.734 752.884 280.045 753.142C280.359 753.396 280.753 753.523 281.227 753.523ZM289.2 743.364V755H287.143V743.364H289.2ZM296.877 751.33V746.273H298.934V755H296.94V753.449H296.849C296.652 753.937 296.328 754.337 295.877 754.648C295.43 754.958 294.879 755.114 294.224 755.114C293.652 755.114 293.146 754.987 292.707 754.733C292.271 754.475 291.93 754.102 291.684 753.614C291.438 753.121 291.315 752.527 291.315 751.83V746.273H293.371V751.511C293.371 752.064 293.523 752.504 293.826 752.83C294.129 753.155 294.527 753.318 295.019 753.318C295.322 753.318 295.616 753.244 295.9 753.097C296.184 752.949 296.417 752.729 296.599 752.438C296.784 752.142 296.877 751.773 296.877 751.33ZM305.407 746.273V747.864H300.39V746.273H305.407ZM301.629 744.182H303.685V752.375C303.685 752.652 303.727 752.864 303.81 753.011C303.897 753.155 304.011 753.254 304.151 753.307C304.291 753.36 304.447 753.386 304.617 753.386C304.746 753.386 304.863 753.377 304.969 753.358C305.079 753.339 305.163 753.322 305.219 753.307L305.566 754.915C305.456 754.953 305.299 754.994 305.094 755.04C304.894 755.085 304.647 755.112 304.356 755.119C303.841 755.134 303.377 755.057 302.964 754.886C302.551 754.712 302.223 754.443 301.981 754.08C301.742 753.716 301.625 753.261 301.629 752.716V744.182ZM307.127 755V746.273H309.184V755H307.127ZM308.161 745.034C307.835 745.034 307.555 744.926 307.32 744.71C307.085 744.491 306.968 744.227 306.968 743.92C306.968 743.61 307.085 743.347 307.32 743.131C307.555 742.911 307.835 742.801 308.161 742.801C308.491 742.801 308.771 742.911 309.002 743.131C309.237 743.347 309.354 743.61 309.354 743.92C309.354 744.227 309.237 744.491 309.002 744.71C308.771 744.926 308.491 745.034 308.161 745.034ZM315.106 755.17C314.254 755.17 313.515 754.983 312.89 754.608C312.265 754.233 311.78 753.708 311.435 753.034C311.094 752.36 310.924 751.572 310.924 750.67C310.924 749.769 311.094 748.979 311.435 748.301C311.78 747.623 312.265 747.097 312.89 746.722C313.515 746.347 314.254 746.159 315.106 746.159C315.958 746.159 316.697 746.347 317.322 746.722C317.947 747.097 318.43 747.623 318.771 748.301C319.115 748.979 319.288 749.769 319.288 750.67C319.288 751.572 319.115 752.36 318.771 753.034C318.43 753.708 317.947 754.233 317.322 754.608C316.697 754.983 315.958 755.17 315.106 755.17ZM315.117 753.523C315.579 753.523 315.966 753.396 316.276 753.142C316.587 752.884 316.818 752.54 316.969 752.108C317.125 751.676 317.202 751.195 317.202 750.665C317.202 750.131 317.125 749.648 316.969 749.216C316.818 748.78 316.587 748.434 316.276 748.176C315.966 747.919 315.579 747.79 315.117 747.79C314.644 747.79 314.25 747.919 313.935 748.176C313.625 748.434 313.392 748.78 313.237 749.216C313.085 749.648 313.009 750.131 313.009 750.665C313.009 751.195 313.085 751.676 313.237 752.108C313.392 752.54 313.625 752.884 313.935 753.142C314.25 753.396 314.644 753.523 315.117 753.523ZM323.09 749.886V755H321.033V746.273H322.999V747.756H323.102C323.302 747.267 323.622 746.879 324.062 746.591C324.505 746.303 325.052 746.159 325.704 746.159C326.306 746.159 326.831 746.288 327.278 746.545C327.728 746.803 328.077 747.176 328.323 747.665C328.573 748.153 328.696 748.746 328.692 749.443V755H326.636V749.761C326.636 749.178 326.484 748.722 326.181 748.392C325.882 748.062 325.467 747.898 324.937 747.898C324.577 747.898 324.257 747.977 323.977 748.136C323.7 748.292 323.482 748.517 323.323 748.812C323.168 749.108 323.09 749.466 323.09 749.886ZM337.681 748.58L335.806 748.784C335.753 748.595 335.66 748.417 335.528 748.25C335.399 748.083 335.225 747.949 335.005 747.847C334.785 747.744 334.516 747.693 334.198 747.693C333.77 747.693 333.41 747.786 333.119 747.972C332.831 748.157 332.689 748.398 332.692 748.693C332.689 748.947 332.781 749.153 332.971 749.312C333.164 749.472 333.482 749.602 333.925 749.705L335.414 750.023C336.24 750.201 336.853 750.483 337.255 750.869C337.66 751.256 337.865 751.761 337.869 752.386C337.865 752.936 337.704 753.42 337.386 753.841C337.071 754.258 336.634 754.583 336.073 754.818C335.513 755.053 334.869 755.17 334.141 755.17C333.073 755.17 332.213 754.947 331.562 754.5C330.91 754.049 330.522 753.422 330.397 752.619L332.403 752.426C332.494 752.82 332.687 753.117 332.982 753.318C333.278 753.519 333.662 753.619 334.136 753.619C334.624 753.619 335.016 753.519 335.312 753.318C335.611 753.117 335.761 752.869 335.761 752.574C335.761 752.324 335.664 752.117 335.471 751.955C335.281 751.792 334.986 751.667 334.585 751.58L333.096 751.267C332.259 751.093 331.639 750.799 331.238 750.386C330.836 749.97 330.638 749.443 330.641 748.807C330.638 748.269 330.783 747.803 331.079 747.409C331.378 747.011 331.793 746.705 332.323 746.489C332.857 746.269 333.473 746.159 334.17 746.159C335.192 746.159 335.997 746.377 336.585 746.812C337.175 747.248 337.541 747.837 337.681 748.58Z" fill="white"/>
</g>
<defs>
<filter id="filter0_b_146_316" x="-100" y="-100" width="575" height="1012" filterUnits="userSpaceOnUse" color-interpolation-filters="sRGB">
<feFlood flood-opacity="0" result="BackgroundImageFix"/>
<feGaussianBlur in="BackgroundImage" stdDeviation="50"/>
<feComposite in2="SourceAlpha" operator="in" result="effect1_backgroundBlur_146_316"/>
<feBlend mode="normal" in="SourceGraphic" in2="effect1_backgroundBlur_146_316" result="shape"/>
</filter>
<linearGradient id="paint0_linear_146_316" x1="-339" y1="50.5" x2="254" y2="663.5" gradientUnits="userSpaceOnUse">
<stop offset="0.302809" stop-color="white"/>
<stop offset="0.536458" stop-color="#CA61CA" stop-opacity="0.29"/>
<stop offset="1" stop-color="#4B5EAA"/>
</linearGradient>
<clipPath id="clip0_146_316">
<rect width="375" height="812" fill="white"/>
</clipPath>
</defs>
</svg>
